<svg width="21" height="20" viewBox="0 0 21 20" fill="none" xmlns="http://www.w3.org/2000/svg">
<g id="Icon">
<path d="M19.5 10C19.5 14.9706 15.4706 19 10.5 19C5.52944 19 1.5 14.9706 1.5 10C1.5 5.02944 5.52944 1 10.5 1C15.4706 1 19.5 5.02944 19.5 10Z" fill="black"/>
<path d="M8.22414 5.97177C7.81162 5.93427 7.44682 6.23827 7.40931 6.65079C7.37181 7.0633 7.67582 7.42811 8.08833 7.46561L8.22414 5.97177ZM13.3125 7.18744L14.0594 7.11954C14.0267 6.75898 13.741 6.4733 13.3804 6.44052L13.3125 7.18744ZM13.0344 12.4116C13.0719 12.8241 13.4367 13.1281 13.8492 13.0906C14.2617 13.0531 14.5657 12.6883 14.5282 12.2758L13.0344 12.4116ZM7.15715 12.2822C6.86426 12.575 6.86426 13.0499 7.15715 13.3428C7.45004 13.6357 7.92492 13.6357 8.21781 13.3428L7.15715 12.2822ZM8.08833 7.46561L13.2446 7.93436L13.3804 6.44052L8.22414 5.97177L8.08833 7.46561ZM12.5656 7.25534L13.0344 12.4116L14.5282 12.2758L14.0594 7.11954L12.5656 7.25534ZM12.7822 6.65711L7.15715 12.2822L8.21781 13.3428L13.8429 7.71777L12.7822 6.65711ZM18.75 10C18.75 14.5563 15.0563 18.25 10.5 18.25V19.75C15.8848 19.75 20.25 15.3848 20.25 10H18.75ZM10.5 18.25C5.94365 18.25 2.25 14.5563 2.25 10H0.75C0.75 15.3848 5.11522 19.75 10.5 19.75V18.25ZM2.25 10C2.25 5.44365 5.94365 1.75 10.5 1.75V0.25C5.11522 0.25 0.75 4.61522 0.75 10H2.25ZM10.5 1.75C15.0563 1.75 18.75 5.44365 18.75 10H20.25C20.25 4.61522 15.8848 0.25 10.5 0.25V1.75Z" fill="white"/>
</g>
</svg>
