<svg width="18" height="18" viewBox="0 0 18 18" fill="none" xmlns="http://www.w3.org/2000/svg">
<circle cx="9.00055" cy="14.775" r="2.05914" fill="url(#paint0_radial_3810_7353)"/>
<circle cx="9.00055" cy="14.775" r="2.05914" fill="url(#paint1_linear_3810_7353)"/>
<circle cx="9.00055" cy="14.775" r="2.05914" fill="url(#paint2_radial_3810_7353)"/>
<rect x="8.32422" y="1.15869" width="1.3547" height="2.45324" rx="0.67735" fill="url(#paint3_radial_3810_7353)"/>
<rect x="8.32422" y="1.15869" width="1.3547" height="2.45324" rx="0.67735" fill="url(#paint4_linear_3810_7353)"/>
<rect x="8.32422" y="1.15869" width="1.3547" height="2.45324" rx="0.67735" fill="url(#paint5_radial_3810_7353)"/>
<path d="M4.48908 6.00377C4.90644 3.91454 6.73079 2.40619 8.85711 2.38531C8.87204 2.38518 8.88698 2.38531 8.90193 2.38531H9.10061C9.11556 2.38531 9.1305 2.38518 9.14543 2.38531C11.2717 2.40619 13.0961 3.91454 13.5135 6.00377L14.5604 11.2444C14.6356 11.6212 14.8062 11.9725 15.0557 12.2647L15.7527 13.081C16.1005 13.4883 16.2916 14.0064 16.2916 14.542V15.2879C16.2916 15.5209 16.1027 15.7098 15.8697 15.7098H2.13281C1.89982 15.7098 1.71094 15.5209 1.71094 15.2879V14.542C1.71094 14.0064 1.90204 13.4883 2.24987 13.081L2.94684 12.2647C3.19637 11.9725 3.36689 11.6212 3.44217 11.2444L4.48908 6.00377Z" fill="url(#paint6_linear_3810_7353)"/>
<path d="M4.48908 6.00377C4.90644 3.91454 6.73079 2.40619 8.85711 2.38531C8.87204 2.38518 8.88698 2.38531 8.90193 2.38531H9.10061C9.11556 2.38531 9.1305 2.38518 9.14543 2.38531C11.2717 2.40619 13.0961 3.91454 13.5135 6.00377L14.5604 11.2444C14.6356 11.6212 14.8062 11.9725 15.0557 12.2647L15.7527 13.081C16.1005 13.4883 16.2916 14.0064 16.2916 14.542V15.2879C16.2916 15.5209 16.1027 15.7098 15.8697 15.7098H2.13281C1.89982 15.7098 1.71094 15.5209 1.71094 15.2879V14.542C1.71094 14.0064 1.90204 13.4883 2.24987 13.081L2.94684 12.2647C3.19637 11.9725 3.36689 11.6212 3.44217 11.2444L4.48908 6.00377Z" fill="url(#paint7_radial_3810_7353)"/>
<path d="M4.48908 6.00377C4.90644 3.91454 6.73079 2.40619 8.85711 2.38531C8.87204 2.38518 8.88698 2.38531 8.90193 2.38531H9.10061C9.11556 2.38531 9.1305 2.38518 9.14543 2.38531C11.2717 2.40619 13.0961 3.91454 13.5135 6.00377L14.5604 11.2444C14.6356 11.6212 14.8062 11.9725 15.0557 12.2647L15.7527 13.081C16.1005 13.4883 16.2916 14.0064 16.2916 14.542V15.2879C16.2916 15.5209 16.1027 15.7098 15.8697 15.7098H2.13281C1.89982 15.7098 1.71094 15.5209 1.71094 15.2879V14.542C1.71094 14.0064 1.90204 13.4883 2.24987 13.081L2.94684 12.2647C3.19637 11.9725 3.36689 11.6212 3.44217 11.2444L4.48908 6.00377Z" fill="url(#paint8_radial_3810_7353)" fill-opacity="0.6"/>
<path d="M4.48908 6.00377C4.90644 3.91454 6.73079 2.40619 8.85711 2.38531C8.87204 2.38518 8.88698 2.38531 8.90193 2.38531H9.10061C9.11556 2.38531 9.1305 2.38518 9.14543 2.38531C11.2717 2.40619 13.0961 3.91454 13.5135 6.00377L14.5604 11.2444C14.6356 11.6212 14.8062 11.9725 15.0557 12.2647L15.7527 13.081C16.1005 13.4883 16.2916 14.0064 16.2916 14.542V15.2879C16.2916 15.5209 16.1027 15.7098 15.8697 15.7098H2.13281C1.89982 15.7098 1.71094 15.5209 1.71094 15.2879V14.542C1.71094 14.0064 1.90204 13.4883 2.24987 13.081L2.94684 12.2647C3.19637 11.9725 3.36689 11.6212 3.44217 11.2444L4.48908 6.00377Z" fill="url(#paint9_radial_3810_7353)"/>
<path d="M4.48908 6.00377C4.90644 3.91454 6.73079 2.40619 8.85711 2.38531C8.87204 2.38518 8.88698 2.38531 8.90193 2.38531H9.10061C9.11556 2.38531 9.1305 2.38518 9.14543 2.38531C11.2717 2.40619 13.0961 3.91454 13.5135 6.00377L14.5604 11.2444C14.6356 11.6212 14.8062 11.9725 15.0557 12.2647L15.7527 13.081C16.1005 13.4883 16.2916 14.0064 16.2916 14.542V15.2879C16.2916 15.5209 16.1027 15.7098 15.8697 15.7098H2.13281C1.89982 15.7098 1.71094 15.5209 1.71094 15.2879V14.542C1.71094 14.0064 1.90204 13.4883 2.24987 13.081L2.94684 12.2647C3.19637 11.9725 3.36689 11.6212 3.44217 11.2444L4.48908 6.00377Z" fill="url(#paint10_radial_3810_7353)" fill-opacity="0.5"/>
<path d="M4.48908 6.00377C4.90644 3.91454 6.73079 2.40619 8.85711 2.38531C8.87204 2.38518 8.88698 2.38531 8.90193 2.38531H9.10061C9.11556 2.38531 9.1305 2.38518 9.14543 2.38531C11.2717 2.40619 13.0961 3.91454 13.5135 6.00377L14.5604 11.2444C14.6356 11.6212 14.8062 11.9725 15.0557 12.2647L15.7527 13.081C16.1005 13.4883 16.2916 14.0064 16.2916 14.542V15.2879C16.2916 15.5209 16.1027 15.7098 15.8697 15.7098H2.13281C1.89982 15.7098 1.71094 15.5209 1.71094 15.2879V14.542C1.71094 14.0064 1.90204 13.4883 2.24987 13.081L2.94684 12.2647C3.19637 11.9725 3.36689 11.6212 3.44217 11.2444L4.48908 6.00377Z" fill="url(#paint11_radial_3810_7353)" fill-opacity="0.6"/>
<path d="M4.48908 6.00377C4.90644 3.91454 6.73079 2.40619 8.85711 2.38531C8.87204 2.38518 8.88698 2.38531 8.90193 2.38531H9.10061C9.11556 2.38531 9.1305 2.38518 9.14543 2.38531C11.2717 2.40619 13.0961 3.91454 13.5135 6.00377L14.5604 11.2444C14.6356 11.6212 14.8062 11.9725 15.0557 12.2647L15.7527 13.081C16.1005 13.4883 16.2916 14.0064 16.2916 14.542V15.2879C16.2916 15.5209 16.1027 15.7098 15.8697 15.7098H2.13281C1.89982 15.7098 1.71094 15.5209 1.71094 15.2879V14.542C1.71094 14.0064 1.90204 13.4883 2.24987 13.081L2.94684 12.2647C3.19637 11.9725 3.36689 11.6212 3.44217 11.2444L4.48908 6.00377Z" fill="url(#paint12_radial_3810_7353)" fill-opacity="0.6"/>
<path d="M4.48908 6.00377C4.90644 3.91454 6.73079 2.40619 8.85711 2.38531C8.87204 2.38518 8.88698 2.38531 8.90193 2.38531H9.10061C9.11556 2.38531 9.1305 2.38518 9.14543 2.38531C11.2717 2.40619 13.0961 3.91454 13.5135 6.00377L14.5604 11.2444C14.6356 11.6212 14.8062 11.9725 15.0557 12.2647L15.7527 13.081C16.1005 13.4883 16.2916 14.0064 16.2916 14.542V15.2879C16.2916 15.5209 16.1027 15.7098 15.8697 15.7098H2.13281C1.89982 15.7098 1.71094 15.5209 1.71094 15.2879V14.542C1.71094 14.0064 1.90204 13.4883 2.24987 13.081L2.94684 12.2647C3.19637 11.9725 3.36689 11.6212 3.44217 11.2444L4.48908 6.00377Z" fill="url(#paint13_radial_3810_7353)" fill-opacity="0.6"/>
<path d="M4.48908 6.00377C4.90644 3.91454 6.73079 2.40619 8.85711 2.38531C8.87204 2.38518 8.88698 2.38531 8.90193 2.38531H9.10061C9.11556 2.38531 9.1305 2.38518 9.14543 2.38531C11.2717 2.40619 13.0961 3.91454 13.5135 6.00377L14.5604 11.2444C14.6356 11.6212 14.8062 11.9725 15.0557 12.2647L15.7527 13.081C16.1005 13.4883 16.2916 14.0064 16.2916 14.542V15.2879C16.2916 15.5209 16.1027 15.7098 15.8697 15.7098H2.13281C1.89982 15.7098 1.71094 15.5209 1.71094 15.2879V14.542C1.71094 14.0064 1.90204 13.4883 2.24987 13.081L2.94684 12.2647C3.19637 11.9725 3.36689 11.6212 3.44217 11.2444L4.48908 6.00377Z" fill="url(#paint14_radial_3810_7353)"/>
<path d="M4.48908 6.00377C4.90644 3.91454 6.73079 2.40619 8.85711 2.38531C8.87204 2.38518 8.88698 2.38531 8.90193 2.38531H9.10061C9.11556 2.38531 9.1305 2.38518 9.14543 2.38531C11.2717 2.40619 13.0961 3.91454 13.5135 6.00377L14.5604 11.2444C14.6356 11.6212 14.8062 11.9725 15.0557 12.2647L15.7527 13.081C16.1005 13.4883 16.2916 14.0064 16.2916 14.542V15.2879C16.2916 15.5209 16.1027 15.7098 15.8697 15.7098H2.13281C1.89982 15.7098 1.71094 15.5209 1.71094 15.2879V14.542C1.71094 14.0064 1.90204 13.4883 2.24987 13.081L2.94684 12.2647C3.19637 11.9725 3.36689 11.6212 3.44217 11.2444L4.48908 6.00377Z" fill="url(#paint15_radial_3810_7353)"/>
<path d="M4.48908 6.00377C4.90644 3.91454 6.73079 2.40619 8.85711 2.38531C8.87204 2.38518 8.88698 2.38531 8.90193 2.38531H9.10061C9.11556 2.38531 9.1305 2.38518 9.14543 2.38531C11.2717 2.40619 13.0961 3.91454 13.5135 6.00377L14.5604 11.2444C14.6356 11.6212 14.8062 11.9725 15.0557 12.2647L15.7527 13.081C16.1005 13.4883 16.2916 14.0064 16.2916 14.542V15.2879C16.2916 15.5209 16.1027 15.7098 15.8697 15.7098H2.13281C1.89982 15.7098 1.71094 15.5209 1.71094 15.2879V14.542C1.71094 14.0064 1.90204 13.4883 2.24987 13.081L2.94684 12.2647C3.19637 11.9725 3.36689 11.6212 3.44217 11.2444L4.48908 6.00377Z" fill="url(#paint16_linear_3810_7353)"/>
<path d="M4.48908 6.00377C4.90644 3.91454 6.73079 2.40619 8.85711 2.38531C8.87204 2.38518 8.88698 2.38531 8.90193 2.38531H9.10061C9.11556 2.38531 9.1305 2.38518 9.14543 2.38531C11.2717 2.40619 13.0961 3.91454 13.5135 6.00377L14.5604 11.2444C14.6356 11.6212 14.8062 11.9725 15.0557 12.2647L15.7527 13.081C16.1005 13.4883 16.2916 14.0064 16.2916 14.542V15.2879C16.2916 15.5209 16.1027 15.7098 15.8697 15.7098H2.13281C1.89982 15.7098 1.71094 15.5209 1.71094 15.2879V14.542C1.71094 14.0064 1.90204 13.4883 2.24987 13.081L2.94684 12.2647C3.19637 11.9725 3.36689 11.6212 3.44217 11.2444L4.48908 6.00377Z" fill="url(#paint17_linear_3810_7353)"/>
<path d="M4.48908 6.00377C4.90644 3.91454 6.73079 2.40619 8.85711 2.38531C8.87204 2.38518 8.88698 2.38531 8.90193 2.38531H9.10061C9.11556 2.38531 9.1305 2.38518 9.14543 2.38531C11.2717 2.40619 13.0961 3.91454 13.5135 6.00377L14.5604 11.2444C14.6356 11.6212 14.8062 11.9725 15.0557 12.2647L15.7527 13.081C16.1005 13.4883 16.2916 14.0064 16.2916 14.542V15.2879C16.2916 15.5209 16.1027 15.7098 15.8697 15.7098H2.13281C1.89982 15.7098 1.71094 15.5209 1.71094 15.2879V14.542C1.71094 14.0064 1.90204 13.4883 2.24987 13.081L2.94684 12.2647C3.19637 11.9725 3.36689 11.6212 3.44217 11.2444L4.48908 6.00377Z" fill="url(#paint18_radial_3810_7353)" fill-opacity="0.7"/>
<path d="M4.48908 6.00377C4.90644 3.91454 6.73079 2.40619 8.85711 2.38531C8.87204 2.38518 8.88698 2.38531 8.90193 2.38531H9.10061C9.11556 2.38531 9.1305 2.38518 9.14543 2.38531C11.2717 2.40619 13.0961 3.91454 13.5135 6.00377L14.5604 11.2444C14.6356 11.6212 14.8062 11.9725 15.0557 12.2647L15.7527 13.081C16.1005 13.4883 16.2916 14.0064 16.2916 14.542V15.2879C16.2916 15.5209 16.1027 15.7098 15.8697 15.7098H2.13281C1.89982 15.7098 1.71094 15.5209 1.71094 15.2879V14.542C1.71094 14.0064 1.90204 13.4883 2.24987 13.081L2.94684 12.2647C3.19637 11.9725 3.36689 11.6212 3.44217 11.2444L4.48908 6.00377Z" fill="url(#paint19_radial_3810_7353)" fill-opacity="0.7"/>
<path d="M4.48908 6.00377C4.90644 3.91454 6.73079 2.40619 8.85711 2.38531C8.87204 2.38518 8.88698 2.38531 8.90193 2.38531H9.10061C9.11556 2.38531 9.1305 2.38518 9.14543 2.38531C11.2717 2.40619 13.0961 3.91454 13.5135 6.00377L14.5604 11.2444C14.6356 11.6212 14.8062 11.9725 15.0557 12.2647L15.7527 13.081C16.1005 13.4883 16.2916 14.0064 16.2916 14.542V15.2879C16.2916 15.5209 16.1027 15.7098 15.8697 15.7098H2.13281C1.89982 15.7098 1.71094 15.5209 1.71094 15.2879V14.542C1.71094 14.0064 1.90204 13.4883 2.24987 13.081L2.94684 12.2647C3.19637 11.9725 3.36689 11.6212 3.44217 11.2444L4.48908 6.00377Z" fill="url(#paint20_radial_3810_7353)"/>
<path d="M4.48908 6.00377C4.90644 3.91454 6.73079 2.40619 8.85711 2.38531C8.87204 2.38518 8.88698 2.38531 8.90193 2.38531H9.10061C9.11556 2.38531 9.1305 2.38518 9.14543 2.38531C11.2717 2.40619 13.0961 3.91454 13.5135 6.00377L14.5604 11.2444C14.6356 11.6212 14.8062 11.9725 15.0557 12.2647L15.7527 13.081C16.1005 13.4883 16.2916 14.0064 16.2916 14.542V15.2879C16.2916 15.5209 16.1027 15.7098 15.8697 15.7098H2.13281C1.89982 15.7098 1.71094 15.5209 1.71094 15.2879V14.542C1.71094 14.0064 1.90204 13.4883 2.24987 13.081L2.94684 12.2647C3.19637 11.9725 3.36689 11.6212 3.44217 11.2444L4.48908 6.00377Z" fill="url(#paint21_radial_3810_7353)" fill-opacity="0.2"/>
<defs>
<radialGradient id="paint0_radial_3810_7353" cx="0" cy="0" r="1" gradientUnits="userSpaceOnUse" gradientTransform="translate(9.98952 16.6291) rotate(-126.512) scale(1.66216 2.29553)">
<stop stop-color="#FFC26D"/>
<stop offset="1" stop-color="#F68D61"/>
</radialGradient>
<linearGradient id="paint1_linear_3810_7353" x1="8.58327" y1="15.2756" x2="8.72389" y2="16.2776" gradientUnits="userSpaceOnUse">
<stop offset="0.186236" stop-color="#E57356"/>
<stop offset="1" stop-color="#E57356" stop-opacity="0"/>
</linearGradient>
<radialGradient id="paint2_radial_3810_7353" cx="0" cy="0" r="1" gradientUnits="userSpaceOnUse" gradientTransform="translate(9.49733 15.0295) rotate(135) scale(2.28705 3.77385)">
<stop offset="0.441043" stop-color="#EA8059" stop-opacity="0"/>
<stop offset="1" stop-color="#C27068"/>
</radialGradient>
<radialGradient id="paint3_radial_3810_7353" cx="0" cy="0" r="1" gradientUnits="userSpaceOnUse" gradientTransform="translate(9.44664 2.38532) rotate(-90) scale(1.22662 0.738281)">
<stop stop-color="#FFE957"/>
<stop offset="1" stop-color="#F7A630"/>
</radialGradient>
<linearGradient id="paint4_linear_3810_7353" x1="8.32597" y1="2.0869" x2="8.6012" y2="2.0869" gradientUnits="userSpaceOnUse">
<stop stop-color="#DF9057"/>
<stop offset="0.641029" stop-color="#DF9057" stop-opacity="0.243857"/>
<stop offset="1" stop-color="#DF9057" stop-opacity="0"/>
</linearGradient>
<radialGradient id="paint5_radial_3810_7353" cx="0" cy="0" r="1" gradientUnits="userSpaceOnUse" gradientTransform="translate(9.35748 2.61026) rotate(-112.474) scale(1.52896 1.10426)">
<stop stop-color="#DF9057" stop-opacity="0"/>
<stop offset="0.81512" stop-color="#DF9057" stop-opacity="0.243857"/>
<stop offset="1" stop-color="#DF9057"/>
</radialGradient>
<linearGradient id="paint6_linear_3810_7353" x1="11.4933" y1="14.6771" x2="2.78321" y2="14.6771" gradientUnits="userSpaceOnUse">
<stop stop-color="#FCB949"/>
<stop offset="1" stop-color="#E28C37"/>
</linearGradient>
<radialGradient id="paint7_radial_3810_7353" cx="0" cy="0" r="1" gradientUnits="userSpaceOnUse" gradientTransform="translate(12.5644 9.59975) rotate(-180) scale(5.41424 11.5875)">
<stop stop-color="#FFE764"/>
<stop offset="0.34751" stop-color="#FFE764" stop-opacity="0.808602"/>
<stop offset="0.891787" stop-color="#FFE764" stop-opacity="0.0755517"/>
<stop offset="1" stop-color="#FFE764" stop-opacity="0"/>
</radialGradient>
<radialGradient id="paint8_radial_3810_7353" cx="0" cy="0" r="1" gradientUnits="userSpaceOnUse" gradientTransform="translate(12.377 14.1079) rotate(90) scale(1.33555 7.92424)">
<stop stop-color="#FFE764"/>
<stop offset="0.291581" stop-color="#FFE764" stop-opacity="0.808602"/>
<stop offset="0.891787" stop-color="#FFE764" stop-opacity="0.0755517"/>
<stop offset="1" stop-color="#FFE764" stop-opacity="0"/>
</radialGradient>
<radialGradient id="paint9_radial_3810_7353" cx="0" cy="0" r="1" gradientUnits="userSpaceOnUse" gradientTransform="translate(12.468 12.519) rotate(-90) scale(1.42021 5.60317)">
<stop stop-color="#F9C23C" stop-opacity="0.79"/>
<stop offset="0.349146" stop-color="#F9C23C" stop-opacity="0.595087"/>
<stop offset="0.741382" stop-color="#F9C23C" stop-opacity="0.10594"/>
<stop offset="1" stop-color="#F9C23C" stop-opacity="0"/>
</radialGradient>
<radialGradient id="paint10_radial_3810_7353" cx="0" cy="0" r="1" gradientUnits="userSpaceOnUse" gradientTransform="translate(11.267 4.46666) rotate(80.7539) scale(1.66848 4.78579)">
<stop stop-color="#FCB949"/>
<stop offset="0.49157" stop-color="#FCB949" stop-opacity="0.61239"/>
<stop offset="1" stop-color="#FCB949" stop-opacity="0"/>
</radialGradient>
<radialGradient id="paint11_radial_3810_7353" cx="0" cy="0" r="1" gradientUnits="userSpaceOnUse" gradientTransform="translate(4.94752 15.0072) rotate(-59.9068) scale(13.5974 16.6163)">
<stop stop-color="#FFE764" stop-opacity="0"/>
<stop offset="0.783823" stop-color="#FFE764" stop-opacity="0"/>
<stop offset="0.854775" stop-color="#FFE764" stop-opacity="0.274364"/>
<stop offset="1" stop-color="#FFE764"/>
</radialGradient>
<radialGradient id="paint12_radial_3810_7353" cx="0" cy="0" r="1" gradientUnits="userSpaceOnUse" gradientTransform="translate(14.5757 14.1527) rotate(94.4671) scale(1.16433 3.34357)">
<stop stop-color="#FFE764"/>
<stop offset="0.403543" stop-color="#FFE764" stop-opacity="0.808602"/>
<stop offset="0.891787" stop-color="#FFE764" stop-opacity="0.0755517"/>
<stop offset="1" stop-color="#FFE764" stop-opacity="0"/>
</radialGradient>
<radialGradient id="paint13_radial_3810_7353" cx="0" cy="0" r="1" gradientUnits="userSpaceOnUse" gradientTransform="translate(11.8634 6.20696) rotate(-113.987) scale(3.34584 4.94819)">
<stop stop-color="#FFE764"/>
<stop offset="0.346766" stop-color="#FFE764" stop-opacity="0.808602"/>
<stop offset="0.807283" stop-color="#FFE764" stop-opacity="0.0755517"/>
<stop offset="1" stop-color="#FFE764" stop-opacity="0"/>
</radialGradient>
<radialGradient id="paint14_radial_3810_7353" cx="0" cy="0" r="1" gradientUnits="userSpaceOnUse" gradientTransform="translate(3.93321 9.14547) rotate(9.80123) scale(3.04577 12.6839)">
<stop stop-color="#EA9253"/>
<stop offset="0.327703" stop-color="#EA9253" stop-opacity="0.835301"/>
<stop offset="0.788188" stop-color="#EA9253" stop-opacity="0.166967"/>
<stop offset="1" stop-color="#EA9253" stop-opacity="0"/>
</radialGradient>
<radialGradient id="paint15_radial_3810_7353" cx="0" cy="0" r="1" gradientUnits="userSpaceOnUse" gradientTransform="translate(6.63418 12.6063) rotate(-90) scale(1.48558 4.44592)">
<stop stop-color="#F5A43C"/>
<stop offset="0.367713" stop-color="#F5A43C" stop-opacity="0.734548"/>
<stop offset="0.705841" stop-color="#F5A43C" stop-opacity="0.14628"/>
<stop offset="1" stop-color="#F5A43C" stop-opacity="0"/>
</radialGradient>
<linearGradient id="paint16_linear_3810_7353" x1="2.75322" y1="7.23842" x2="8.14466" y2="8.95658" gradientUnits="userSpaceOnUse">
<stop offset="0.0614969" stop-color="#D7737D"/>
<stop offset="0.590732" stop-color="#FCA162" stop-opacity="0"/>
<stop offset="1" stop-color="#FCA162" stop-opacity="0"/>
</linearGradient>
<linearGradient id="paint17_linear_3810_7353" x1="10.1846" y1="15.8553" x2="10.1846" y2="14.1678" gradientUnits="userSpaceOnUse">
<stop offset="0.0614969" stop-color="#D7737D"/>
<stop offset="0.282174" stop-color="#F89C65" stop-opacity="0.113905"/>
<stop offset="0.330447" stop-color="#FCA162" stop-opacity="0"/>
</linearGradient>
<radialGradient id="paint18_radial_3810_7353" cx="0" cy="0" r="1" gradientUnits="userSpaceOnUse" gradientTransform="translate(10.5577 15.1584) rotate(-97.9773) scale(13.2172 8.46478)">
<stop offset="0.903411" stop-color="#E69136" stop-opacity="0"/>
<stop offset="0.926493" stop-color="#E38E38" stop-opacity="0.131844"/>
<stop offset="1" stop-color="#CF7D44"/>
</radialGradient>
<radialGradient id="paint19_radial_3810_7353" cx="0" cy="0" r="1" gradientUnits="userSpaceOnUse" gradientTransform="translate(4.15491 7.44504) rotate(7.12501) scale(1.13745 6.22629)">
<stop stop-color="#CF7D44"/>
<stop offset="0.772002" stop-color="#E38E38" stop-opacity="0.131844"/>
<stop offset="1" stop-color="#E69136" stop-opacity="0"/>
</radialGradient>
<radialGradient id="paint20_radial_3810_7353" cx="0" cy="0" r="1" gradientUnits="userSpaceOnUse" gradientTransform="translate(12.3995 8.22641) rotate(146.139) scale(12.8717 12.3478)">
<stop offset="0.670378" stop-color="#E69136" stop-opacity="0"/>
<stop offset="0.977283" stop-color="#CF7D44"/>
</radialGradient>
<radialGradient id="paint21_radial_3810_7353" cx="0" cy="0" r="1" gradientUnits="userSpaceOnUse" gradientTransform="translate(12.7977 11.3214) rotate(85.7636) scale(1.16249 3.38915)">
<stop stop-color="white"/>
<stop offset="1" stop-color="white" stop-opacity="0"/>
</radialGradient>
</defs>
</svg>
