<svg width="26" height="27" viewBox="0 0 26 27" fill="none" xmlns="http://www.w3.org/2000/svg">
<g id="Graduation cap">
<g id="Rectangle 3467265">
<path d="M3.83203 11.9575H21.9736V13.2672C21.9736 16.5503 19.2454 19.2117 15.8799 19.2117H9.92578C6.5603 19.2117 3.83203 16.5503 3.83203 13.2672V11.9575Z" fill="url(#paint0_linear_2656_7857)"/>
<path d="M3.83203 11.9575H21.9736V13.2672C21.9736 16.5503 19.2454 19.2117 15.8799 19.2117H9.92578C6.5603 19.2117 3.83203 16.5503 3.83203 13.2672V11.9575Z" fill="url(#paint1_linear_2656_7857)"/>
<path d="M3.83203 11.9575H21.9736V13.2672C21.9736 16.5503 19.2454 19.2117 15.8799 19.2117H9.92578C6.5603 19.2117 3.83203 16.5503 3.83203 13.2672V11.9575Z" fill="url(#paint2_linear_2656_7857)"/>
<path d="M3.83203 11.9575H21.9736V13.2672C21.9736 16.5503 19.2454 19.2117 15.8799 19.2117H9.92578C6.5603 19.2117 3.83203 16.5503 3.83203 13.2672V11.9575Z" fill="url(#paint3_linear_2656_7857)"/>
<path d="M3.83203 11.9575H21.9736V13.2672C21.9736 16.5503 19.2454 19.2117 15.8799 19.2117H9.92578C6.5603 19.2117 3.83203 16.5503 3.83203 13.2672V11.9575Z" fill="url(#paint4_linear_2656_7857)"/>
<path d="M3.83203 11.9575H21.9736V13.2672C21.9736 16.5503 19.2454 19.2117 15.8799 19.2117H9.92578C6.5603 19.2117 3.83203 16.5503 3.83203 13.2672V11.9575Z" fill="url(#paint5_linear_2656_7857)"/>
<path d="M3.83203 11.9575H21.9736V13.2672C21.9736 16.5503 19.2454 19.2117 15.8799 19.2117H9.92578C6.5603 19.2117 3.83203 16.5503 3.83203 13.2672V11.9575Z" fill="url(#paint6_linear_2656_7857)"/>
<path d="M3.83203 11.9575H21.9736V13.2672C21.9736 16.5503 19.2454 19.2117 15.8799 19.2117H9.92578C6.5603 19.2117 3.83203 16.5503 3.83203 13.2672V11.9575Z" fill="url(#paint7_linear_2656_7857)"/>
<path d="M3.83203 11.9575H21.9736V13.2672C21.9736 16.5503 19.2454 19.2117 15.8799 19.2117H9.92578C6.5603 19.2117 3.83203 16.5503 3.83203 13.2672V11.9575Z" fill="url(#paint8_linear_2656_7857)"/>
</g>
<g id="Vector 410">
<path d="M12.4222 17.0188L2.1122 11.8815C1.46178 11.5574 1.46283 10.6504 2.11398 10.3277L12.4233 5.21915C12.7242 5.07005 13.0801 5.07019 13.3808 5.21953L23.691 10.3389C24.3419 10.6621 24.3422 11.5691 23.6915 11.8927L13.3824 17.0192C13.0807 17.1692 12.7237 17.1691 12.4222 17.0188Z" fill="url(#paint9_linear_2656_7857)"/>
<path d="M12.4222 17.0188L2.1122 11.8815C1.46178 11.5574 1.46283 10.6504 2.11398 10.3277L12.4233 5.21915C12.7242 5.07005 13.0801 5.07019 13.3808 5.21953L23.691 10.3389C24.3419 10.6621 24.3422 11.5691 23.6915 11.8927L13.3824 17.0192C13.0807 17.1692 12.7237 17.1691 12.4222 17.0188Z" fill="url(#paint10_linear_2656_7857)"/>
<path d="M12.4222 17.0188L2.1122 11.8815C1.46178 11.5574 1.46283 10.6504 2.11398 10.3277L12.4233 5.21915C12.7242 5.07005 13.0801 5.07019 13.3808 5.21953L23.691 10.3389C24.3419 10.6621 24.3422 11.5691 23.6915 11.8927L13.3824 17.0192C13.0807 17.1692 12.7237 17.1691 12.4222 17.0188Z" fill="url(#paint11_linear_2656_7857)"/>
<path d="M12.4222 17.0188L2.1122 11.8815C1.46178 11.5574 1.46283 10.6504 2.11398 10.3277L12.4233 5.21915C12.7242 5.07005 13.0801 5.07019 13.3808 5.21953L23.691 10.3389C24.3419 10.6621 24.3422 11.5691 23.6915 11.8927L13.3824 17.0192C13.0807 17.1692 12.7237 17.1691 12.4222 17.0188Z" fill="url(#paint12_radial_2656_7857)" fill-opacity="0.5"/>
<path d="M12.4222 17.0188L2.1122 11.8815C1.46178 11.5574 1.46283 10.6504 2.11398 10.3277L12.4233 5.21915C12.7242 5.07005 13.0801 5.07019 13.3808 5.21953L23.691 10.3389C24.3419 10.6621 24.3422 11.5691 23.6915 11.8927L13.3824 17.0192C13.0807 17.1692 12.7237 17.1691 12.4222 17.0188Z" fill="url(#paint13_radial_2656_7857)" fill-opacity="0.7"/>
<path d="M12.4222 17.0188L2.1122 11.8815C1.46178 11.5574 1.46283 10.6504 2.11398 10.3277L12.4233 5.21915C12.7242 5.07005 13.0801 5.07019 13.3808 5.21953L23.691 10.3389C24.3419 10.6621 24.3422 11.5691 23.6915 11.8927L13.3824 17.0192C13.0807 17.1692 12.7237 17.1691 12.4222 17.0188Z" fill="url(#paint14_radial_2656_7857)" fill-opacity="0.4"/>
<path d="M12.4222 17.0188L2.1122 11.8815C1.46178 11.5574 1.46283 10.6504 2.11398 10.3277L12.4233 5.21915C12.7242 5.07005 13.0801 5.07019 13.3808 5.21953L23.691 10.3389C24.3419 10.6621 24.3422 11.5691 23.6915 11.8927L13.3824 17.0192C13.0807 17.1692 12.7237 17.1691 12.4222 17.0188Z" fill="url(#paint15_linear_2656_7857)" fill-opacity="0.7"/>
<path d="M12.4222 17.0188L2.1122 11.8815C1.46178 11.5574 1.46283 10.6504 2.11398 10.3277L12.4233 5.21915C12.7242 5.07005 13.0801 5.07019 13.3808 5.21953L23.691 10.3389C24.3419 10.6621 24.3422 11.5691 23.6915 11.8927L13.3824 17.0192C13.0807 17.1692 12.7237 17.1691 12.4222 17.0188Z" fill="url(#paint16_linear_2656_7857)" fill-opacity="0.9"/>
<path d="M12.4222 17.0188L2.1122 11.8815C1.46178 11.5574 1.46283 10.6504 2.11398 10.3277L12.4233 5.21915C12.7242 5.07005 13.0801 5.07019 13.3808 5.21953L23.691 10.3389C24.3419 10.6621 24.3422 11.5691 23.6915 11.8927L13.3824 17.0192C13.0807 17.1692 12.7237 17.1691 12.4222 17.0188Z" fill="url(#paint17_radial_2656_7857)" fill-opacity="0.8"/>
<path d="M12.4222 17.0188L2.1122 11.8815C1.46178 11.5574 1.46283 10.6504 2.11398 10.3277L12.4233 5.21915C12.7242 5.07005 13.0801 5.07019 13.3808 5.21953L23.691 10.3389C24.3419 10.6621 24.3422 11.5691 23.6915 11.8927L13.3824 17.0192C13.0807 17.1692 12.7237 17.1691 12.4222 17.0188Z" fill="url(#paint18_radial_2656_7857)" fill-opacity="0.4"/>
<path d="M12.4222 17.0188L2.1122 11.8815C1.46178 11.5574 1.46283 10.6504 2.11398 10.3277L12.4233 5.21915C12.7242 5.07005 13.0801 5.07019 13.3808 5.21953L23.691 10.3389C24.3419 10.6621 24.3422 11.5691 23.6915 11.8927L13.3824 17.0192C13.0807 17.1692 12.7237 17.1691 12.4222 17.0188Z" fill="url(#paint19_radial_2656_7857)" fill-opacity="0.2"/>
<path d="M12.4222 17.0188L2.1122 11.8815C1.46178 11.5574 1.46283 10.6504 2.11398 10.3277L12.4233 5.21915C12.7242 5.07005 13.0801 5.07019 13.3808 5.21953L23.691 10.3389C24.3419 10.6621 24.3422 11.5691 23.6915 11.8927L13.3824 17.0192C13.0807 17.1692 12.7237 17.1691 12.4222 17.0188Z" fill="url(#paint20_radial_2656_7857)" fill-opacity="0.8"/>
<path d="M12.4222 17.0188L2.1122 11.8815C1.46178 11.5574 1.46283 10.6504 2.11398 10.3277L12.4233 5.21915C12.7242 5.07005 13.0801 5.07019 13.3808 5.21953L23.691 10.3389C24.3419 10.6621 24.3422 11.5691 23.6915 11.8927L13.3824 17.0192C13.0807 17.1692 12.7237 17.1691 12.4222 17.0188Z" fill="url(#paint21_radial_2656_7857)" fill-opacity="0.3"/>
</g>
<g id="Vector 408 (Stroke)">
<path fill-rule="evenodd" clip-rule="evenodd" d="M12.5234 9.70288C12.6712 9.42015 13.0259 9.30783 13.3158 9.452L17.9583 11.7614C18.8358 12.1979 19.3882 13.0777 19.3882 14.0386V18.6702C19.3882 18.9876 19.1245 19.2449 18.7991 19.2449C18.4738 19.2449 18.2101 18.9876 18.2101 18.6702V14.0386C18.2101 13.5097 17.906 13.0255 17.4231 12.7853L12.7806 10.4758C12.4907 10.3317 12.3756 9.9856 12.5234 9.70288Z" fill="url(#paint22_linear_2656_7857)"/>
<path fill-rule="evenodd" clip-rule="evenodd" d="M12.5234 9.70288C12.6712 9.42015 13.0259 9.30783 13.3158 9.452L17.9583 11.7614C18.8358 12.1979 19.3882 13.0777 19.3882 14.0386V18.6702C19.3882 18.9876 19.1245 19.2449 18.7991 19.2449C18.4738 19.2449 18.2101 18.9876 18.2101 18.6702V14.0386C18.2101 13.5097 17.906 13.0255 17.4231 12.7853L12.7806 10.4758C12.4907 10.3317 12.3756 9.9856 12.5234 9.70288Z" fill="url(#paint23_radial_2656_7857)"/>
<path fill-rule="evenodd" clip-rule="evenodd" d="M12.5234 9.70288C12.6712 9.42015 13.0259 9.30783 13.3158 9.452L17.9583 11.7614C18.8358 12.1979 19.3882 13.0777 19.3882 14.0386V18.6702C19.3882 18.9876 19.1245 19.2449 18.7991 19.2449C18.4738 19.2449 18.2101 18.9876 18.2101 18.6702V14.0386C18.2101 13.5097 17.906 13.0255 17.4231 12.7853L12.7806 10.4758C12.4907 10.3317 12.3756 9.9856 12.5234 9.70288Z" fill="url(#paint24_linear_2656_7857)"/>
<path fill-rule="evenodd" clip-rule="evenodd" d="M12.5234 9.70288C12.6712 9.42015 13.0259 9.30783 13.3158 9.452L17.9583 11.7614C18.8358 12.1979 19.3882 13.0777 19.3882 14.0386V18.6702C19.3882 18.9876 19.1245 19.2449 18.7991 19.2449C18.4738 19.2449 18.2101 18.9876 18.2101 18.6702V14.0386C18.2101 13.5097 17.906 13.0255 17.4231 12.7853L12.7806 10.4758C12.4907 10.3317 12.3756 9.9856 12.5234 9.70288Z" fill="url(#paint25_linear_2656_7857)"/>
<path fill-rule="evenodd" clip-rule="evenodd" d="M12.5234 9.70288C12.6712 9.42015 13.0259 9.30783 13.3158 9.452L17.9583 11.7614C18.8358 12.1979 19.3882 13.0777 19.3882 14.0386V18.6702C19.3882 18.9876 19.1245 19.2449 18.7991 19.2449C18.4738 19.2449 18.2101 18.9876 18.2101 18.6702V14.0386C18.2101 13.5097 17.906 13.0255 17.4231 12.7853L12.7806 10.4758C12.4907 10.3317 12.3756 9.9856 12.5234 9.70288Z" fill="url(#paint26_radial_2656_7857)"/>
<path fill-rule="evenodd" clip-rule="evenodd" d="M12.5234 9.70288C12.6712 9.42015 13.0259 9.30783 13.3158 9.452L17.9583 11.7614C18.8358 12.1979 19.3882 13.0777 19.3882 14.0386V18.6702C19.3882 18.9876 19.1245 19.2449 18.7991 19.2449C18.4738 19.2449 18.2101 18.9876 18.2101 18.6702V14.0386C18.2101 13.5097 17.906 13.0255 17.4231 12.7853L12.7806 10.4758C12.4907 10.3317 12.3756 9.9856 12.5234 9.70288Z" fill="url(#paint27_radial_2656_7857)" fill-opacity="0.5"/>
<path fill-rule="evenodd" clip-rule="evenodd" d="M12.5234 9.70288C12.6712 9.42015 13.0259 9.30783 13.3158 9.452L17.9583 11.7614C18.8358 12.1979 19.3882 13.0777 19.3882 14.0386V18.6702C19.3882 18.9876 19.1245 19.2449 18.7991 19.2449C18.4738 19.2449 18.2101 18.9876 18.2101 18.6702V14.0386C18.2101 13.5097 17.906 13.0255 17.4231 12.7853L12.7806 10.4758C12.4907 10.3317 12.3756 9.9856 12.5234 9.70288Z" fill="url(#paint28_radial_2656_7857)" fill-opacity="0.4"/>
<path fill-rule="evenodd" clip-rule="evenodd" d="M12.5234 9.70288C12.6712 9.42015 13.0259 9.30783 13.3158 9.452L17.9583 11.7614C18.8358 12.1979 19.3882 13.0777 19.3882 14.0386V18.6702C19.3882 18.9876 19.1245 19.2449 18.7991 19.2449C18.4738 19.2449 18.2101 18.9876 18.2101 18.6702V14.0386C18.2101 13.5097 17.906 13.0255 17.4231 12.7853L12.7806 10.4758C12.4907 10.3317 12.3756 9.9856 12.5234 9.70288Z" fill="url(#paint29_radial_2656_7857)" fill-opacity="0.7"/>
</g>
<g id="Subtract">
<path d="M18.2146 18.6636C17.6877 18.8741 17.4434 19.3159 17.4434 19.7968C17.4434 20.5269 18.0502 21.1188 18.7986 21.1188C19.547 21.1188 20.1538 20.5269 20.1538 19.7968C20.1538 19.3159 19.865 18.8865 19.3889 18.6636H18.2146Z" fill="url(#paint30_radial_2656_7857)"/>
<path d="M18.2146 18.6636C17.6877 18.8741 17.4434 19.3159 17.4434 19.7968C17.4434 20.5269 18.0502 21.1188 18.7986 21.1188C19.547 21.1188 20.1538 20.5269 20.1538 19.7968C20.1538 19.3159 19.865 18.8865 19.3889 18.6636H18.2146Z" fill="url(#paint31_radial_2656_7857)"/>
<path d="M18.2146 18.6636C17.6877 18.8741 17.4434 19.3159 17.4434 19.7968C17.4434 20.5269 18.0502 21.1188 18.7986 21.1188C19.547 21.1188 20.1538 20.5269 20.1538 19.7968C20.1538 19.3159 19.865 18.8865 19.3889 18.6636H18.2146Z" fill="url(#paint32_radial_2656_7857)"/>
</g>
<g id="Union">
<path d="M17.245 22.7638L17.7637 20.6641H19.8171L20.3462 22.7457C20.3922 22.8922 20.417 23.0478 20.417 23.2091C20.417 24.0812 19.6923 24.7881 18.7983 24.7881C17.9044 24.7881 17.1797 24.0812 17.1797 23.2091C17.1797 23.0544 17.2025 22.905 17.245 22.7638Z" fill="#FF9D4E"/>
<path d="M17.245 22.7638L17.7637 20.6641H19.8171L20.3462 22.7457C20.3922 22.8922 20.417 23.0478 20.417 23.2091C20.417 24.0812 19.6923 24.7881 18.7983 24.7881C17.9044 24.7881 17.1797 24.0812 17.1797 23.2091C17.1797 23.0544 17.2025 22.905 17.245 22.7638Z" fill="url(#paint33_linear_2656_7857)"/>
<path d="M17.245 22.7638L17.7637 20.6641H19.8171L20.3462 22.7457C20.3922 22.8922 20.417 23.0478 20.417 23.2091C20.417 24.0812 19.6923 24.7881 18.7983 24.7881C17.9044 24.7881 17.1797 24.0812 17.1797 23.2091C17.1797 23.0544 17.2025 22.905 17.245 22.7638Z" fill="url(#paint34_radial_2656_7857)"/>
<path d="M17.245 22.7638L17.7637 20.6641H19.8171L20.3462 22.7457C20.3922 22.8922 20.417 23.0478 20.417 23.2091C20.417 24.0812 19.6923 24.7881 18.7983 24.7881C17.9044 24.7881 17.1797 24.0812 17.1797 23.2091C17.1797 23.0544 17.2025 22.905 17.245 22.7638Z" fill="url(#paint35_radial_2656_7857)"/>
</g>
</g>
<defs>
<linearGradient id="paint0_linear_2656_7857" x1="21.085" y1="15.5846" x2="4.83496" y2="15.5846" gradientUnits="userSpaceOnUse">
<stop stop-color="#68518B"/>
<stop stop-color="#68518B"/>
<stop offset="0.44375" stop-color="#503678"/>
<stop offset="0.909375" stop-color="#35254E"/>
</linearGradient>
<linearGradient id="paint1_linear_2656_7857" x1="14.0055" y1="19.4881" x2="14.0055" y2="18.4166" gradientUnits="userSpaceOnUse">
<stop offset="0.213939" stop-color="#8265AE"/>
<stop offset="0.627716" stop-color="#8265AE" stop-opacity="0"/>
</linearGradient>
<linearGradient id="paint2_linear_2656_7857" x1="18.2688" y1="19.2117" x2="18.0767" y2="18.0671" gradientUnits="userSpaceOnUse">
<stop offset="0.213939" stop-color="#8265AE"/>
<stop offset="0.669614" stop-color="#8265AE" stop-opacity="0"/>
</linearGradient>
<linearGradient id="paint3_linear_2656_7857" x1="18.9666" y1="19.067" x2="18.0944" y2="17.9417" gradientUnits="userSpaceOnUse">
<stop offset="0.213939" stop-color="#8265AE"/>
<stop offset="0.669614" stop-color="#8265AE" stop-opacity="0"/>
</linearGradient>
<linearGradient id="paint4_linear_2656_7857" x1="8.29476" y1="19.5421" x2="8.67435" y2="17.8768" gradientUnits="userSpaceOnUse">
<stop offset="0.287504" stop-color="#8265AE"/>
<stop offset="0.510172" stop-color="#8265AE" stop-opacity="0"/>
</linearGradient>
<linearGradient id="paint5_linear_2656_7857" x1="7.13004" y1="19.2117" x2="7.99809" y2="17.8861" gradientUnits="userSpaceOnUse">
<stop offset="0.213939" stop-color="#8265AE"/>
<stop offset="0.494627" stop-color="#8265AE" stop-opacity="0"/>
</linearGradient>
<linearGradient id="paint6_linear_2656_7857" x1="20.1315" y1="18.6535" x2="18.7478" y2="17.6478" gradientUnits="userSpaceOnUse">
<stop offset="0.213939" stop-color="#8265AE"/>
<stop offset="0.565866" stop-color="#8265AE" stop-opacity="0"/>
</linearGradient>
<linearGradient id="paint7_linear_2656_7857" x1="21.9736" y1="15.71" x2="20.2131" y2="15.0267" gradientUnits="userSpaceOnUse">
<stop offset="0.213939" stop-color="#8265AE"/>
<stop offset="0.457665" stop-color="#8265AE" stop-opacity="0"/>
</linearGradient>
<linearGradient id="paint8_linear_2656_7857" x1="22.3718" y1="14.9433" x2="20.4649" y2="14.7985" gradientUnits="userSpaceOnUse">
<stop offset="0.213939" stop-color="#8265AE"/>
<stop offset="0.457665" stop-color="#8265AE" stop-opacity="0"/>
</linearGradient>
<linearGradient id="paint9_linear_2656_7857" x1="22.9061" y1="11.1195" x2="5.90074" y2="11.1195" gradientUnits="userSpaceOnUse">
<stop stop-color="#655676"/>
<stop offset="1" stop-color="#2D2635"/>
</linearGradient>
<linearGradient id="paint10_linear_2656_7857" x1="19.1737" y1="14.2362" x2="18.4365" y2="12.7912" gradientUnits="userSpaceOnUse">
<stop offset="0.0945294" stop-color="#5E417D"/>
<stop offset="0.305542" stop-color="#5E417D" stop-opacity="0.55"/>
<stop offset="0.63958" stop-color="white" stop-opacity="0.21"/>
<stop offset="1" stop-color="#5E417D" stop-opacity="0"/>
</linearGradient>
<linearGradient id="paint11_linear_2656_7857" x1="7.16616" y1="14.7003" x2="8.52654" y2="11.901" gradientUnits="userSpaceOnUse">
<stop offset="0.0602626" stop-color="#553578" stop-opacity="0.92"/>
<stop offset="0.190937" stop-color="#271D34" stop-opacity="0.72"/>
<stop offset="0.289017" stop-color="#281D38" stop-opacity="0.78"/>
<stop offset="0.477925" stop-color="#281D38" stop-opacity="0"/>
</linearGradient>
<radialGradient id="paint12_radial_2656_7857" cx="0" cy="0" r="1" gradientUnits="userSpaceOnUse" gradientTransform="translate(12.7879 16.4099) rotate(177.376) scale(1.2246 0.998616)">
<stop stop-color="#291E39"/>
<stop offset="0.592241" stop-color="#2B213A" stop-opacity="0"/>
</radialGradient>
<radialGradient id="paint13_radial_2656_7857" cx="0" cy="0" r="1" gradientUnits="userSpaceOnUse" gradientTransform="translate(13.1334 17.1316) rotate(61.4722) scale(0.788132 2.28714)">
<stop offset="0.472951" stop-color="#5D417A" stop-opacity="0.99"/>
<stop offset="1" stop-color="#5D417B" stop-opacity="0"/>
</radialGradient>
<radialGradient id="paint14_radial_2656_7857" cx="0" cy="0" r="1" gradientUnits="userSpaceOnUse" gradientTransform="translate(13.003 17.3878) rotate(73.7922) scale(0.757392 3.71371)">
<stop offset="0.472951" stop-color="#704999" stop-opacity="0.99"/>
<stop offset="1" stop-color="#704999" stop-opacity="0"/>
</radialGradient>
<linearGradient id="paint15_linear_2656_7857" x1="20.7007" y1="8.70675" x2="20.2681" y2="9.58564" gradientUnits="userSpaceOnUse">
<stop offset="0.0945294" stop-color="#5E417D"/>
<stop offset="0.622903" stop-color="#5E417D" stop-opacity="0"/>
</linearGradient>
<linearGradient id="paint16_linear_2656_7857" x1="24.1794" y1="10.9146" x2="23.1427" y2="11.2848" gradientUnits="userSpaceOnUse">
<stop offset="0.220071" stop-color="#5E417D"/>
<stop offset="0.547178" stop-color="#5E417D" stop-opacity="0"/>
</linearGradient>
<radialGradient id="paint17_radial_2656_7857" cx="0" cy="0" r="1" gradientUnits="userSpaceOnUse" gradientTransform="translate(14.9659 11.4572) rotate(111.803) scale(1.08215 3.9863)">
<stop offset="0.643211" stop-color="#2F243E" stop-opacity="0.82"/>
<stop offset="1" stop-color="#443149" stop-opacity="0"/>
</radialGradient>
<radialGradient id="paint18_radial_2656_7857" cx="0" cy="0" r="1" gradientUnits="userSpaceOnUse" gradientTransform="translate(15.562 11.6457) rotate(124.317) scale(0.996996 4.56475)">
<stop offset="0.535842" stop-color="#2F243E" stop-opacity="0.82"/>
<stop offset="0.698285" stop-color="#2F243E" stop-opacity="0.56"/>
<stop offset="1" stop-color="#443149" stop-opacity="0"/>
</radialGradient>
<radialGradient id="paint19_radial_2656_7857" cx="0" cy="0" r="1" gradientUnits="userSpaceOnUse" gradientTransform="translate(15.5393 11.8703) rotate(123.443) scale(1.01898 5.44033)">
<stop offset="0.535842" stop-color="#2F243E" stop-opacity="0.82"/>
<stop offset="0.802784" stop-color="#2F243E" stop-opacity="0"/>
</radialGradient>
<radialGradient id="paint20_radial_2656_7857" cx="0" cy="0" r="1" gradientUnits="userSpaceOnUse" gradientTransform="translate(18.1229 13.9902) rotate(168.517) scale(1.02123 3.46848)">
<stop offset="0.0687201" stop-color="#463459"/>
<stop offset="0.376541" stop-color="#463459" stop-opacity="0.44"/>
<stop offset="0.500285" stop-color="#463459" stop-opacity="0"/>
</radialGradient>
<radialGradient id="paint21_radial_2656_7857" cx="0" cy="0" r="1" gradientUnits="userSpaceOnUse" gradientTransform="translate(18.1744 14.161) rotate(178.232) scale(1.05279 1.53362)">
<stop offset="0.525084" stop-color="#463459" stop-opacity="0.65"/>
<stop offset="0.767696" stop-color="#463459" stop-opacity="0"/>
</radialGradient>
<linearGradient id="paint22_linear_2656_7857" x1="14.0257" y1="9.77815" x2="18.8097" y2="19.3412" gradientUnits="userSpaceOnUse">
<stop stop-color="#D3A543"/>
<stop offset="1" stop-color="#FFBA62"/>
</linearGradient>
<radialGradient id="paint23_radial_2656_7857" cx="0" cy="0" r="1" gradientUnits="userSpaceOnUse" gradientTransform="translate(12.7433 9.14413) rotate(26.3892) scale(3.14881 1.93411)">
<stop stop-color="#D0A745"/>
<stop offset="1" stop-color="#D0A745" stop-opacity="0"/>
</radialGradient>
<linearGradient id="paint24_linear_2656_7857" x1="19.7221" y1="15.2879" x2="18.7497" y2="15.3626" gradientUnits="userSpaceOnUse">
<stop stop-color="#FFD574"/>
<stop offset="1" stop-color="#FFD574" stop-opacity="0"/>
</linearGradient>
<linearGradient id="paint25_linear_2656_7857" x1="17.947" y1="11.4095" x2="17.5846" y2="12.1167" gradientUnits="userSpaceOnUse">
<stop stop-color="#FFD574"/>
<stop offset="1" stop-color="#FFD574" stop-opacity="0"/>
</linearGradient>
<radialGradient id="paint26_radial_2656_7857" cx="0" cy="0" r="1" gradientUnits="userSpaceOnUse" gradientTransform="translate(18.1033 18.0924) rotate(-90.2599) scale(4.87413 0.732104)">
<stop stop-color="#A84A17"/>
<stop offset="1" stop-color="#D07442" stop-opacity="0"/>
</radialGradient>
<radialGradient id="paint27_radial_2656_7857" cx="0" cy="0" r="1" gradientUnits="userSpaceOnUse" gradientTransform="translate(18.2372 15.2053) rotate(-90.481) scale(2.78509 0.584548)">
<stop stop-color="#A84A17"/>
<stop offset="1" stop-color="#D07442" stop-opacity="0"/>
</radialGradient>
<radialGradient id="paint28_radial_2656_7857" cx="0" cy="0" r="1" gradientUnits="userSpaceOnUse" gradientTransform="translate(14.4983 11.3635) rotate(24.4863) scale(5.05936 0.234524)">
<stop offset="0.140165" stop-color="#A84A17"/>
<stop offset="0.640759" stop-color="#D07442" stop-opacity="0"/>
</radialGradient>
<radialGradient id="paint29_radial_2656_7857" cx="0" cy="0" r="1" gradientUnits="userSpaceOnUse" gradientTransform="translate(15.9961 14.317) rotate(-14.5496) scale(3.34859 2.73759)">
<stop offset="0.60255" stop-color="#A84A17"/>
<stop offset="0.798021" stop-color="#D07442" stop-opacity="0"/>
</radialGradient>
<radialGradient id="paint30_radial_2656_7857" cx="0" cy="0" r="1" gradientUnits="userSpaceOnUse" gradientTransform="translate(19.6243 19.3911) rotate(138.044) scale(1.6676 1.79171)">
<stop stop-color="#FFCC6C"/>
<stop offset="1" stop-color="#F49041"/>
</radialGradient>
<radialGradient id="paint31_radial_2656_7857" cx="0" cy="0" r="1" gradientUnits="userSpaceOnUse" gradientTransform="translate(19.8571 20.1023) rotate(-157.948) scale(3.01594 2.38336)">
<stop offset="0.6" stop-color="#B25D41" stop-opacity="0"/>
<stop offset="0.910505" stop-color="#B25D41"/>
</radialGradient>
<radialGradient id="paint32_radial_2656_7857" cx="0" cy="0" r="1" gradientUnits="userSpaceOnUse" gradientTransform="translate(17.7488 20.7262) rotate(-8.64442) scale(1.84501 0.875926)">
<stop stop-color="#FD805E"/>
<stop offset="1" stop-color="#FD805E" stop-opacity="0"/>
</radialGradient>
<linearGradient id="paint33_linear_2656_7857" x1="17.3459" y1="22.7261" x2="18.5761" y2="22.9317" gradientUnits="userSpaceOnUse">
<stop stop-color="#D17047"/>
<stop offset="1" stop-color="#D17047" stop-opacity="0"/>
</linearGradient>
<radialGradient id="paint34_radial_2656_7857" cx="0" cy="0" r="1" gradientUnits="userSpaceOnUse" gradientTransform="translate(19.5726 20.4493) rotate(90) scale(3.46635 1.08969)">
<stop offset="0.566667" stop-color="#FFBC6E"/>
<stop offset="1" stop-color="#FFBC6E" stop-opacity="0"/>
</radialGradient>
<radialGradient id="paint35_radial_2656_7857" cx="0" cy="0" r="1" gradientUnits="userSpaceOnUse" gradientTransform="translate(18.1987 24.7881) rotate(-77.0601) scale(2.11575 2.4983)">
<stop offset="0.165333" stop-color="#FF697E"/>
<stop offset="1" stop-color="#FF697E" stop-opacity="0"/>
</radialGradient>
</defs>
</svg>
