<svg width="40" height="40" viewBox="0 0 40 40" fill="none" xmlns="http://www.w3.org/2000/svg">
<rect x="1.99997" y="31" width="36" height="5" rx="1" fill="url(#paint0_linear_2303_12190)"/>
<g filter="url(#filter0_bi_2303_12190)">
<mask id="path-3-inside-1_2303_12190" fill="white">
<path fill-rule="evenodd" clip-rule="evenodd" d="M15.8947 4.5C15.8947 3.67157 16.5663 3 17.3947 3H23.0789C23.9073 3 24.5789 3.67157 24.5789 4.5V32.7632C24.5789 33.5916 23.9073 34.2632 23.0789 34.2632H17.3947C16.5663 34.2632 15.8947 33.5916 15.8947 32.7632V4.5ZM3.73682 14.9211C3.73682 14.0926 4.40839 13.4211 5.23682 13.4211H10.921C11.7495 13.4211 12.421 14.0926 12.421 14.9211V32.7632C12.421 33.5916 11.7495 34.2632 10.921 34.2632H5.23682C4.40839 34.2632 3.73682 33.5916 3.73682 32.7632V14.9211ZM29.5526 18.6316C28.7242 18.6316 28.0526 19.3032 28.0526 20.1316V32.7632C28.0526 33.5916 28.7242 34.2632 29.5526 34.2632H35.2368C36.0652 34.2632 36.7368 33.5916 36.7368 32.7632V20.1316C36.7368 19.3032 36.0652 18.6316 35.2368 18.6316H29.5526Z"/>
</mask>
<path fill-rule="evenodd" clip-rule="evenodd" d="M15.8947 4.5C15.8947 3.67157 16.5663 3 17.3947 3H23.0789C23.9073 3 24.5789 3.67157 24.5789 4.5V32.7632C24.5789 33.5916 23.9073 34.2632 23.0789 34.2632H17.3947C16.5663 34.2632 15.8947 33.5916 15.8947 32.7632V4.5ZM3.73682 14.9211C3.73682 14.0926 4.40839 13.4211 5.23682 13.4211H10.921C11.7495 13.4211 12.421 14.0926 12.421 14.9211V32.7632C12.421 33.5916 11.7495 34.2632 10.921 34.2632H5.23682C4.40839 34.2632 3.73682 33.5916 3.73682 32.7632V14.9211ZM29.5526 18.6316C28.7242 18.6316 28.0526 19.3032 28.0526 20.1316V32.7632C28.0526 33.5916 28.7242 34.2632 29.5526 34.2632H35.2368C36.0652 34.2632 36.7368 33.5916 36.7368 32.7632V20.1316C36.7368 19.3032 36.0652 18.6316 35.2368 18.6316H29.5526Z" fill="#F1F1F1" fill-opacity="0.1"/>
<path fill-rule="evenodd" clip-rule="evenodd" d="M15.8947 4.5C15.8947 3.67157 16.5663 3 17.3947 3H23.0789C23.9073 3 24.5789 3.67157 24.5789 4.5V32.7632C24.5789 33.5916 23.9073 34.2632 23.0789 34.2632H17.3947C16.5663 34.2632 15.8947 33.5916 15.8947 32.7632V4.5ZM3.73682 14.9211C3.73682 14.0926 4.40839 13.4211 5.23682 13.4211H10.921C11.7495 13.4211 12.421 14.0926 12.421 14.9211V32.7632C12.421 33.5916 11.7495 34.2632 10.921 34.2632H5.23682C4.40839 34.2632 3.73682 33.5916 3.73682 32.7632V14.9211ZM29.5526 18.6316C28.7242 18.6316 28.0526 19.3032 28.0526 20.1316V32.7632C28.0526 33.5916 28.7242 34.2632 29.5526 34.2632H35.2368C36.0652 34.2632 36.7368 33.5916 36.7368 32.7632V20.1316C36.7368 19.3032 36.0652 18.6316 35.2368 18.6316H29.5526Z" fill="url(#paint1_linear_2303_12190)" fill-opacity="0.2"/>
<path d="M17.3947 2.8C16.4558 2.8 15.6947 3.56112 15.6947 4.5H16.0947C16.0947 3.78203 16.6767 3.2 17.3947 3.2V2.8ZM23.0789 2.8H17.3947V3.2H23.0789V2.8ZM24.7789 4.5C24.7789 3.56112 24.0178 2.8 23.0789 2.8V3.2C23.7969 3.2 24.3789 3.78203 24.3789 4.5H24.7789ZM24.7789 32.7632V4.5H24.3789V32.7632H24.7789ZM23.0789 34.4632C24.0178 34.4632 24.7789 33.702 24.7789 32.7632H24.3789C24.3789 33.4811 23.7969 34.0632 23.0789 34.0632V34.4632ZM17.3947 34.4632H23.0789V34.0632H17.3947V34.4632ZM15.6947 32.7632C15.6947 33.702 16.4558 34.4632 17.3947 34.4632V34.0632C16.6767 34.0632 16.0947 33.4811 16.0947 32.7632H15.6947ZM15.6947 4.5V32.7632H16.0947V4.5H15.6947ZM5.23682 13.2211C4.29793 13.2211 3.53682 13.9822 3.53682 14.9211H3.93682C3.93682 14.2031 4.51885 13.6211 5.23682 13.6211V13.2211ZM10.921 13.2211H5.23682V13.6211H10.921V13.2211ZM12.621 14.9211C12.621 13.9822 11.8599 13.2211 10.921 13.2211V13.6211C11.639 13.6211 12.221 14.2031 12.221 14.9211H12.621ZM12.621 32.7632V14.9211H12.221V32.7632H12.621ZM10.921 34.4632C11.8599 34.4632 12.621 33.702 12.621 32.7632H12.221C12.221 33.4811 11.639 34.0632 10.921 34.0632V34.4632ZM5.23682 34.4632H10.921V34.0632H5.23682V34.4632ZM3.53682 32.7632C3.53682 33.702 4.29793 34.4632 5.23682 34.4632V34.0632C4.51885 34.0632 3.93682 33.4811 3.93682 32.7632H3.53682ZM3.53682 14.9211V32.7632H3.93682V14.9211H3.53682ZM28.2526 20.1316C28.2526 19.4136 28.8346 18.8316 29.5526 18.8316V18.4316C28.6137 18.4316 27.8526 19.1927 27.8526 20.1316H28.2526ZM28.2526 32.7632V20.1316H27.8526V32.7632H28.2526ZM29.5526 34.0632C28.8346 34.0632 28.2526 33.4811 28.2526 32.7632H27.8526C27.8526 33.702 28.6137 34.4632 29.5526 34.4632V34.0632ZM35.2368 34.0632H29.5526V34.4632H35.2368V34.0632ZM36.5368 32.7632C36.5368 33.4811 35.9548 34.0632 35.2368 34.0632V34.4632C36.1757 34.4632 36.9368 33.702 36.9368 32.7632H36.5368ZM36.5368 20.1316V32.7632H36.9368V20.1316H36.5368ZM35.2368 18.8316C35.9548 18.8316 36.5368 19.4136 36.5368 20.1316H36.9368C36.9368 19.1927 36.1757 18.4316 35.2368 18.4316V18.8316ZM29.5526 18.8316H35.2368V18.4316H29.5526V18.8316Z" fill="url(#paint2_linear_2303_12190)" fill-opacity="0.1" mask="url(#path-3-inside-1_2303_12190)"/>
</g>
<defs>
<filter id="filter0_bi_2303_12190" x="0.736816" y="0" width="39" height="37.2632" filterUnits="userSpaceOnUse" color-interpolation-filters="sRGB">
<feFlood flood-opacity="0" result="BackgroundImageFix"/>
<feGaussianBlur in="BackgroundImageFix" stdDeviation="1.5"/>
<feComposite in2="SourceAlpha" operator="in" result="effect1_backgroundBlur_2303_12190"/>
<feBlend mode="normal" in="SourceGraphic" in2="effect1_backgroundBlur_2303_12190" result="shape"/>
<feColorMatrix in="SourceAlpha" type="matrix" values="0 0 0 0 0 0 0 0 0 0 0 0 0 0 0 0 0 0 127 0" result="hardAlpha"/>
<feOffset dy="0.5"/>
<feGaussianBlur stdDeviation="1"/>
<feComposite in2="hardAlpha" operator="arithmetic" k2="-1" k3="1"/>
<feColorMatrix type="matrix" values="0 0 0 0 1 0 0 0 0 1 0 0 0 0 1 0 0 0 0.4 0"/>
<feBlend mode="normal" in2="shape" result="effect2_innerShadow_2303_12190"/>
</filter>
<linearGradient id="paint0_linear_2303_12190" x1="1.99997" y1="31" x2="12.3955" y2="50.0052" gradientUnits="userSpaceOnUse">
<stop stop-color="#82E8FF"/>
<stop offset="1" stop-color="#379FFF"/>
</linearGradient>
<linearGradient id="paint1_linear_2303_12190" x1="3.73682" y1="3" x2="42.3428" y2="13.3474" gradientUnits="userSpaceOnUse">
<stop stop-color="#82E8FF"/>
<stop offset="1" stop-color="#379FFF"/>
</linearGradient>
<linearGradient id="paint2_linear_2303_12190" x1="4.76807" y1="4.42105" x2="36.7368" y2="4.42105" gradientUnits="userSpaceOnUse">
<stop stop-color="#7EE5FF"/>
<stop offset="1" stop-color="#41A9FF"/>
</linearGradient>
</defs>
</svg>
