<svg width="19" height="19" viewBox="0 0 19 19" fill="none" xmlns="http://www.w3.org/2000/svg">
<path d="M18.25 9.7501C18.25 10.3258 17.441 10.8144 17.3335 11.3584C17.2227 11.919 17.7808 12.6793 17.567 13.1951C17.3494 13.7199 16.415 13.8618 16.1026 14.3281C15.7879 14.7982 16.0124 15.7155 15.614 16.1139C15.2155 16.5124 14.2982 16.2879 13.8282 16.6026C13.3617 16.9149 13.22 17.8492 12.6952 18.067C12.1794 18.2808 11.4191 17.7225 10.8585 17.8335C10.3145 17.941 9.8257 18.75 9.25 18.75C8.6743 18.75 8.18569 17.941 7.64168 17.8335C7.08111 17.7227 6.3208 18.2808 5.80501 18.067C5.28021 17.8494 5.13833 16.9149 4.67201 16.6026C4.202 16.2879 3.28469 16.5124 2.88624 16.1139C2.48778 15.7155 2.71226 14.7982 2.39763 14.3281C2.08525 13.8616 1.15096 13.7199 0.933234 13.1951C0.719391 12.6793 1.27771 11.919 1.1667 11.3584C1.05569 10.7979 0.25 10.3258 0.25 9.7501C0.25 9.1744 1.05896 8.68578 1.1665 8.14177C1.2773 7.58119 0.719187 6.82087 0.933029 6.30507C1.14687 5.78926 2.08504 5.63839 2.39742 5.17206C2.71205 4.70205 2.48758 3.78472 2.88603 3.38627C3.28448 2.98781 4.2018 3.21229 4.6718 2.89765C5.13833 2.58527 5.28001 1.65097 5.8048 1.43324C6.32959 1.21551 7.08091 1.77772 7.64148 1.66671C8.18549 1.55897 8.6743 0.75 9.25 0.75C9.8257 0.75 10.3143 1.55897 10.8583 1.66651C11.4189 1.77732 12.1792 1.21919 12.695 1.43304C13.2108 1.64688 13.3617 2.58506 13.828 2.89745C14.2943 3.20983 15.2153 2.98761 15.6138 3.38606C16.0122 3.78452 15.7877 4.70184 16.1024 5.17185C16.4148 5.63839 17.349 5.78006 17.5668 6.30486C17.7806 6.82067 17.2223 7.58098 17.3333 8.14156C17.4408 8.68558 18.2498 9.1744 18.2498 9.7501H18.25Z" fill="#29CDFF"/>
<path fill-rule="evenodd" clip-rule="evenodd" d="M14.4288 6.0562C14.5706 6.22649 14.6503 6.45741 14.6503 6.69819C14.6503 6.93897 14.5706 7.1699 14.4288 7.34018L8.75929 14.1463C8.68436 14.2362 8.59541 14.3076 8.49751 14.3563C8.3996 14.405 8.29467 14.43 8.1887 14.43C8.08273 14.43 7.9778 14.405 7.87989 14.3563C7.78199 14.3076 7.69304 14.2362 7.61811 14.1463L4.80124 10.7653C4.72899 10.6816 4.67137 10.5814 4.63172 10.4706C4.59208 10.3598 4.57121 10.2406 4.57034 10.1201C4.56947 9.9995 4.58861 9.87992 4.62664 9.76833C4.66467 9.65673 4.72084 9.55535 4.79186 9.47009C4.86288 9.38483 4.94734 9.31741 5.0403 9.27175C5.13326 9.22609 5.23286 9.20312 5.3333 9.20416C5.43373 9.20521 5.53299 9.23026 5.62527 9.27785C5.71756 9.32544 5.80103 9.39462 5.8708 9.48135L8.18845 12.2636L13.3588 6.0562C13.429 5.97182 13.5124 5.90489 13.6042 5.85922C13.696 5.81355 13.7944 5.79004 13.8938 5.79004C13.9932 5.79004 14.0916 5.81355 14.1834 5.85922C14.2752 5.90489 14.3586 5.97182 14.4288 6.0562Z" fill="white"/>
</svg>
