<svg width="18" height="18" viewBox="0 0 18 18" fill="none" xmlns="http://www.w3.org/2000/svg">
<g id="Group 40295">
<circle id="Ellipse 162" cx="9" cy="9" r="9" fill="#29CDFF"/>
<path id="Vector" fill-rule="evenodd" clip-rule="evenodd" d="M13.8585 5.26617C14.0003 5.43645 14.08 5.66737 14.08 5.90815C14.08 6.14893 14.0003 6.37986 13.8585 6.55014L8.18897 13.3562C8.11405 13.4462 8.0251 13.5176 7.92719 13.5662C7.82929 13.6149 7.72436 13.64 7.61839 13.64C7.51242 13.64 7.40748 13.6149 7.30958 13.5662C7.21168 13.5176 7.12273 13.4462 7.0478 13.3562L4.23092 9.97528C4.15868 9.89152 4.10105 9.79132 4.06141 9.68053C4.02177 9.56975 4.0009 9.4506 4.00003 9.33003C3.99916 9.20946 4.01829 9.08989 4.05633 8.97829C4.09436 8.8667 4.15053 8.76531 4.22155 8.68005C4.29257 8.59479 4.37702 8.52737 4.46998 8.48171C4.56294 8.43605 4.66255 8.41308 4.76298 8.41413C4.86342 8.41517 4.96268 8.44022 5.05496 8.48781C5.14725 8.5354 5.23071 8.60458 5.30049 8.69131L7.61814 11.4736L12.7885 5.26617C12.8587 5.18178 12.9421 5.11485 13.0339 5.06918C13.1257 5.02351 13.2241 5 13.3235 5C13.4229 5 13.5213 5.02351 13.6131 5.06918C13.7049 5.11485 13.7883 5.18178 13.8585 5.26617Z" fill="white"/>
</g>
</svg>
