<svg width="19" height="18" viewBox="0 0 19 18" fill="none" xmlns="http://www.w3.org/2000/svg">
<path d="M18.2515 9.0001C18.2515 9.57581 17.4425 10.0644 17.335 10.6084C17.2242 11.169 17.7823 11.9293 17.5684 12.4451C17.3509 12.9699 16.4164 13.1118 16.104 13.5781C15.7894 14.0482 16.0139 14.9655 15.6154 15.3639C15.217 15.7624 14.2997 15.5379 13.8297 15.8526C13.3631 16.1649 13.2215 17.0992 12.6967 17.317C12.1809 17.5308 11.4206 16.9725 10.86 17.0835C10.316 17.191 9.82716 18 9.25146 18C8.67577 18 8.18716 17.191 7.64315 17.0835C7.08258 16.9727 6.32227 17.5308 5.80647 17.317C5.28168 17.0994 5.1398 16.1649 4.67347 15.8526C4.20347 15.5379 3.28615 15.7624 2.8877 15.3639C2.48925 14.9655 2.71372 14.0482 2.39909 13.5781C2.08671 13.1116 1.15243 12.9699 0.934699 12.4451C0.720856 11.9293 1.27918 11.169 1.16817 10.6084C1.05716 10.0479 0.251465 9.57581 0.251465 9.0001C0.251465 8.4244 1.06043 7.93578 1.16796 7.39177C1.27877 6.83119 0.720651 6.07087 0.934494 5.55507C1.14834 5.03926 2.08651 4.88839 2.39889 4.42206C2.71352 3.95205 2.48905 3.03472 2.8875 2.63627C3.28595 2.23781 4.20326 2.46229 4.67327 2.14765C5.1398 1.83527 5.28147 0.900971 5.80627 0.683241C6.33106 0.465512 7.08237 1.02772 7.64294 0.916713C8.18695 0.808973 8.67577 0 9.25146 0C9.82716 0 10.3158 0.808973 10.8598 0.916509C11.4204 1.02732 12.1807 0.469192 12.6965 0.683037C13.2123 0.896882 13.3631 1.83506 13.8295 2.14745C14.2958 2.45983 15.2168 2.23761 15.6152 2.63606C16.0137 3.03452 15.7892 3.95184 16.1038 4.42185C16.4162 4.88839 17.3505 5.03006 17.5682 5.55486C17.7821 6.07067 17.2238 6.83098 17.3348 7.39156C17.4423 7.93558 18.2513 8.4244 18.2513 9.0001H18.2515Z" fill="#D4D4D4"/>
<path fill-rule="evenodd" clip-rule="evenodd" d="M14.4308 5.3062C14.5726 5.47649 14.6523 5.70741 14.6523 5.94819C14.6523 6.18897 14.5726 6.4199 14.4308 6.59018L8.76124 13.3963C8.68632 13.4862 8.59736 13.5576 8.49946 13.6063C8.40156 13.655 8.29662 13.68 8.19065 13.68C8.08468 13.68 7.97975 13.655 7.88185 13.6063C7.78394 13.5576 7.69499 13.4862 7.62007 13.3963L4.80319 10.0153C4.73094 9.93156 4.67332 9.83136 4.63368 9.72057C4.59403 9.60979 4.57317 9.49063 4.57229 9.37007C4.57142 9.2495 4.59056 9.12992 4.62859 9.01833C4.66663 8.90673 4.72279 8.80535 4.79381 8.72009C4.86484 8.63483 4.94929 8.56741 5.04225 8.52175C5.13521 8.47609 5.23481 8.45312 5.33525 8.45416C5.43569 8.45521 5.53494 8.48026 5.62723 8.52785C5.71951 8.57544 5.80298 8.64462 5.87276 8.73135L8.1904 11.5136L13.3607 5.3062C13.431 5.22182 13.5144 5.15489 13.6062 5.10922C13.698 5.06355 13.7964 5.04004 13.8958 5.04004C13.9951 5.04004 14.0935 5.06355 14.1853 5.10922C14.2771 5.15489 14.3606 5.22182 14.4308 5.3062Z" fill="white"/>
</svg>
