<svg width="19" height="18" viewBox="0 0 19 18" fill="none" xmlns="http://www.w3.org/2000/svg">
<path d="M18.4999 9.0001C18.5 9.0001 18.5 9.00015 18.5 9.00021C18.4999 9.57587 17.691 10.0645 17.5835 10.6084C17.4727 11.169 18.0308 11.9293 17.817 12.4451C17.5994 12.9699 16.665 13.1118 16.3526 13.5781C16.0379 14.0482 16.2624 14.9655 15.864 15.3639C15.4655 15.7624 14.5482 15.5379 14.0782 15.8526C13.6117 16.1649 13.47 17.0992 12.9452 17.317C12.4294 17.5308 11.6691 16.9725 11.1085 17.0835C10.5645 17.191 10.0757 18 9.5 18C8.9243 18 8.43569 17.191 7.89168 17.0835C7.33111 16.9727 6.5708 17.5308 6.05501 17.317C5.53021 17.0994 5.38833 16.1649 4.92201 15.8526C4.452 15.5379 3.53469 15.7624 3.13624 15.3639C2.73778 14.9655 2.96226 14.0482 2.64763 13.5781C2.33525 13.1116 1.40096 12.9699 1.18323 12.4451C0.969391 11.9293 1.52771 11.169 1.4167 10.6084C1.30569 10.0479 0.5 9.57581 0.5 9.0001C0.5 8.4244 1.30896 7.93578 1.4165 7.39177C1.5273 6.83119 0.969187 6.07087 1.18303 5.55507C1.39687 5.03926 2.33504 4.88839 2.64742 4.42206C2.96205 3.95205 2.73758 3.03472 3.13603 2.63627C3.53448 2.23781 4.4518 2.46229 4.9218 2.14765C5.38833 1.83527 5.53001 0.900971 6.0548 0.683241C6.57959 0.465512 7.33091 1.02772 7.89148 0.916713C8.43549 0.808973 8.9243 0 9.5 0C10.0757 0 10.5643 0.808973 11.1083 0.916509C11.6689 1.02732 12.4292 0.469192 12.945 0.683037C13.4608 0.896882 13.6117 1.83506 14.078 2.14745C14.5443 2.45983 15.4653 2.23761 15.8638 2.63606C16.2622 3.03452 16.0377 3.95184 16.3524 4.42185C16.6648 4.88839 17.599 5.03006 17.8168 5.55486C18.0306 6.07067 17.4723 6.83098 17.5833 7.39156C17.6908 7.93555 18.4997 8.42434 18.4998 9C18.4998 9.00006 18.4998 9.0001 18.4999 9.0001Z" fill="#29CDFF"/>
<path fill-rule="evenodd" clip-rule="evenodd" d="M14.6788 5.3062C14.8207 5.47649 14.9003 5.70741 14.9003 5.94819C14.9003 6.18897 14.8207 6.4199 14.6788 6.59018L9.00929 13.3963C8.93436 13.4862 8.84541 13.5576 8.74751 13.6063C8.6496 13.655 8.54467 13.68 8.4387 13.68C8.33273 13.68 8.2278 13.655 8.12989 13.6063C8.03199 13.5576 7.94304 13.4862 7.86811 13.3963L5.05124 10.0153C4.97899 9.93156 4.92137 9.83136 4.88172 9.72057C4.84208 9.60979 4.82121 9.49063 4.82034 9.37007C4.81947 9.2495 4.83861 9.12992 4.87664 9.01833C4.91467 8.90673 4.97084 8.80535 5.04186 8.72009C5.11288 8.63483 5.19734 8.56741 5.2903 8.52175C5.38326 8.47609 5.48286 8.45312 5.5833 8.45416C5.68373 8.45521 5.78299 8.48026 5.87527 8.52785C5.96756 8.57544 6.05103 8.64462 6.1208 8.73135C7.32676 10.179 9.55008 10.179 10.756 8.73124L13.6088 5.3062C13.679 5.22182 13.7624 5.15489 13.8542 5.10922C13.946 5.06355 14.0444 5.04004 14.1438 5.04004C14.2432 5.04004 14.3416 5.06355 14.4334 5.10922C14.5252 5.15489 14.6086 5.22182 14.6788 5.3062Z" fill="white"/>
</svg>
