<svg width="21" height="21" viewBox="0 0 21 21" fill="none" xmlns="http://www.w3.org/2000/svg">
<path d="M6.9195 15.3887C7.20778 14.5731 7.98565 13.9887 8.9 13.9887C9.81434 13.9887 10.5922 14.5731 10.8805 15.3887H18V16.7887H10.8805C10.5922 17.6044 9.81434 18.1887 8.9 18.1887C7.98565 18.1887 7.20778 17.6044 6.9195 16.7887H4V15.3887H6.9195ZM11.1195 10.4887C11.4078 9.67309 12.1857 9.08872 13.1 9.08872C14.0143 9.08872 14.7922 9.67309 15.0805 10.4887H18V11.8887H15.0805C14.7922 12.7044 14.0143 13.2887 13.1 13.2887C12.1857 13.2887 11.4078 12.7044 11.1195 11.8887H4V10.4887H11.1195ZM6.9195 5.58872C7.20778 4.77309 7.98565 4.18872 8.9 4.18872C9.81434 4.18872 10.5922 4.77309 10.8805 5.58872H18V6.98872H10.8805C10.5922 7.80435 9.81434 8.38872 8.9 8.38872C7.98565 8.38872 7.20778 7.80435 6.9195 6.98872H4V5.58872H6.9195ZM8.9 6.98872C9.2866 6.98872 9.6 6.67532 9.6 6.28872C9.6 5.90212 9.2866 5.58872 8.9 5.58872C8.5134 5.58872 8.2 5.90212 8.2 6.28872C8.2 6.67532 8.5134 6.98872 8.9 6.98872ZM13.1 11.8887C13.4866 11.8887 13.8 11.5753 13.8 11.1887C13.8 10.8021 13.4866 10.4887 13.1 10.4887C12.7134 10.4887 12.4 10.8021 12.4 11.1887C12.4 11.5753 12.7134 11.8887 13.1 11.8887ZM8.9 16.7887C9.2866 16.7887 9.6 16.4753 9.6 16.0887C9.6 15.7021 9.2866 15.3887 8.9 15.3887C8.5134 15.3887 8.2 15.7021 8.2 16.0887C8.2 16.4753 8.5134 16.7887 8.9 16.7887Z" fill="#29CDFF"/>
</svg>
