<svg width="24" height="24" viewBox="0 0 24 24" fill="none" xmlns="http://www.w3.org/2000/svg">
<g id="folder">
<path id="icon" d="M4 8.73333C4 7.42654 4 6.77315 4.24913 6.27402C4.46827 5.83498 4.81794 5.47802 5.24802 5.25432C5.73696 5 6.37702 5 7.65714 5H8.8317C9.62055 5 10.015 5 10.3662 5.11926C10.6769 5.22477 10.9618 5.39719 11.2016 5.62487C11.4726 5.88223 11.6619 6.2355 12.0404 6.94203L12.5 7.8H16.3429C17.623 7.8 18.263 7.8 18.752 8.05432C19.1821 8.27802 19.5317 8.63498 19.7509 9.07402C20 9.57315 20 10.2265 20 11.5333V15.2667C20 16.5735 20 17.2268 19.7509 17.726C19.5317 18.165 19.1821 18.522 18.752 18.7457C18.263 19 17.623 19 16.3429 19H7.65714C6.37702 19 5.73696 19 5.24802 18.7457C4.81794 18.522 4.46827 18.165 4.24913 17.726C4 17.2268 4 16.5735 4 15.2667V8.73333Z" stroke="black" stroke-width="1.5"/>
</g>
</svg>
