<svg width="12" height="11" viewBox="0 0 12 11" fill="none" xmlns="http://www.w3.org/2000/svg">
<g id="Group 40188">
<path id="Vector 107" d="M3.17471 9.95147H2.625V4.70147H3.17471L5.36008 0.824298C5.56006 0.469493 5.93574 0.25 6.34302 0.25C7.02698 0.25 7.55365 0.853632 7.46095 1.53127L7.24574 3.1044H9.03206C9.81304 3.1044 11.375 3.90293 11.375 5.5C11.375 7.09707 9.80449 10.75 8.14318 10.75C5.95643 10.75 4.08585 10.2176 3.17471 9.95147Z" fill="#FFE68F"/>
<path id="Rectangle 38" d="M0 4.1875C0 3.46263 0.587626 2.875 1.3125 2.875C2.03737 2.875 2.625 3.46263 2.625 4.1875V9.4375C2.625 10.1624 2.03737 10.75 1.3125 10.75C0.587626 10.75 0 10.1624 0 9.4375V4.1875Z" fill="#29CDFF"/>
</g>
</svg>
