<svg width="24" height="24" viewBox="0 0 24 24" fill="none" xmlns="http://www.w3.org/2000/svg">
<path fill-rule="evenodd" clip-rule="evenodd" d="M3.80772 6.20659C4.70785 5.30673 5.92853 4.80122 7.20132 4.80122C8.47411 4.80122 9.69478 5.30673 10.5949 6.20659L12.0013 7.61179L13.4077 6.20659C13.8505 5.74815 14.3802 5.38247 14.9658 5.13091C15.5514 4.87934 16.1812 4.74693 16.8186 4.74139C17.4559 4.73585 18.088 4.8573 18.6779 5.09865C19.2678 5.34 19.8037 5.69641 20.2544 6.1471C20.7051 6.59778 21.0615 7.13371 21.3029 7.72361C21.5442 8.31352 21.6657 8.94558 21.6601 9.58292C21.6546 10.2203 21.5222 10.8501 21.2706 11.4357C21.019 12.0214 20.6534 12.551 20.1949 12.9938L12.0013 21.1886L3.80772 12.9938C2.90786 12.0937 2.40234 10.873 2.40234 9.60019C2.40234 8.32741 2.90786 7.10673 3.80772 6.20659Z" fill="#D4D4D4"/>
</svg>
