<svg width="21" height="22" viewBox="0 0 21 22" fill="none" xmlns="http://www.w3.org/2000/svg">
<g clip-path="url(#clip0_2001_5070)">
<path fill-rule="evenodd" clip-rule="evenodd" d="M9.94745 0.681923C10.2725 0.439359 10.7275 0.439359 11.0525 0.681923L19.1525 6.72738C19.3718 6.891 19.5 7.14258 19.5 7.40909V16.9091C19.5 17.5962 19.2155 18.2553 18.7092 18.7411C18.2028 19.227 17.5161 19.5 16.8 19.5H4.2C3.48392 19.5 2.79716 19.227 2.29081 18.7411C1.78446 18.2552 1.5 17.5962 1.5 16.9091V7.40909C1.5 7.14258 1.62823 6.891 1.84745 6.72738L9.94745 0.681923ZM3.3 7.83148V16.9091C3.3 17.1381 3.39482 17.3578 3.5636 17.5198C3.73239 17.6817 3.96131 17.7727 4.2 17.7727H16.8C17.0387 17.7727 17.2676 17.6817 17.4364 17.5198C17.6052 17.3578 17.7 17.1381 17.7 16.9091V7.83148L10.5 2.45774L3.3 7.83148Z" fill="#484C52"/>
<path fill-rule="evenodd" clip-rule="evenodd" d="M6.5 8.99992C6.5 8.49366 6.94772 8.08326 7.5 8.08326H13.5C14.0523 8.08326 14.5 8.49366 14.5 8.99992V18.1666C14.5 18.6729 14.0523 19.0833 13.5 19.0833C12.9477 19.0833 12.5 18.6729 12.5 18.1666V9.91659H8.5V18.1666C8.5 18.6729 8.05228 19.0833 7.5 19.0833C6.94772 19.0833 6.5 18.6729 6.5 18.1666V8.99992Z" fill="#484C52"/>
</g>
<defs>
<clipPath id="clip0_2001_5070">
<rect width="21" height="21" fill="white" transform="translate(0 0.5)"/>
</clipPath>
</defs>
</svg>
