<svg width="21" height="21" viewBox="0 0 21 21" fill="none" xmlns="http://www.w3.org/2000/svg">
<path fill-rule="evenodd" clip-rule="evenodd" d="M9.94745 0.181923C10.2725 -0.060641 10.7275 -0.060641 11.0525 0.181923L19.1525 6.22738C19.3718 6.391 19.5 6.64258 19.5 6.90909V16.4091C19.5 17.0962 19.2155 17.7553 18.7092 18.2411C18.2028 18.727 17.5161 19 16.8 19H4.2C3.48392 19 2.79716 18.727 2.29081 18.2411C1.78446 17.7552 1.5 17.0962 1.5 16.4091V6.90909C1.5 6.64258 1.62823 6.391 1.84745 6.22738L9.94745 0.181923ZM3.3 7.33148V16.4091C3.3 16.6381 3.39482 16.8578 3.5636 17.0198C3.73239 17.1817 3.96131 17.2727 4.2 17.2727H16.8C17.0387 17.2727 17.2676 17.1817 17.4364 17.0198C17.6052 16.8578 17.7 16.6381 17.7 16.4091V7.33148L10.5 1.95774L3.3 7.33148Z" fill="#29CDFF"/>
<path fill-rule="evenodd" clip-rule="evenodd" d="M6.49982 8.49988C6.49982 7.99362 6.94753 7.58321 7.49982 7.58321H13.4998C14.0521 7.58321 14.4998 7.99362 14.4998 8.49988V17.6665C14.4998 18.1728 14.0521 18.5832 13.4998 18.5832C12.9475 18.5832 12.4998 18.1728 12.4998 17.6665V9.41655H8.49982V17.6665C8.49982 18.1728 8.0521 18.5832 7.49982 18.5832C6.94753 18.5832 6.49982 18.1728 6.49982 17.6665V8.49988Z" fill="#29CDFF"/>
</svg>
