<svg width="26" height="26" viewBox="0 0 26 26" fill="none" xmlns="http://www.w3.org/2000/svg">
<path d="M9.75659 13.4536C10.6167 13.0044 11.2039 12.104 11.2039 11.0664C11.2039 9.57998 9.99887 8.375 8.51245 8.375C7.24139 8.375 6.17612 9.25612 5.89412 10.4409C5.81837 10.7591 5.55949 11.0196 5.24191 11.0981C4.07768 11.3857 3.21446 12.4372 3.21446 13.6903C3.21446 14.1148 3.31352 14.5161 3.48976 14.8725C3.62186 15.1395 3.55647 15.4819 3.33668 15.683C2.82127 16.1548 2.49805 16.8331 2.49805 17.5869C2.49805 19.012 3.6533 20.1672 5.07837 20.1672H9.75659V13.4536Z" fill="url(#paint0_linear_3802_6737)"/>
<path d="M9.75659 13.4536C10.6167 13.0044 11.2039 12.104 11.2039 11.0664C11.2039 9.57998 9.99887 8.375 8.51245 8.375C7.24139 8.375 6.17612 9.25612 5.89412 10.4409C5.81837 10.7591 5.55949 11.0196 5.24191 11.0981C4.07768 11.3857 3.21446 12.4372 3.21446 13.6903C3.21446 14.1148 3.31352 14.5161 3.48976 14.8725C3.62186 15.1395 3.55647 15.4819 3.33668 15.683C2.82127 16.1548 2.49805 16.8331 2.49805 17.5869C2.49805 19.012 3.6533 20.1672 5.07837 20.1672H9.75659V13.4536Z" fill="url(#paint1_linear_3802_6737)"/>
<path d="M9.75659 13.4536C10.6167 13.0044 11.2039 12.104 11.2039 11.0664C11.2039 9.57998 9.99887 8.375 8.51245 8.375C7.24139 8.375 6.17612 9.25612 5.89412 10.4409C5.81837 10.7591 5.55949 11.0196 5.24191 11.0981C4.07768 11.3857 3.21446 12.4372 3.21446 13.6903C3.21446 14.1148 3.31352 14.5161 3.48976 14.8725C3.62186 15.1395 3.55647 15.4819 3.33668 15.683C2.82127 16.1548 2.49805 16.8331 2.49805 17.5869C2.49805 19.012 3.6533 20.1672 5.07837 20.1672H9.75659V13.4536Z" fill="url(#paint2_radial_3802_6737)"/>
<path d="M9.75659 13.4536C10.6167 13.0044 11.2039 12.104 11.2039 11.0664C11.2039 9.57998 9.99887 8.375 8.51245 8.375C7.24139 8.375 6.17612 9.25612 5.89412 10.4409C5.81837 10.7591 5.55949 11.0196 5.24191 11.0981C4.07768 11.3857 3.21446 12.4372 3.21446 13.6903C3.21446 14.1148 3.31352 14.5161 3.48976 14.8725C3.62186 15.1395 3.55647 15.4819 3.33668 15.683C2.82127 16.1548 2.49805 16.8331 2.49805 17.5869C2.49805 19.012 3.6533 20.1672 5.07837 20.1672H9.75659V13.4536Z" fill="url(#paint3_radial_3802_6737)" fill-opacity="0.85"/>
<path d="M9.75659 13.4536C10.6167 13.0044 11.2039 12.104 11.2039 11.0664C11.2039 9.57998 9.99887 8.375 8.51245 8.375C7.24139 8.375 6.17612 9.25612 5.89412 10.4409C5.81837 10.7591 5.55949 11.0196 5.24191 11.0981C4.07768 11.3857 3.21446 12.4372 3.21446 13.6903C3.21446 14.1148 3.31352 14.5161 3.48976 14.8725C3.62186 15.1395 3.55647 15.4819 3.33668 15.683C2.82127 16.1548 2.49805 16.8331 2.49805 17.5869C2.49805 19.012 3.6533 20.1672 5.07837 20.1672H9.75659V13.4536Z" fill="url(#paint4_radial_3802_6737)"/>
<path d="M8.15625 6.26602C8.15625 6.07272 8.31295 5.91602 8.50625 5.91602H10.2311C10.4244 5.91602 10.5811 6.07272 10.5811 6.26602V12.9302H8.15625V6.26602Z" fill="url(#paint5_radial_3802_6737)"/>
<path d="M8.15625 6.26602C8.15625 6.07272 8.31295 5.91602 8.50625 5.91602H10.2311C10.4244 5.91602 10.5811 6.07272 10.5811 6.26602V12.9302H8.15625V6.26602Z" fill="url(#paint6_linear_3802_6737)"/>
<path d="M8.15625 6.26602C8.15625 6.07272 8.31295 5.91602 8.50625 5.91602H10.2311C10.4244 5.91602 10.5811 6.07272 10.5811 6.26602V12.9302H8.15625V6.26602Z" fill="url(#paint7_linear_3802_6737)"/>
<path d="M8.15625 6.26602C8.15625 6.07272 8.31295 5.91602 8.50625 5.91602H10.2311C10.4244 5.91602 10.5811 6.07272 10.5811 6.26602V12.9302H8.15625V6.26602Z" fill="url(#paint8_linear_3802_6737)"/>
<path d="M8.15625 6.26602C8.15625 6.07272 8.31295 5.91602 8.50625 5.91602H10.2311C10.4244 5.91602 10.5811 6.07272 10.5811 6.26602V12.9302H8.15625V6.26602Z" fill="url(#paint9_radial_3802_6737)"/>
<path d="M21.8798 22.7764H7.17773V13.6043L14.5288 6.2666L21.8798 13.6043V22.7764Z" fill="url(#paint10_linear_3802_6737)"/>
<path d="M21.8798 22.7764H7.17773V13.6043L14.5288 6.2666L21.8798 13.6043V22.7764Z" fill="url(#paint11_linear_3802_6737)"/>
<path d="M21.8798 22.7764H7.17773V13.6043L14.5288 6.2666L21.8798 13.6043V22.7764Z" fill="url(#paint12_radial_3802_6737)"/>
<path d="M21.8798 22.7764H7.17773V13.6043L14.5288 6.2666L21.8798 13.6043V22.7764Z" fill="url(#paint13_linear_3802_6737)"/>
<path d="M21.8798 22.7764H7.17773V13.6043L14.5288 6.2666L21.8798 13.6043V22.7764Z" fill="url(#paint14_radial_3802_6737)"/>
<path d="M21.8798 22.7764H7.17773V13.6043L14.5288 6.2666L21.8798 13.6043V22.7764Z" fill="url(#paint15_linear_3802_6737)" fill-opacity="0.8"/>
<path d="M21.8798 22.7764H7.17773V13.6043L14.5288 6.2666L21.8798 13.6043V22.7764Z" fill="url(#paint16_radial_3802_6737)"/>
<path d="M21.8798 22.7764H7.17773V13.6043L14.5288 6.2666L21.8798 13.6043V22.7764Z" fill="url(#paint17_linear_3802_6737)"/>
<path d="M21.8798 22.7764H7.17773V13.6043L14.5288 6.2666L21.8798 13.6043V22.7764Z" fill="url(#paint18_radial_3802_6737)"/>
<path d="M21.8798 22.7764H7.17773V13.6043L14.5288 6.2666L21.8798 13.6043V22.7764Z" fill="url(#paint19_radial_3802_6737)"/>
<path d="M21.8798 22.7764H7.17773V13.6043L14.5288 6.2666L21.8798 13.6043V22.7764Z" fill="url(#paint20_linear_3802_6737)"/>
<path d="M19.6484 18.8366H16.7904C16.4695 18.8366 16.2188 18.5758 16.2188 18.2649V15.4066C16.2188 15.0857 16.4795 14.835 16.7904 14.835H19.6484C19.9693 14.835 20.2201 15.0957 20.2201 15.4066V18.2649C20.2201 18.5858 19.9693 18.8366 19.6484 18.8366Z" fill="url(#paint21_linear_3802_6737)"/>
<path d="M19.6484 18.8366H16.7904C16.4695 18.8366 16.2188 18.5758 16.2188 18.2649V15.4066C16.2188 15.0857 16.4795 14.835 16.7904 14.835H19.6484C19.9693 14.835 20.2201 15.0957 20.2201 15.4066V18.2649C20.2201 18.5858 19.9693 18.8366 19.6484 18.8366Z" fill="url(#paint22_linear_3802_6737)"/>
<path d="M19.6484 18.8366H16.7904C16.4695 18.8366 16.2188 18.5758 16.2188 18.2649V15.4066C16.2188 15.0857 16.4795 14.835 16.7904 14.835H19.6484C19.9693 14.835 20.2201 15.0957 20.2201 15.4066V18.2649C20.2201 18.5858 19.9693 18.8366 19.6484 18.8366Z" fill="url(#paint23_linear_3802_6737)"/>
<path d="M19.6484 18.8366H16.7904C16.4695 18.8366 16.2188 18.5758 16.2188 18.2649V15.4066C16.2188 15.0857 16.4795 14.835 16.7904 14.835H19.6484C19.9693 14.835 20.2201 15.0957 20.2201 15.4066V18.2649C20.2201 18.5858 19.9693 18.8366 19.6484 18.8366Z" fill="url(#paint24_linear_3802_6737)"/>
<path d="M19.6484 18.8366H16.7904C16.4695 18.8366 16.2188 18.5758 16.2188 18.2649V15.4066C16.2188 15.0857 16.4795 14.835 16.7904 14.835H19.6484C19.9693 14.835 20.2201 15.0957 20.2201 15.4066V18.2649C20.2201 18.5858 19.9693 18.8366 19.6484 18.8366Z" fill="url(#paint25_linear_3802_6737)"/>
<path d="M19.6484 18.8366H16.7904C16.4695 18.8366 16.2188 18.5758 16.2188 18.2649V15.4066C16.2188 15.0857 16.4795 14.835 16.7904 14.835H19.6484C19.9693 14.835 20.2201 15.0957 20.2201 15.4066V18.2649C20.2201 18.5858 19.9693 18.8366 19.6484 18.8366Z" fill="url(#paint26_linear_3802_6737)"/>
<path d="M14.6023 22.0036V22.3501H9.31836V22.0036V15.6134C9.31836 15.1265 9.72346 14.7266 10.2166 14.7266H13.704C14.1972 14.7266 14.6023 15.1265 14.6023 15.6134V22.0036Z" fill="url(#paint27_linear_3802_6737)"/>
<path d="M14.6023 22.0036V22.3501H9.31836V22.0036V15.6134C9.31836 15.1265 9.72346 14.7266 10.2166 14.7266H13.704C14.1972 14.7266 14.6023 15.1265 14.6023 15.6134V22.0036Z" fill="url(#paint28_linear_3802_6737)"/>
<path d="M14.6023 22.0036V22.3501H9.31836V22.0036V15.6134C9.31836 15.1265 9.72346 14.7266 10.2166 14.7266H13.704C14.1972 14.7266 14.6023 15.1265 14.6023 15.6134V22.0036Z" fill="url(#paint29_linear_3802_6737)"/>
<path d="M14.6023 22.0036V22.3501H9.31836V22.0036V15.6134C9.31836 15.1265 9.72346 14.7266 10.2166 14.7266H13.704C14.1972 14.7266 14.6023 15.1265 14.6023 15.6134V22.0036Z" fill="url(#paint30_linear_3802_6737)"/>
<path d="M14.6023 22.0036V22.3501H9.31836V22.0036V15.6134C9.31836 15.1265 9.72346 14.7266 10.2166 14.7266H13.704C14.1972 14.7266 14.6023 15.1265 14.6023 15.6134V22.0036Z" fill="url(#paint31_radial_3802_6737)"/>
<path d="M13.3786 18.8159C13.591 18.8159 13.7631 18.6437 13.7631 18.4314C13.7631 18.219 13.591 18.0469 13.3786 18.0469C13.1663 18.0469 12.9941 18.219 12.9941 18.4314C12.9941 18.6437 13.1663 18.8159 13.3786 18.8159Z" fill="#895D56"/>
<path d="M13.3786 18.8159C13.591 18.8159 13.7631 18.6437 13.7631 18.4314C13.7631 18.219 13.591 18.0469 13.3786 18.0469C13.1663 18.0469 12.9941 18.219 12.9941 18.4314C12.9941 18.6437 13.1663 18.8159 13.3786 18.8159Z" fill="url(#paint32_radial_3802_6737)"/>
<path d="M13.3786 18.8159C13.591 18.8159 13.7631 18.6437 13.7631 18.4314C13.7631 18.219 13.591 18.0469 13.3786 18.0469C13.1663 18.0469 12.9941 18.219 12.9941 18.4314C12.9941 18.6437 13.1663 18.8159 13.3786 18.8159Z" fill="url(#paint33_radial_3802_6737)"/>
<path d="M23.8018 13.6916L15.1077 5.12652C14.7854 4.80418 14.2604 4.80418 13.9381 5.12652C13.9381 5.12652 13.9289 5.12652 13.9289 5.13573L5.21637 13.7101C4.89402 14.0324 4.89402 14.5482 5.21637 14.8613C5.53871 15.1744 6.06367 15.1836 6.38601 14.8613L14.3428 7.02163C14.4401 6.92574 14.5964 6.92574 14.6937 7.02163L22.6229 14.8337C22.9453 15.156 23.4702 15.156 23.7926 14.8337C24.1149 14.5113 24.1241 14.0048 23.8018 13.6916Z" fill="url(#paint34_linear_3802_6737)"/>
<path d="M23.8018 13.6916L15.1077 5.12652C14.7854 4.80418 14.2604 4.80418 13.9381 5.12652C13.9381 5.12652 13.9289 5.12652 13.9289 5.13573L5.21637 13.7101C4.89402 14.0324 4.89402 14.5482 5.21637 14.8613C5.53871 15.1744 6.06367 15.1836 6.38601 14.8613L14.3428 7.02163C14.4401 6.92574 14.5964 6.92574 14.6937 7.02163L22.6229 14.8337C22.9453 15.156 23.4702 15.156 23.7926 14.8337C24.1149 14.5113 24.1241 14.0048 23.8018 13.6916Z" fill="url(#paint35_linear_3802_6737)"/>
<path d="M23.8018 13.6916L15.1077 5.12652C14.7854 4.80418 14.2604 4.80418 13.9381 5.12652C13.9381 5.12652 13.9289 5.12652 13.9289 5.13573L5.21637 13.7101C4.89402 14.0324 4.89402 14.5482 5.21637 14.8613C5.53871 15.1744 6.06367 15.1836 6.38601 14.8613L14.3428 7.02163C14.4401 6.92574 14.5964 6.92574 14.6937 7.02163L22.6229 14.8337C22.9453 15.156 23.4702 15.156 23.7926 14.8337C24.1149 14.5113 24.1241 14.0048 23.8018 13.6916Z" fill="url(#paint36_linear_3802_6737)"/>
<path d="M23.8018 13.6916L15.1077 5.12652C14.7854 4.80418 14.2604 4.80418 13.9381 5.12652C13.9381 5.12652 13.9289 5.12652 13.9289 5.13573L5.21637 13.7101C4.89402 14.0324 4.89402 14.5482 5.21637 14.8613C5.53871 15.1744 6.06367 15.1836 6.38601 14.8613L14.3428 7.02163C14.4401 6.92574 14.5964 6.92574 14.6937 7.02163L22.6229 14.8337C22.9453 15.156 23.4702 15.156 23.7926 14.8337C24.1149 14.5113 24.1241 14.0048 23.8018 13.6916Z" fill="url(#paint37_radial_3802_6737)"/>
<path d="M23.8018 13.6916L15.1077 5.12652C14.7854 4.80418 14.2604 4.80418 13.9381 5.12652C13.9381 5.12652 13.9289 5.12652 13.9289 5.13573L5.21637 13.7101C4.89402 14.0324 4.89402 14.5482 5.21637 14.8613C5.53871 15.1744 6.06367 15.1836 6.38601 14.8613L14.3428 7.02163C14.4401 6.92574 14.5964 6.92574 14.6937 7.02163L22.6229 14.8337C22.9453 15.156 23.4702 15.156 23.7926 14.8337C24.1149 14.5113 24.1241 14.0048 23.8018 13.6916Z" fill="url(#paint38_radial_3802_6737)"/>
<path d="M23.8018 13.6916L15.1077 5.12652C14.7854 4.80418 14.2604 4.80418 13.9381 5.12652C13.9381 5.12652 13.9289 5.12652 13.9289 5.13573L5.21637 13.7101C4.89402 14.0324 4.89402 14.5482 5.21637 14.8613C5.53871 15.1744 6.06367 15.1836 6.38601 14.8613L14.3428 7.02163C14.4401 6.92574 14.5964 6.92574 14.6937 7.02163L22.6229 14.8337C22.9453 15.156 23.4702 15.156 23.7926 14.8337C24.1149 14.5113 24.1241 14.0048 23.8018 13.6916Z" fill="url(#paint39_radial_3802_6737)"/>
<path d="M8.63867 22.7539C8.63867 22.3397 8.97446 22.0039 9.38867 22.0039H14.4704C14.8847 22.0039 15.2204 22.3397 15.2204 22.7539V22.7764V23.0067H8.63867V22.7764V22.7539Z" fill="url(#paint40_linear_3802_6737)"/>
<path d="M8.63867 22.7539C8.63867 22.3397 8.97446 22.0039 9.38867 22.0039H14.4704C14.8847 22.0039 15.2204 22.3397 15.2204 22.7539V22.7764V23.0067H8.63867V22.7764V22.7539Z" fill="url(#paint41_linear_3802_6737)"/>
<path d="M8.63867 22.7539C8.63867 22.3397 8.97446 22.0039 9.38867 22.0039H14.4704C14.8847 22.0039 15.2204 22.3397 15.2204 22.7539V22.7764V23.0067H8.63867V22.7764V22.7539Z" fill="url(#paint42_linear_3802_6737)"/>
<path d="M1.68555 24.4141C1.68555 23.5096 2.41878 22.7764 3.32327 22.7764H22.6746C23.5791 22.7764 24.3123 23.5096 24.3123 24.4141V24.4141H1.68555V24.4141Z" fill="#3FD47B"/>
<path d="M1.68555 24.4141C1.68555 23.5096 2.41878 22.7764 3.32327 22.7764H22.6746C23.5791 22.7764 24.3123 23.5096 24.3123 24.4141V24.4141H1.68555V24.4141Z" fill="url(#paint43_linear_3802_6737)"/>
<path d="M1.68555 24.4141C1.68555 23.5096 2.41878 22.7764 3.32327 22.7764H22.6746C23.5791 22.7764 24.3123 23.5096 24.3123 24.4141V24.4141H1.68555V24.4141Z" fill="url(#paint44_radial_3802_6737)"/>
<path d="M1.68555 24.4141C1.68555 23.5096 2.41878 22.7764 3.32327 22.7764H22.6746C23.5791 22.7764 24.3123 23.5096 24.3123 24.4141V24.4141H1.68555V24.4141Z" fill="url(#paint45_radial_3802_6737)"/>
<path d="M1.68555 24.4141C1.68555 23.5096 2.41878 22.7764 3.32327 22.7764H22.6746C23.5791 22.7764 24.3123 23.5096 24.3123 24.4141V24.4141H1.68555V24.4141Z" fill="url(#paint46_radial_3802_6737)"/>
<path d="M1.68555 24.4141C1.68555 23.5096 2.41878 22.7764 3.32327 22.7764H22.6746C23.5791 22.7764 24.3123 23.5096 24.3123 24.4141V24.4141H1.68555V24.4141Z" fill="url(#paint47_linear_3802_6737)"/>
<path d="M21.0422 24.414C22.0079 24.0619 22.6962 23.1468 22.6962 22.0733C22.6962 20.6953 21.5618 19.5781 20.1624 19.5781C19.3717 19.5781 18.6656 19.9348 18.2009 20.4937C17.8216 20.9499 17.3116 21.3462 16.8503 21.7193C16.4647 22.0312 16.2188 22.5044 16.2188 23.0341C16.2188 23.6022 16.5016 24.1052 16.9361 24.414H21.0422Z" fill="#2EAD69"/>
<path d="M21.0422 24.414C22.0079 24.0619 22.6962 23.1468 22.6962 22.0733C22.6962 20.6953 21.5618 19.5781 20.1624 19.5781C19.3717 19.5781 18.6656 19.9348 18.2009 20.4937C17.8216 20.9499 17.3116 21.3462 16.8503 21.7193C16.4647 22.0312 16.2188 22.5044 16.2188 23.0341C16.2188 23.6022 16.5016 24.1052 16.9361 24.414H21.0422Z" fill="url(#paint48_linear_3802_6737)"/>
<path d="M21.0422 24.414C22.0079 24.0619 22.6962 23.1468 22.6962 22.0733C22.6962 20.6953 21.5618 19.5781 20.1624 19.5781C19.3717 19.5781 18.6656 19.9348 18.2009 20.4937C17.8216 20.9499 17.3116 21.3462 16.8503 21.7193C16.4647 22.0312 16.2188 22.5044 16.2188 23.0341C16.2188 23.6022 16.5016 24.1052 16.9361 24.414H21.0422Z" fill="url(#paint49_radial_3802_6737)"/>
<path d="M21.0422 24.414C22.0079 24.0619 22.6962 23.1468 22.6962 22.0733C22.6962 20.6953 21.5618 19.5781 20.1624 19.5781C19.3717 19.5781 18.6656 19.9348 18.2009 20.4937C17.8216 20.9499 17.3116 21.3462 16.8503 21.7193C16.4647 22.0312 16.2188 22.5044 16.2188 23.0341C16.2188 23.6022 16.5016 24.1052 16.9361 24.414H21.0422Z" fill="url(#paint50_radial_3802_6737)"/>
<path d="M21.0422 24.414C22.0079 24.0619 22.6962 23.1468 22.6962 22.0733C22.6962 20.6953 21.5618 19.5781 20.1624 19.5781C19.3717 19.5781 18.6656 19.9348 18.2009 20.4937C17.8216 20.9499 17.3116 21.3462 16.8503 21.7193C16.4647 22.0312 16.2188 22.5044 16.2188 23.0341C16.2188 23.6022 16.5016 24.1052 16.9361 24.414H21.0422Z" fill="url(#paint51_radial_3802_6737)"/>
<defs>
<linearGradient id="paint0_linear_3802_6737" x1="6.85095" y1="8.375" x2="6.85095" y2="20.1672" gradientUnits="userSpaceOnUse">
<stop stop-color="#29884D"/>
<stop offset="1" stop-color="#227341"/>
</linearGradient>
<linearGradient id="paint1_linear_3802_6737" x1="5.07202" y1="20.2942" x2="5.07202" y2="19.6721" gradientUnits="userSpaceOnUse">
<stop stop-color="#4E7978"/>
<stop offset="1" stop-color="#4E7978" stop-opacity="0"/>
</linearGradient>
<radialGradient id="paint2_radial_3802_6737" cx="0" cy="0" r="1" gradientUnits="userSpaceOnUse" gradientTransform="translate(8.29064 7.77568) rotate(90) scale(2.28867 2.13313)">
<stop offset="0.0970873" stop-color="#4DB56F"/>
<stop offset="1" stop-color="#4DB56F" stop-opacity="0"/>
</radialGradient>
<radialGradient id="paint3_radial_3802_6737" cx="0" cy="0" r="1" gradientUnits="userSpaceOnUse" gradientTransform="translate(4.63324 17.8661) rotate(-36.2717) scale(4.70571 6.33814)">
<stop offset="0.106771" stop-color="#279857"/>
<stop offset="0.302722" stop-color="#399862" stop-opacity="0.39"/>
<stop offset="0.494402" stop-color="#267F49" stop-opacity="0"/>
</radialGradient>
<radialGradient id="paint4_radial_3802_6737" cx="0" cy="0" r="1" gradientUnits="userSpaceOnUse" gradientTransform="translate(5.16186 12.8412) rotate(-43.3198) scale(4.69587 3.11129)">
<stop offset="0.047064" stop-color="#2DA058"/>
<stop offset="0.322215" stop-color="#2DA058" stop-opacity="0.29"/>
<stop offset="0.476472" stop-color="#267F49" stop-opacity="0"/>
</radialGradient>
<radialGradient id="paint5_radial_3802_6737" cx="0" cy="0" r="1" gradientUnits="userSpaceOnUse" gradientTransform="translate(10.2531 6.30864) rotate(90) scale(3.11445 1.54627)">
<stop stop-color="#FFD1A3"/>
<stop offset="1" stop-color="#DFA276"/>
</radialGradient>
<linearGradient id="paint6_linear_3802_6737" x1="7.98877" y1="8.62513" x2="9.00303" y2="8.62513" gradientUnits="userSpaceOnUse">
<stop stop-color="#8E694B"/>
<stop offset="1" stop-color="#8E694B" stop-opacity="0"/>
</linearGradient>
<linearGradient id="paint7_linear_3802_6737" x1="9.97502" y1="9.4231" x2="9.53129" y2="8.89982" gradientUnits="userSpaceOnUse">
<stop stop-color="#C77958"/>
<stop offset="1" stop-color="#C77958" stop-opacity="0"/>
</linearGradient>
<linearGradient id="paint8_linear_3802_6737" x1="9.36865" y1="5.87793" x2="9.36865" y2="5.99219" gradientUnits="userSpaceOnUse">
<stop stop-color="#D5AD80"/>
<stop offset="1" stop-color="#D5AD80" stop-opacity="0"/>
</linearGradient>
<radialGradient id="paint9_radial_3802_6737" cx="0" cy="0" r="1" gradientUnits="userSpaceOnUse" gradientTransform="translate(10.8654 6.04173) rotate(180) scale(1.67996 0.361113)">
<stop stop-color="#FFE9B1"/>
<stop offset="1" stop-color="#FFE9B1" stop-opacity="0"/>
</radialGradient>
<linearGradient id="paint10_linear_3802_6737" x1="7.71241" y1="17.0565" x2="21.4741" y2="17.0565" gradientUnits="userSpaceOnUse">
<stop stop-color="#D7905F"/>
<stop offset="1" stop-color="#E8BC97"/>
</linearGradient>
<linearGradient id="paint11_linear_3802_6737" x1="8.0993" y1="23.1601" x2="13.4919" y2="15.3884" gradientUnits="userSpaceOnUse">
<stop stop-color="#BA8951"/>
<stop offset="1" stop-color="#BA8951" stop-opacity="0"/>
</linearGradient>
<radialGradient id="paint12_radial_3802_6737" cx="0" cy="0" r="1" gradientUnits="userSpaceOnUse" gradientTransform="translate(17.3491 22.2441) rotate(-117.235) scale(2.58111 3.12213)">
<stop stop-color="#BEAB75"/>
<stop offset="1" stop-color="#BEAB75" stop-opacity="0"/>
</radialGradient>
<linearGradient id="paint13_linear_3802_6737" x1="21.8798" y1="19.3079" x2="21.4074" y2="19.3079" gradientUnits="userSpaceOnUse">
<stop stop-color="#FFE6B1"/>
<stop offset="1" stop-color="#FFE6B1" stop-opacity="0"/>
</linearGradient>
<radialGradient id="paint14_radial_3802_6737" cx="0" cy="0" r="1" gradientUnits="userSpaceOnUse" gradientTransform="translate(22.0535 13.0569) rotate(90) scale(3.21891 0.680923)">
<stop offset="0.35" stop-color="#9E413E"/>
<stop offset="1" stop-color="#9E413E" stop-opacity="0"/>
</radialGradient>
<linearGradient id="paint15_linear_3802_6737" x1="17.003" y1="9.10764" x2="16.6861" y2="9.4245" gradientUnits="userSpaceOnUse">
<stop stop-color="#B55852"/>
<stop offset="1" stop-color="#B55852" stop-opacity="0"/>
</linearGradient>
<radialGradient id="paint16_radial_3802_6737" cx="0" cy="0" r="1" gradientUnits="userSpaceOnUse" gradientTransform="translate(8.89279 22.8622) rotate(-123.111) scale(1.2328 1.04589)">
<stop offset="0.371976" stop-color="#462D1E" stop-opacity="0.53"/>
<stop offset="0.991094" stop-color="#C18D56" stop-opacity="0"/>
</radialGradient>
<linearGradient id="paint17_linear_3802_6737" x1="10.1774" y1="17.8867" x2="7.40964" y2="17.8621" gradientUnits="userSpaceOnUse">
<stop offset="0.0729167" stop-color="#DC9B6D" stop-opacity="0"/>
<stop offset="0.235923" stop-color="#311F14"/>
<stop offset="0.386008" stop-color="#7D5338" stop-opacity="0.88"/>
<stop offset="0.579538" stop-color="#CF8F5D" stop-opacity="0"/>
</linearGradient>
<radialGradient id="paint18_radial_3802_6737" cx="0" cy="0" r="1" gradientUnits="userSpaceOnUse" gradientTransform="translate(9.37311 13.2457) rotate(-0.749357) scale(4.27825 4.65139)">
<stop offset="0.400269" stop-color="#D79869"/>
<stop offset="0.603895" stop-color="#DD9F72" stop-opacity="0.53"/>
<stop offset="1" stop-color="#DEA174" stop-opacity="0"/>
</radialGradient>
<radialGradient id="paint19_radial_3802_6737" cx="0" cy="0" r="1" gradientUnits="userSpaceOnUse" gradientTransform="translate(11.3586 11.9826) rotate(0.519076) scale(3.17029 3.4468)">
<stop offset="0.400269" stop-color="#DC9E71"/>
<stop offset="0.603895" stop-color="#DD9F72" stop-opacity="0.53"/>
<stop offset="1" stop-color="#DEA174" stop-opacity="0"/>
</radialGradient>
<linearGradient id="paint20_linear_3802_6737" x1="7.08704" y1="20.8832" x2="7.58905" y2="20.8832" gradientUnits="userSpaceOnUse">
<stop stop-color="#845F3D"/>
<stop offset="1" stop-color="#845F3D" stop-opacity="0"/>
</linearGradient>
<linearGradient id="paint21_linear_3802_6737" x1="16.2187" y1="19.1393" x2="20.5366" y2="14.835" gradientUnits="userSpaceOnUse">
<stop stop-color="#4CCCFF"/>
<stop offset="1" stop-color="#3A9EE6"/>
</linearGradient>
<linearGradient id="paint22_linear_3802_6737" x1="18.2194" y1="19.0876" x2="18.2194" y2="18.3005" gradientUnits="userSpaceOnUse">
<stop stop-color="#1E9FE4"/>
<stop offset="1" stop-color="#1E9FE4" stop-opacity="0"/>
</linearGradient>
<linearGradient id="paint23_linear_3802_6737" x1="16.2187" y1="17.8196" x2="17.0224" y2="17.8196" gradientUnits="userSpaceOnUse">
<stop stop-color="#48E0FF"/>
<stop offset="1" stop-color="#48E0FF" stop-opacity="0"/>
</linearGradient>
<linearGradient id="paint24_linear_3802_6737" x1="16.824" y1="14.1347" x2="17.3625" y2="15.7504" gradientUnits="userSpaceOnUse">
<stop stop-color="#43B3F2"/>
<stop offset="1" stop-color="#43B3F2" stop-opacity="0"/>
</linearGradient>
<linearGradient id="paint25_linear_3802_6737" x1="21.4124" y1="16.1781" x2="18.6801" y2="16.1781" gradientUnits="userSpaceOnUse">
<stop offset="0.439216" stop-color="#207BBC"/>
<stop offset="0.914877" stop-color="#41B8FB" stop-opacity="0"/>
</linearGradient>
<linearGradient id="paint26_linear_3802_6737" x1="18.2194" y1="13.6096" x2="18.2194" y2="16.3503" gradientUnits="userSpaceOnUse">
<stop offset="0.302158" stop-color="#127FCE"/>
<stop offset="0.5609" stop-color="#1E94D7"/>
<stop offset="0.749681" stop-color="#1E94D7" stop-opacity="0"/>
</linearGradient>
<linearGradient id="paint27_linear_3802_6737" x1="9.31836" y1="19.2905" x2="14.6021" y2="19.2566" gradientUnits="userSpaceOnUse">
<stop stop-color="#70504D"/>
<stop offset="1" stop-color="#9B665E"/>
</linearGradient>
<linearGradient id="paint28_linear_3802_6737" x1="8.6513" y1="18.3651" x2="10.871" y2="18.3651" gradientUnits="userSpaceOnUse">
<stop offset="0.345029" stop-color="#4B372D"/>
<stop offset="0.646146" stop-color="#75534F" stop-opacity="0"/>
</linearGradient>
<linearGradient id="paint29_linear_3802_6737" x1="10.871" y1="13.6577" x2="10.871" y2="15.8815" gradientUnits="userSpaceOnUse">
<stop offset="0.0356747"/>
<stop offset="0.36822" stop-opacity="0.3"/>
<stop offset="0.654511" stop-opacity="0"/>
</linearGradient>
<linearGradient id="paint30_linear_3802_6737" x1="13.2352" y1="17.3526" x2="15.1645" y2="17.3526" gradientUnits="userSpaceOnUse">
<stop offset="0.03125" stop-color="#A97164" stop-opacity="0"/>
<stop offset="0.556701" stop-color="#503933" stop-opacity="0.15"/>
<stop offset="0.739583" stop-color="#A97164" stop-opacity="0"/>
</linearGradient>
<radialGradient id="paint31_radial_3802_6737" cx="0" cy="0" r="1" gradientUnits="userSpaceOnUse" gradientTransform="translate(13.2565 18.4713) rotate(161.615) scale(0.549381 0.563679)">
<stop offset="0.43146" stop-color="#633A3E"/>
<stop offset="0.622429" stop-color="#62393D" stop-opacity="0.66"/>
<stop offset="0.808461" stop-color="#906059" stop-opacity="0.2"/>
</radialGradient>
<radialGradient id="paint32_radial_3802_6737" cx="0" cy="0" r="1" gradientUnits="userSpaceOnUse" gradientTransform="translate(13.5024 18.4314) rotate(-180) scale(0.508269 0.471861)">
<stop offset="0.151898" stop-color="#895D56" stop-opacity="0"/>
<stop offset="0.612788" stop-color="#895D56" stop-opacity="0.5"/>
<stop offset="0.960034" stop-color="#60403B"/>
</radialGradient>
<radialGradient id="paint33_radial_3802_6737" cx="0" cy="0" r="1" gradientUnits="userSpaceOnUse" gradientTransform="translate(13.4103 18.4314) rotate(61.3358) scale(0.385067)">
<stop offset="0.342612" stop-opacity="0.07"/>
<stop offset="0.842223" stop-opacity="0"/>
</radialGradient>
<linearGradient id="paint34_linear_3802_6737" x1="14.5068" y1="4.88477" x2="14.5068" y2="15.0996" gradientUnits="userSpaceOnUse">
<stop stop-color="#EA6D2E"/>
<stop offset="1" stop-color="#CA222B"/>
</linearGradient>
<linearGradient id="paint35_linear_3802_6737" x1="21.0064" y1="10.7132" x2="19.4913" y2="12.2901" gradientUnits="userSpaceOnUse">
<stop stop-color="#D8402F" stop-opacity="0"/>
<stop offset="0.351072" stop-color="#EC5241"/>
<stop offset="0.921916" stop-color="#D9412F" stop-opacity="0"/>
</linearGradient>
<linearGradient id="paint36_linear_3802_6737" x1="6.87943" y1="11.7824" x2="8.5791" y2="13.4886" gradientUnits="userSpaceOnUse">
<stop stop-color="#D8402F" stop-opacity="0"/>
<stop offset="0.450418" stop-color="#EC5241"/>
<stop offset="1" stop-color="#D9412F" stop-opacity="0"/>
</linearGradient>
<radialGradient id="paint37_radial_3802_6737" cx="0" cy="0" r="1" gradientUnits="userSpaceOnUse" gradientTransform="translate(15.1906 2.42572) rotate(97.485) scale(9.47324 17.6803)">
<stop offset="0.285749" stop-color="#FF853F"/>
<stop offset="0.772341" stop-color="#FF853F" stop-opacity="0"/>
</radialGradient>
<radialGradient id="paint38_radial_3802_6737" cx="0" cy="0" r="1" gradientUnits="userSpaceOnUse" gradientTransform="translate(5.51616 14.5739) rotate(-26.3497) scale(1.51114 1.12895)">
<stop stop-color="#CC262C"/>
<stop offset="1" stop-color="#CC272C" stop-opacity="0"/>
</radialGradient>
<radialGradient id="paint39_radial_3802_6737" cx="0" cy="0" r="1" gradientUnits="userSpaceOnUse" gradientTransform="translate(23.5426 14.6292) rotate(-147.7) scale(1.71261 1.35871)">
<stop stop-color="#CB252C"/>
<stop offset="0.906929" stop-color="#CF2F2D" stop-opacity="0"/>
</radialGradient>
<linearGradient id="paint40_linear_3802_6737" x1="8.81624" y1="22.7764" x2="14.9804" y2="22.7764" gradientUnits="userSpaceOnUse">
<stop stop-color="#9FA1A3"/>
<stop offset="1" stop-color="#C4C1C7"/>
</linearGradient>
<linearGradient id="paint41_linear_3802_6737" x1="8.52842" y1="22.7764" x2="9.31346" y2="22.7764" gradientUnits="userSpaceOnUse">
<stop stop-color="#59675C"/>
<stop offset="1" stop-color="#59675C" stop-opacity="0"/>
</linearGradient>
<linearGradient id="paint42_linear_3802_6737" x1="15.2204" y1="22.3902" x2="14.4914" y2="22.7764" gradientUnits="userSpaceOnUse">
<stop stop-color="#C8CAC6"/>
<stop offset="1" stop-color="#C8CAC6" stop-opacity="0"/>
</linearGradient>
<linearGradient id="paint43_linear_3802_6737" x1="12.9989" y1="24.8487" x2="12.9989" y2="23.5952" gradientUnits="userSpaceOnUse">
<stop offset="0.107097" stop-color="#3FD17B"/>
<stop offset="1" stop-color="#3FD17B" stop-opacity="0"/>
</linearGradient>
<radialGradient id="paint44_radial_3802_6737" cx="0" cy="0" r="1" gradientUnits="userSpaceOnUse" gradientTransform="translate(16.8776 23.5952) rotate(128.096) scale(1.56383 1.97282)">
<stop offset="0.171122" stop-color="#228051"/>
<stop offset="1" stop-color="#228051" stop-opacity="0"/>
</radialGradient>
<radialGradient id="paint45_radial_3802_6737" cx="0" cy="0" r="1" gradientUnits="userSpaceOnUse" gradientTransform="translate(24.3123 22.5408) rotate(147.147) scale(2.71464 4.45133)">
<stop stop-color="#5CEE92"/>
<stop offset="1" stop-color="#5CEE92" stop-opacity="0"/>
</radialGradient>
<radialGradient id="paint46_radial_3802_6737" cx="0" cy="0" r="1" gradientUnits="userSpaceOnUse" gradientTransform="translate(1.9294 22.3778) rotate(41.9059) scale(1.57062 1.98138)">
<stop offset="0.171122" stop-color="#228051"/>
<stop offset="1" stop-color="#228051" stop-opacity="0"/>
</radialGradient>
<linearGradient id="paint47_linear_3802_6737" x1="12.9989" y1="21.8774" x2="12.9989" y2="23.944" gradientUnits="userSpaceOnUse">
<stop offset="0.550996" stop-color="#3FB36D"/>
<stop offset="1" stop-color="#3FD17B" stop-opacity="0"/>
</linearGradient>
<linearGradient id="paint48_linear_3802_6737" x1="18.7206" y1="24.906" x2="18.7206" y2="23.2305" gradientUnits="userSpaceOnUse">
<stop stop-color="#3B8478"/>
<stop offset="1" stop-color="#3B8478" stop-opacity="0"/>
</linearGradient>
<radialGradient id="paint49_radial_3802_6737" cx="0" cy="0" r="1" gradientUnits="userSpaceOnUse" gradientTransform="translate(20.3361 26.8298) rotate(-110.329) scale(5.5254 2.51689)">
<stop stop-color="#2C785B"/>
<stop offset="1" stop-color="#2C785B" stop-opacity="0"/>
</radialGradient>
<radialGradient id="paint50_radial_3802_6737" cx="0" cy="0" r="1" gradientUnits="userSpaceOnUse" gradientTransform="translate(21.1632 21.274) rotate(142.112) scale(6.1498 8.32395)">
<stop offset="0.641466" stop-color="#2C785B" stop-opacity="0"/>
<stop offset="0.965993" stop-color="#2C785B"/>
</radialGradient>
<radialGradient id="paint51_radial_3802_6737" cx="0" cy="0" r="1" gradientUnits="userSpaceOnUse" gradientTransform="translate(22.4585 20.7746) rotate(148.884) scale(3.50538 3.33703)">
<stop stop-color="#60FB9A"/>
<stop offset="1" stop-color="#60FB9A" stop-opacity="0"/>
</radialGradient>
</defs>
</svg>
