<svg width="18" height="18" viewBox="0 0 18 18" fill="none" xmlns="http://www.w3.org/2000/svg">
<g clip-path="url(#clip0_2025_4294)">
<path d="M1.125 11.25V9.00003C1.125 2.81253 6.75 1.12503 9 1.12503C11.25 1.12503 16.875 2.81253 16.875 9.00003V11.25M1.125 11.25C1.125 11.8746 1.125 12.5487 1.2357 13.073C1.40003 13.8513 2.25 14.625 3.375 14.625C4.5 14.625 5.34997 13.8513 5.5143 13.073C5.625 12.5487 5.625 11.8746 5.625 11.25C5.625 10.6255 5.625 9.95139 5.5143 9.4271C5.34997 8.64876 4.5 7.87503 3.375 7.87503C2.25 7.87503 1.40003 8.64876 1.2357 9.4271C1.125 9.95139 1.125 10.6255 1.125 11.25ZM16.875 11.25C16.875 11.8746 16.875 12.5487 16.7643 13.073C16.6 13.8513 15.75 14.625 14.625 14.625C13.5 14.625 12.65 13.8513 12.4857 13.073C12.375 12.5487 12.375 11.8746 12.375 11.25C12.375 10.6255 12.375 9.95139 12.4857 9.4271C12.65 8.64876 13.5 7.87503 14.625 7.87503C15.75 7.87503 16.6 8.64876 16.7643 9.4271C16.875 9.95139 16.875 10.6255 16.875 11.25ZM16.875 11.25C16.875 17.4375 14.0625 16.875 9 16.875" stroke="black" stroke-width="1.5" stroke-linecap="round" stroke-linejoin="round"/>
</g>
<defs>
<clipPath id="clip0_2025_4294">
<rect width="18" height="18" fill="white"/>
</clipPath>
</defs>
</svg>
