<svg width="30" height="32" viewBox="0 0 30 32" fill="none" xmlns="http://www.w3.org/2000/svg">
<g filter="url(#filter0_i_56_5970)">
<path d="M8.5531 17.2817C8.5531 13.6163 11.5244 10.645 15.1897 10.645C18.855 10.645 21.8264 13.6164 21.8264 17.2817V29.6899C21.8264 30.759 20.6326 31.3946 19.7456 30.7979L18.1712 29.7388C16.3685 28.5262 14.0109 28.5262 12.2082 29.7388L10.6339 30.7979C9.74682 31.3946 8.5531 30.759 8.5531 29.6899V17.2817Z" fill="url(#paint0_linear_56_5970)"/>
</g>
<path d="M10.1514 17.2817C10.1514 14.4991 12.4072 12.2434 15.1897 12.2434C17.9723 12.2434 20.228 14.4991 20.228 17.2817V29.1961L19.0634 28.4126C16.7213 26.8371 13.6582 26.8371 11.3161 28.4126L10.1514 29.1961V17.2817Z" stroke="white" stroke-opacity="0.1" stroke-width="3.19668"/>
<g filter="url(#filter1_bi_56_5970)">
<path d="M27.4848 13.4572C27.4848 20.3523 21.8951 25.942 15 25.942C8.10487 25.942 2.51526 20.3523 2.51526 13.4572C2.51526 6.56207 8.10487 0.972458 15 0.972458C21.8951 0.972458 27.4848 6.56207 27.4848 13.4572Z" fill="#2496FF" fill-opacity="0.09"/>
<path d="M27.4848 13.4572C27.4848 20.3523 21.8951 25.942 15 25.942C8.10487 25.942 2.51526 20.3523 2.51526 13.4572C2.51526 6.56207 8.10487 0.972458 15 0.972458C21.8951 0.972458 27.4848 6.56207 27.4848 13.4572Z" fill="url(#paint1_linear_56_5970)"/>
</g>
<g filter="url(#filter2_bi_56_5970)">
<path fill-rule="evenodd" clip-rule="evenodd" d="M15 25.2742C21.5264 25.2742 26.817 19.9836 26.817 13.4572C26.817 6.93083 21.5264 1.64016 15 1.64016C8.47363 1.64016 3.18296 6.93083 3.18296 13.4572C3.18296 19.9836 8.47363 25.2742 15 25.2742ZM15 25.942C21.8951 25.942 27.4848 20.3523 27.4848 13.4572C27.4848 6.56207 21.8951 0.972458 15 0.972458C8.10487 0.972458 2.51526 6.56207 2.51526 13.4572C2.51526 20.3523 8.10487 25.942 15 25.942Z" fill="url(#paint2_linear_56_5970)" fill-opacity="0.5"/>
</g>
<path fill-rule="evenodd" clip-rule="evenodd" d="M21.8264 23.9863C19.863 25.2728 17.5152 26.021 14.9926 26.021C12.6367 26.021 10.4333 25.3685 8.5531 24.2343V29.6899C8.5531 30.759 9.74681 31.3946 10.6339 30.7979L12.2082 29.7388C14.0109 28.5262 16.3685 28.5262 18.1712 29.7388L19.7456 30.7979C20.6326 31.3946 21.8264 30.759 21.8264 29.6899V23.9863Z" fill="url(#paint3_linear_56_5970)"/>
<defs>
<filter id="filter0_i_56_5970" x="8.5531" y="10.645" width="13.2733" height="20.3825" filterUnits="userSpaceOnUse" color-interpolation-filters="sRGB">
<feFlood flood-opacity="0" result="BackgroundImageFix"/>
<feBlend mode="normal" in="SourceGraphic" in2="BackgroundImageFix" result="shape"/>
<feColorMatrix in="SourceAlpha" type="matrix" values="0 0 0 0 0 0 0 0 0 0 0 0 0 0 0 0 0 0 127 0" result="hardAlpha"/>
<feOffset/>
<feGaussianBlur stdDeviation="9.59004"/>
<feComposite in2="hardAlpha" operator="arithmetic" k2="-1" k3="1"/>
<feColorMatrix type="matrix" values="0 0 0 0 0 0 0 0 0 0 0 0 0 0 0 0 0 0 0.25 0"/>
<feBlend mode="multiply" in2="shape" result="effect1_innerShadow_56_5970"/>
</filter>
<filter id="filter1_bi_56_5970" x="-13.4681" y="-15.011" width="56.9364" height="56.9363" filterUnits="userSpaceOnUse" color-interpolation-filters="sRGB">
<feFlood flood-opacity="0" result="BackgroundImageFix"/>
<feGaussianBlur in="BackgroundImageFix" stdDeviation="7.9917"/>
<feComposite in2="SourceAlpha" operator="in" result="effect1_backgroundBlur_56_5970"/>
<feBlend mode="normal" in="SourceGraphic" in2="effect1_backgroundBlur_56_5970" result="shape"/>
<feColorMatrix in="SourceAlpha" type="matrix" values="0 0 0 0 0 0 0 0 0 0 0 0 0 0 0 0 0 0 127 0" result="hardAlpha"/>
<feOffset/>
<feGaussianBlur stdDeviation="9.59004"/>
<feComposite in2="hardAlpha" operator="arithmetic" k2="-1" k3="1"/>
<feColorMatrix type="matrix" values="0 0 0 0 0.858333 0 0 0 0 0.95841 0 0 0 0 1 0 0 0 1 0"/>
<feBlend mode="normal" in2="shape" result="effect2_innerShadow_56_5970"/>
</filter>
<filter id="filter2_bi_56_5970" x="-13.4681" y="-15.011" width="56.9364" height="56.9363" filterUnits="userSpaceOnUse" color-interpolation-filters="sRGB">
<feFlood flood-opacity="0" result="BackgroundImageFix"/>
<feGaussianBlur in="BackgroundImageFix" stdDeviation="7.9917"/>
<feComposite in2="SourceAlpha" operator="in" result="effect1_backgroundBlur_56_5970"/>
<feBlend mode="normal" in="SourceGraphic" in2="effect1_backgroundBlur_56_5970" result="shape"/>
<feColorMatrix in="SourceAlpha" type="matrix" values="0 0 0 0 0 0 0 0 0 0 0 0 0 0 0 0 0 0 127 0" result="hardAlpha"/>
<feOffset/>
<feGaussianBlur stdDeviation="9.59004"/>
<feComposite in2="hardAlpha" operator="arithmetic" k2="-1" k3="1"/>
<feColorMatrix type="matrix" values="0 0 0 0 0.858333 0 0 0 0 0.95841 0 0 0 0 1 0 0 0 1 0"/>
<feBlend mode="normal" in2="shape" result="effect2_innerShadow_56_5970"/>
</filter>
<linearGradient id="paint0_linear_56_5970" x1="24.0605" y1="23.1555" x2="12.7052" y2="21.8208" gradientUnits="userSpaceOnUse">
<stop stop-color="#0052D4"/>
<stop offset="0.5" stop-color="#4364F7"/>
<stop offset="1" stop-color="#6FB1FC"/>
</linearGradient>
<linearGradient id="paint1_linear_56_5970" x1="8.27745" y1="0.972458" x2="20.7622" y2="27.8627" gradientUnits="userSpaceOnUse">
<stop stop-color="#EFF1FF" stop-opacity="0.57"/>
<stop offset="1" stop-color="white" stop-opacity="0"/>
</linearGradient>
<linearGradient id="paint2_linear_56_5970" x1="8.75763" y1="2.41301" x2="20.4421" y2="25.1416" gradientUnits="userSpaceOnUse">
<stop stop-color="white" stop-opacity="0.32"/>
<stop offset="1" stop-color="#24BFFF" stop-opacity="0"/>
</linearGradient>
<linearGradient id="paint3_linear_56_5970" x1="15.1897" y1="23.9863" x2="15.1897" y2="31.0275" gradientUnits="userSpaceOnUse">
<stop stop-color="#0D32A2"/>
<stop offset="1" stop-color="white" stop-opacity="0"/>
</linearGradient>
</defs>
</svg>
