<svg width="13" height="13" viewBox="0 0 13 13" fill="none" xmlns="http://www.w3.org/2000/svg">
<g id="Group 40190">
<g id="Group 143">
<path id="Vector" d="M3.64632 1.21622C4.5537 0.65744 5.59151 0.362156 6.64921 0.361816C7.52922 0.361283 8.398 0.564965 9.19079 0.95768C9.98357 1.35039 10.6799 1.92201 11.2279 2.62992C11.7759 3.33784 12.1614 4.16378 12.3557 5.04619C12.55 5.9286 12.5481 6.84472 12.35 7.72625C12.152 8.60778 11.763 9.43199 11.212 10.1374C10.661 10.8429 9.96223 11.4114 9.16778 11.8005C8.37334 12.1897 7.5037 12.3895 6.6237 12.385C5.88923 12.3812 5.16334 12.2353 4.48366 11.9562L1.84706 12.4075C1.2351 12.5123 0.731083 11.929 0.923454 11.3387L1.57126 9.35091C1.11584 8.52966 0.854255 7.6077 0.810313 6.65955C0.759974 5.57337 0.997143 4.49348 1.49656 3.53491C1.99598 2.57635 2.73894 1.775 3.64632 1.21622Z" fill="#747474"/>
<path id="Vector 496" d="M4 5H9.45455" stroke="#FFE710" stroke-linecap="round" stroke-linejoin="round"/>
<path id="Vector 497" d="M4 7H9" stroke="#FFE710" stroke-linecap="round" stroke-linejoin="round"/>
</g>
</g>
</svg>
