<svg width="26" height="26" viewBox="0 0 26 26" fill="none" xmlns="http://www.w3.org/2000/svg">
<path d="M3.2793 2.51953C3.2793 2.0708 3.64307 1.70703 4.0918 1.70703H20.4688C20.9175 1.70703 21.2812 2.0708 21.2812 2.51953V22.667C21.2812 23.5645 20.5537 24.292 19.6562 24.292H6.5293C4.73437 24.292 3.2793 22.8369 3.2793 21.042V2.51953Z" fill="url(#paint0_linear_3802_6795)"/>
<path d="M3.2793 2.51953C3.2793 2.0708 3.64307 1.70703 4.0918 1.70703H20.4688C20.9175 1.70703 21.2812 2.0708 21.2812 2.51953V22.667C21.2812 23.5645 20.5537 24.292 19.6562 24.292H6.5293C4.73437 24.292 3.2793 22.8369 3.2793 21.042V2.51953Z" fill="url(#paint1_radial_3802_6795)"/>
<path d="M3.2793 2.51953C3.2793 2.0708 3.64307 1.70703 4.0918 1.70703H20.4688C20.9175 1.70703 21.2812 2.0708 21.2812 2.51953V22.667C21.2812 23.5645 20.5537 24.292 19.6562 24.292H6.5293C4.73437 24.292 3.2793 22.8369 3.2793 21.042V2.51953Z" fill="url(#paint2_linear_3802_6795)" fill-opacity="0.74"/>
<path d="M3.2793 2.51953C3.2793 2.0708 3.64307 1.70703 4.0918 1.70703H20.4688C20.9175 1.70703 21.2812 2.0708 21.2812 2.51953V22.667C21.2812 23.5645 20.5537 24.292 19.6562 24.292H6.5293C4.73437 24.292 3.2793 22.8369 3.2793 21.042V2.51953Z" fill="url(#paint3_linear_3802_6795)" fill-opacity="0.39"/>
<path d="M3.2793 2.51953C3.2793 2.0708 3.64307 1.70703 4.0918 1.70703H20.4688C20.9175 1.70703 21.2812 2.0708 21.2812 2.51953V22.667C21.2812 23.5645 20.5537 24.292 19.6562 24.292H6.5293C4.73437 24.292 3.2793 22.8369 3.2793 21.042V2.51953Z" fill="url(#paint4_linear_3802_6795)"/>
<path d="M3.2793 2.51953C3.2793 2.0708 3.64307 1.70703 4.0918 1.70703H20.4688C20.9175 1.70703 21.2812 2.0708 21.2812 2.51953V22.667C21.2812 23.5645 20.5537 24.292 19.6562 24.292H6.5293C4.73437 24.292 3.2793 22.8369 3.2793 21.042V2.51953Z" fill="url(#paint5_linear_3802_6795)"/>
<path d="M3.2793 2.51953C3.2793 2.0708 3.64307 1.70703 4.0918 1.70703H20.4688C20.9175 1.70703 21.2812 2.0708 21.2812 2.51953V22.667C21.2812 23.5645 20.5537 24.292 19.6562 24.292H6.5293C4.73437 24.292 3.2793 22.8369 3.2793 21.042V2.51953Z" fill="url(#paint6_linear_3802_6795)"/>
<path d="M3.2793 2.51953C3.2793 2.0708 3.64307 1.70703 4.0918 1.70703H20.4688C20.9175 1.70703 21.2812 2.0708 21.2812 2.51953V22.667C21.2812 23.5645 20.5537 24.292 19.6562 24.292H6.5293C4.73437 24.292 3.2793 22.8369 3.2793 21.042V2.51953Z" fill="url(#paint7_linear_3802_6795)"/>
<path d="M3.2793 2.51953C3.2793 2.0708 3.64307 1.70703 4.0918 1.70703H20.4688C20.9175 1.70703 21.2812 2.0708 21.2812 2.51953V22.667C21.2812 23.5645 20.5537 24.292 19.6562 24.292H6.5293C4.73437 24.292 3.2793 22.8369 3.2793 21.042V2.51953Z" fill="url(#paint8_linear_3802_6795)"/>
<path d="M10.5159 20.7637C10.0671 20.7637 9.70337 21.1274 9.70337 21.5762V21.6497C9.70337 22.6775 8.36059 24.0493 6.99609 24.2538V24.293H20.747C22.3884 24.293 23.719 22.9623 23.719 21.3209C23.719 21.0132 23.4695 20.7637 23.1617 20.7637H10.5159Z" fill="url(#paint9_linear_3802_6795)"/>
<path d="M10.5159 20.7637C10.0671 20.7637 9.70337 21.1274 9.70337 21.5762V21.6497C9.70337 22.6775 8.36059 24.0493 6.99609 24.2538V24.293H20.747C22.3884 24.293 23.719 22.9623 23.719 21.3209C23.719 21.0132 23.4695 20.7637 23.1617 20.7637H10.5159Z" fill="url(#paint10_linear_3802_6795)"/>
<path d="M10.5159 20.7637C10.0671 20.7637 9.70337 21.1274 9.70337 21.5762V21.6497C9.70337 22.6775 8.36059 24.0493 6.99609 24.2538V24.293H20.747C22.3884 24.293 23.719 22.9623 23.719 21.3209C23.719 21.0132 23.4695 20.7637 23.1617 20.7637H10.5159Z" fill="url(#paint11_radial_3802_6795)"/>
<path d="M10.5159 20.7637C10.0671 20.7637 9.70337 21.1274 9.70337 21.5762V21.6497C9.70337 22.6775 8.36059 24.0493 6.99609 24.2538V24.293H20.747C22.3884 24.293 23.719 22.9623 23.719 21.3209C23.719 21.0132 23.4695 20.7637 23.1617 20.7637H10.5159Z" fill="url(#paint12_linear_3802_6795)"/>
<path d="M10.5159 20.7637C10.0671 20.7637 9.70337 21.1274 9.70337 21.5762V21.6497C9.70337 22.6775 8.36059 24.0493 6.99609 24.2538V24.293H20.747C22.3884 24.293 23.719 22.9623 23.719 21.3209C23.719 21.0132 23.4695 20.7637 23.1617 20.7637H10.5159Z" fill="url(#paint13_linear_3802_6795)"/>
<path d="M10.5159 20.7637C10.0671 20.7637 9.70337 21.1274 9.70337 21.5762V21.6497C9.70337 22.6775 8.36059 24.0493 6.99609 24.2538V24.293H20.747C22.3884 24.293 23.719 22.9623 23.719 21.3209C23.719 21.0132 23.4695 20.7637 23.1617 20.7637H10.5159Z" fill="url(#paint14_radial_3802_6795)"/>
<path fill-rule="evenodd" clip-rule="evenodd" d="M7.05249 8.15039C6.82287 8.15039 6.63672 8.33654 6.63672 8.56616C6.63672 8.79579 6.82287 8.98193 7.05249 8.98193H17.5261C17.7557 8.98193 17.9419 8.79579 17.9419 8.56616C17.9419 8.33654 17.7557 8.15039 17.5261 8.15039H7.05249ZM7.05249 10.5879C6.82287 10.5879 6.63672 10.774 6.63672 11.0037C6.63672 11.2333 6.82287 11.4194 7.05249 11.4194H17.5261C17.7557 11.4194 17.9419 11.2333 17.9419 11.0037C17.9419 10.774 17.7557 10.5879 17.5261 10.5879H7.05249ZM6.63672 13.4412C6.63672 13.2115 6.82287 13.0254 7.05249 13.0254H17.5261C17.7557 13.0254 17.9419 13.2115 17.9419 13.4412C17.9419 13.6708 17.7557 13.8569 17.5261 13.8569H7.05249C6.82287 13.8569 6.63672 13.6708 6.63672 13.4412ZM7.05249 15.4629C6.82287 15.4629 6.63672 15.649 6.63672 15.8787C6.63672 16.1083 6.82287 16.2944 7.05249 16.2944H13.5144C13.744 16.2944 13.9302 16.1083 13.9302 15.8787C13.9302 15.649 13.744 15.4629 13.5144 15.4629H7.05249Z" fill="#9C96A2"/>
<defs>
<linearGradient id="paint0_linear_3802_6795" x1="4.87891" y1="15.0498" x2="20.6719" y2="15.0498" gradientUnits="userSpaceOnUse">
<stop stop-color="#EAE3F2"/>
<stop offset="0.829582" stop-color="#E0D9E7"/>
</linearGradient>
<radialGradient id="paint1_radial_3802_6795" cx="0" cy="0" r="1" gradientUnits="userSpaceOnUse" gradientTransform="translate(6.83398 24.292) rotate(-90) scale(4.31641 11.0703)">
<stop offset="0.276471" stop-color="#EAE7ED"/>
<stop offset="1" stop-color="#EAE7EE" stop-opacity="0"/>
</radialGradient>
<linearGradient id="paint2_linear_3802_6795" x1="21.2331" y1="8.7064" x2="20.9248" y2="8.7064" gradientUnits="userSpaceOnUse">
<stop stop-color="white"/>
<stop offset="1" stop-color="white" stop-opacity="0"/>
</linearGradient>
<linearGradient id="paint3_linear_3802_6795" x1="12.8545" y1="1.58884" x2="12.8545" y2="1.97202" gradientUnits="userSpaceOnUse">
<stop stop-color="white"/>
<stop offset="1" stop-color="white" stop-opacity="0"/>
</linearGradient>
<linearGradient id="paint4_linear_3802_6795" x1="3.14062" y1="5.59479" x2="3.50386" y2="5.59479" gradientUnits="userSpaceOnUse">
<stop stop-color="#BDB3C8"/>
<stop offset="1" stop-color="#BDB3C8" stop-opacity="0"/>
</linearGradient>
<linearGradient id="paint5_linear_3802_6795" x1="3.75666" y1="23.5187" x2="4.21873" y2="23.3249" gradientUnits="userSpaceOnUse">
<stop stop-color="#BDB3C8"/>
<stop offset="1" stop-color="#BDB3C8" stop-opacity="0"/>
</linearGradient>
<linearGradient id="paint6_linear_3802_6795" x1="4.5544" y1="24.0156" x2="4.91712" y2="23.6034" gradientUnits="userSpaceOnUse">
<stop stop-color="#BDB3C8"/>
<stop offset="1" stop-color="#BDB3C8" stop-opacity="0"/>
</linearGradient>
<linearGradient id="paint7_linear_3802_6795" x1="5.86516" y1="24.6833" x2="6.04652" y2="24.0321" gradientUnits="userSpaceOnUse">
<stop stop-color="#BDB3C8"/>
<stop offset="1" stop-color="#BDB3C8" stop-opacity="0"/>
</linearGradient>
<linearGradient id="paint8_linear_3802_6795" x1="6.90387" y1="24.4525" x2="6.92036" y2="24.1227" gradientUnits="userSpaceOnUse">
<stop stop-color="#BDB3C8"/>
<stop offset="1" stop-color="#BDB3C8" stop-opacity="0"/>
</linearGradient>
<linearGradient id="paint9_linear_3802_6795" x1="15.3575" y1="21.0684" x2="15.3575" y2="24.293" gradientUnits="userSpaceOnUse">
<stop stop-color="#DFD5EA"/>
<stop offset="1" stop-color="#C8B2DE"/>
</linearGradient>
<linearGradient id="paint10_linear_3802_6795" x1="13.5627" y1="24.4199" x2="13.5627" y2="23.4551" gradientUnits="userSpaceOnUse">
<stop stop-color="#AB89CA"/>
<stop offset="1" stop-color="#C8B3DE" stop-opacity="0"/>
</linearGradient>
<radialGradient id="paint11_radial_3802_6795" cx="0" cy="0" r="1" gradientUnits="userSpaceOnUse" gradientTransform="translate(11.0999 26.2734) rotate(-24.3434) scale(13.767 6.46281)">
<stop offset="0.94891" stop-color="#E7DFEF" stop-opacity="0"/>
<stop offset="0.995179" stop-color="#FFFCFF"/>
</radialGradient>
<linearGradient id="paint12_linear_3802_6795" x1="9.80092" y1="21.0003" x2="9.99343" y2="21.225" gradientUnits="userSpaceOnUse">
<stop stop-color="#A8A1AE"/>
<stop offset="1" stop-color="#C6BFCD" stop-opacity="0"/>
</linearGradient>
<linearGradient id="paint13_linear_3802_6795" x1="9.40928" y1="21.407" x2="9.72758" y2="21.7008" gradientUnits="userSpaceOnUse">
<stop stop-color="#A8A1AE"/>
<stop offset="1" stop-color="#C6BFCD" stop-opacity="0"/>
</linearGradient>
<radialGradient id="paint14_radial_3802_6795" cx="0" cy="0" r="1" gradientUnits="userSpaceOnUse" gradientTransform="translate(8.47884 21.9048) rotate(24.1022) scale(2.0386 9.6595)">
<stop stop-color="#A8A1AE"/>
<stop offset="1" stop-color="#C6BFCD" stop-opacity="0"/>
</radialGradient>
</defs>
</svg>
