<svg width="21" height="21" viewBox="0 0 21 21" fill="none" xmlns="http://www.w3.org/2000/svg">
<g clip-path="url(#clip0_2001_5087)">
<path fill-rule="evenodd" clip-rule="evenodd" d="M7.80183 2.12629C7.99511 2.5692 7.79274 3.08494 7.34983 3.27822C6.17085 3.7927 5.13585 4.58817 4.33532 5.59506C3.53478 6.60196 2.99309 7.78963 2.7576 9.05424C2.52211 10.3188 2.59999 11.6219 2.98443 12.8495C3.36887 14.077 4.04817 15.1917 4.96293 16.0961C5.8777 17.0005 7.00008 17.667 8.23195 18.0374C9.46381 18.4078 10.7677 18.4708 12.0295 18.2209C13.2913 17.9709 14.4727 17.4157 15.4704 16.6037C16.4681 15.7918 17.2517 14.7477 17.7527 13.563C17.9409 13.1179 18.4543 12.9096 18.8994 13.0978C19.3445 13.286 19.5527 13.7994 19.3645 14.2445C18.7522 15.6926 17.7945 16.9686 16.5751 17.961C15.3557 18.9535 13.9117 19.6321 12.3695 19.9375C10.8272 20.243 9.23366 20.166 7.72804 19.7133C6.22242 19.2606 4.85063 18.4459 3.73258 17.3406C2.61454 16.2352 1.78428 14.8728 1.31441 13.3725C0.844539 11.8721 0.749353 10.2795 1.03718 8.73387C1.325 7.18823 1.98706 5.73664 2.96549 4.50599C3.94392 3.27534 5.20892 2.3031 6.6499 1.67428C7.09281 1.481 7.60855 1.68337 7.80183 2.12629Z" fill="#29CDFF"/>
<path fill-rule="evenodd" clip-rule="evenodd" d="M9.88128 1.13128C10.0454 0.967187 10.2679 0.875 10.5 0.875C11.764 0.875 13.0156 1.12396 14.1833 1.60766C15.3511 2.09136 16.4121 2.80033 17.3059 3.6941C18.1997 4.58786 18.9086 5.64891 19.3923 6.81667C19.876 7.98443 20.125 9.23603 20.125 10.5C20.125 10.9832 19.7332 11.375 19.25 11.375H10.5C10.0168 11.375 9.625 10.9832 9.625 10.5V1.75C9.625 1.51794 9.71719 1.29538 9.88128 1.13128ZM11.375 2.67376V9.625H18.3262C18.2442 8.89124 18.0592 8.17118 17.7756 7.48637C17.3798 6.53093 16.7997 5.6628 16.0685 4.93153C15.3372 4.20027 14.4691 3.6202 13.5136 3.22445C12.8288 2.94079 12.1088 2.7558 11.375 2.67376Z" fill="#29CDFF"/>
</g>
<defs>
<clipPath id="clip0_2001_5087">
<rect width="21" height="21" fill="white"/>
</clipPath>
</defs>
</svg>
