<svg width="22" height="22" viewBox="0 0 22 22" fill="none" xmlns="http://www.w3.org/2000/svg">
<path fill-rule="evenodd" clip-rule="evenodd" d="M8.30195 2.62633C8.49523 3.06924 8.29287 3.58498 7.84995 3.77826C6.67097 4.29275 5.63597 5.08821 4.83544 6.09511C4.0349 7.10201 3.49321 8.28968 3.25772 9.55429C3.02223 10.8189 3.10011 12.1219 3.48455 13.3495C3.86899 14.5771 4.54829 15.6917 5.46305 16.5961C6.37782 17.5005 7.5002 18.167 8.73207 18.5374C9.96393 18.9078 11.2678 18.9708 12.5296 18.7209C13.7915 18.471 14.9729 17.9158 15.9706 17.1038C16.9682 16.2918 17.7518 15.2478 18.2528 14.063C18.441 13.6179 18.9544 13.4097 19.3995 13.5979C19.8446 13.7861 20.0529 14.2995 19.8646 14.7446C19.2523 16.1926 18.2946 17.4687 17.0752 18.4611C15.8558 19.4535 14.4119 20.1321 12.8696 20.4376C11.3274 20.743 9.73378 20.666 8.22816 20.2133C6.72255 19.7606 5.35075 18.946 4.2327 17.8406C3.11466 16.7353 2.28441 15.3729 1.81453 13.8725C1.34466 12.3722 1.24947 10.7795 1.5373 9.23391C1.82512 7.68828 2.48719 6.23668 3.46562 5.00603C4.44405 3.77538 5.70905 2.80315 7.15002 2.17433C7.59294 1.98105 8.10867 2.18342 8.30195 2.62633Z" fill="#484C52"/>
<path fill-rule="evenodd" clip-rule="evenodd" d="M10.3813 1.63128C10.5454 1.46719 10.7679 1.375 11 1.375C12.264 1.375 13.5156 1.62396 14.6833 2.10766C15.8511 2.59136 16.9121 3.30033 17.8059 4.1941C18.6997 5.08786 19.4086 6.14891 19.8923 7.31667C20.376 8.48443 20.625 9.73603 20.625 11C20.625 11.4832 20.2332 11.875 19.75 11.875H11C10.5168 11.875 10.125 11.4832 10.125 11V2.25C10.125 2.01794 10.2172 1.79538 10.3813 1.63128ZM11.875 3.17376V10.125H18.8262C18.7442 9.39124 18.5592 8.67118 18.2756 7.98637C17.8798 7.03093 17.2997 6.1628 16.5685 5.43153C15.8372 4.70027 14.9691 4.1202 14.0136 3.72445C13.3288 3.44079 12.6088 3.2558 11.875 3.17376Z" fill="#484C52"/>
</svg>
