<svg width="30" height="30" viewBox="0 0 30 30" fill="none" xmlns="http://www.w3.org/2000/svg">
<g filter="url(#filter0_i_56_6024)">
<path d="M15.8749 29.911L19.5097 27.6169C22.5902 25.6726 24.2903 22.0877 23.8719 18.4186C23.7567 17.4091 22.686 16.8296 21.8013 17.2979L14.839 20.9836C14.3875 21.2226 14.2108 21.7888 14.4437 22.2498C15.1927 23.7321 15.4849 25.4104 15.282 27.0649L15.003 29.3407C14.9432 29.8288 15.4647 30.1699 15.8749 29.911Z" fill="url(#paint0_linear_56_6024)"/>
</g>
<g filter="url(#filter1_i_56_6024)">
<path d="M0.28111 12.8044L2.97407 9.41943C5.25637 6.55066 8.95979 5.28601 12.4764 6.17456C13.444 6.41904 13.872 7.57536 13.3042 8.41065L8.83524 14.9843C8.5455 15.4105 7.97218 15.5174 7.55322 15.2234C6.20612 14.278 4.61028 13.7696 2.97489 13.7649L0.725376 13.7585C0.242928 13.7571 -0.0228061 13.1864 0.28111 12.8044Z" fill="url(#paint1_linear_56_6024)"/>
</g>
<g filter="url(#filter2_i_56_6024)">
<path fill-rule="evenodd" clip-rule="evenodd" d="M19.268 27.2187L15.6331 29.5128C15.5511 29.5646 15.4468 29.4964 15.4588 29.3988L15.7378 27.123C15.9521 25.3749 15.6434 23.6015 14.852 22.0354C14.735 21.8038 14.8238 21.5193 15.0506 21.3992L22.013 17.7135C22.6123 17.3962 23.3376 17.7888 23.4156 18.4727C23.8135 21.9614 22.197 25.3701 19.268 27.2187ZM19.5097 27.6169L15.8749 29.911C15.4647 30.1699 14.9432 29.8288 15.003 29.3407L15.282 27.0649C15.4849 25.4104 15.1927 23.7321 14.4437 22.2498C14.2108 21.7888 14.3875 21.2226 14.839 20.9836L21.8013 17.2979C22.686 16.8296 23.7567 17.4091 23.8719 18.4186C24.2903 22.0877 22.5902 25.6726 19.5097 27.6169Z" fill="#E1F6FF" fill-opacity="0.1"/>
</g>
<g filter="url(#filter3_b_56_6024)">
<path d="M24.3789 18.9023C18.8464 24.5429 13.2708 24.3683 9.72616 20.7545C6.18156 17.1406 6.01031 11.4559 11.5428 5.81529C17.0753 0.174645 25.5408 -0.685905 29.6763 0.414431C30.5549 4.4262 29.9114 13.2616 24.3789 18.9023Z" fill="#2496FF" fill-opacity="0.09"/>
<path d="M24.3789 18.9023C18.8464 24.5429 13.2708 24.3683 9.72616 20.7545C6.18156 17.1406 6.01031 11.4559 11.5428 5.81529C17.0753 0.174645 25.5408 -0.685905 29.6763 0.414431C30.5549 4.4262 29.9114 13.2616 24.3789 18.9023Z" fill="url(#paint2_linear_56_6024)"/>
</g>
<g filter="url(#filter4_b_56_6024)">
<path fill-rule="evenodd" clip-rule="evenodd" d="M16.2512 22.5987C18.574 22.4061 21.2065 21.1434 23.8918 18.4056C26.5408 15.7048 28.0364 12.2198 28.7592 8.89552C29.4313 5.80409 29.4233 2.90622 29.0877 0.994243C27.1452 0.572448 24.3054 0.561201 21.2884 1.27139C18.0582 2.03179 14.6847 3.60536 12.03 6.31196C9.34464 9.04978 8.10618 11.7337 7.91724 14.1019C7.7293 16.4576 8.57182 18.5842 10.2133 20.2578C11.8548 21.9314 13.9407 22.7903 16.2512 22.5987ZM29.6763 0.414431C25.5408 -0.685905 17.0753 0.174645 11.5428 5.81529C6.01031 11.4559 6.18156 17.1406 9.72616 20.7545C13.2708 24.3683 18.8464 24.5429 24.3789 18.9023C29.9114 13.2616 30.5549 4.4262 29.6763 0.414431Z" fill="url(#paint3_linear_56_6024)" fill-opacity="0.5"/>
</g>
<g filter="url(#filter5_i_56_6024)">
<path fill-rule="evenodd" clip-rule="evenodd" d="M6.41144 19.1958C6.24695 18.7149 5.92619 18.1313 5.47851 18.3572C5.41302 18.3903 5.35161 18.4346 5.29707 18.4902L3.82024 19.9959C3.372 20.453 3.71593 21.2325 4.3487 21.1938L5.07457 21.1493C5.58493 21.118 5.9497 21.6445 5.75022 22.1245L4.55587 24.9982C4.31951 25.5669 4.8664 26.1474 5.43327 25.9295L8.37467 24.7988C8.85717 24.6133 9.36117 25.0141 9.30214 25.5364L9.25824 25.9248C9.18352 26.5858 9.9683 26.9724 10.4298 26.5019L11.7925 25.1126C11.847 25.057 11.8905 24.9944 11.9229 24.9276C12.1446 24.4712 11.5721 24.1441 11.1004 23.9764C10.144 23.6364 9.14384 22.9956 8.25864 22.0931C7.37343 21.1906 6.74498 20.1709 6.41144 19.1958Z" fill="url(#paint4_linear_56_6024)"/>
</g>
<g filter="url(#filter6_i_56_6024)">
<path fill-rule="evenodd" clip-rule="evenodd" d="M5.66874 18.7842C5.65228 18.794 5.63647 18.8063 5.62169 18.8213L4.14485 20.327C3.99544 20.4794 4.11009 20.7392 4.32101 20.7263L5.04688 20.6819C5.89749 20.6298 6.50542 21.5072 6.17296 22.3071L4.97861 25.1809C4.89983 25.3705 5.08212 25.564 5.27108 25.4913L8.21248 24.3606C9.01665 24.0515 9.85665 24.7196 9.75826 25.59L9.30199 25.5364C9.36102 25.0141 8.85702 24.6133 8.37452 24.7988L5.43312 25.9295C4.86625 26.1474 4.31936 25.5669 4.55572 24.9982L5.75007 22.1245C5.94955 21.6445 5.58479 21.118 5.07442 21.1493L4.34855 21.1937C3.71578 21.2325 3.37185 20.4529 3.82009 19.9959L5.29692 18.4902C5.35146 18.4346 5.41287 18.3903 5.47836 18.3572C5.92604 18.1312 6.2468 18.7149 6.41129 19.1958C6.74483 20.1709 7.37328 21.1906 8.25849 22.0931C9.14369 22.9956 10.1438 23.6364 11.1003 23.9764C11.572 24.1441 12.1444 24.4711 11.9228 24.9276C11.8903 24.9943 11.8468 25.057 11.7923 25.1126L10.4296 26.5019C9.96815 26.9724 9.18337 26.5858 9.25809 25.9248L9.30199 25.5364L9.75826 25.59L9.71436 25.9784C9.68945 26.1987 9.95105 26.3276 10.1049 26.1707L11.4675 24.7814C11.4823 24.7664 11.4943 24.7503 11.5039 24.7335C11.496 24.7235 11.4836 24.7095 11.4645 24.692C11.3582 24.5946 11.1658 24.4956 10.949 24.4186C9.92041 24.0528 8.86239 23.371 7.93372 22.4242C7.00505 21.4774 6.33634 20.3987 5.97762 19.35C5.90204 19.129 5.805 18.9328 5.70942 18.8244C5.69224 18.8049 5.67857 18.7923 5.66874 18.7842Z" fill="white" fill-opacity="0.1"/>
</g>
<defs>
<filter id="filter0_i_56_6024" x="14.3411" y="17.1332" width="9.59351" height="12.8668" filterUnits="userSpaceOnUse" color-interpolation-filters="sRGB">
<feFlood flood-opacity="0" result="BackgroundImageFix"/>
<feBlend mode="normal" in="SourceGraphic" in2="BackgroundImageFix" result="shape"/>
<feColorMatrix in="SourceAlpha" type="matrix" values="0 0 0 0 0 0 0 0 0 0 0 0 0 0 0 0 0 0 127 0" result="hardAlpha"/>
<feOffset/>
<feGaussianBlur stdDeviation="10.5753"/>
<feComposite in2="hardAlpha" operator="arithmetic" k2="-1" k3="1"/>
<feColorMatrix type="matrix" values="0 0 0 0 0 0 0 0 0 0 0 0 0 0 0 0 0 0 0.25 0"/>
<feBlend mode="multiply" in2="shape" result="effect1_innerShadow_56_6024"/>
</filter>
<filter id="filter1_i_56_6024" x="0.151855" y="5.89453" width="13.407" height="9.49487" filterUnits="userSpaceOnUse" color-interpolation-filters="sRGB">
<feFlood flood-opacity="0" result="BackgroundImageFix"/>
<feBlend mode="normal" in="SourceGraphic" in2="BackgroundImageFix" result="shape"/>
<feColorMatrix in="SourceAlpha" type="matrix" values="0 0 0 0 0 0 0 0 0 0 0 0 0 0 0 0 0 0 127 0" result="hardAlpha"/>
<feOffset/>
<feGaussianBlur stdDeviation="10.5753"/>
<feComposite in2="hardAlpha" operator="arithmetic" k2="-1" k3="1"/>
<feColorMatrix type="matrix" values="0 0 0 0 0 0 0 0 0 0 0 0 0 0 0 0 0 0 0.25 0"/>
<feBlend mode="multiply" in2="shape" result="effect1_innerShadow_56_6024"/>
</filter>
<filter id="filter2_i_56_6024" x="14.3411" y="17.1332" width="9.59351" height="12.8668" filterUnits="userSpaceOnUse" color-interpolation-filters="sRGB">
<feFlood flood-opacity="0" result="BackgroundImageFix"/>
<feBlend mode="normal" in="SourceGraphic" in2="BackgroundImageFix" result="shape"/>
<feColorMatrix in="SourceAlpha" type="matrix" values="0 0 0 0 0 0 0 0 0 0 0 0 0 0 0 0 0 0 127 0" result="hardAlpha"/>
<feOffset/>
<feGaussianBlur stdDeviation="10.5753"/>
<feComposite in2="hardAlpha" operator="arithmetic" k2="-1" k3="1"/>
<feColorMatrix type="matrix" values="0 0 0 0 0 0 0 0 0 0 0 0 0 0 0 0 0 0 0.25 0"/>
<feBlend mode="multiply" in2="shape" result="effect1_innerShadow_56_6024"/>
</filter>
<filter id="filter3_b_56_6024" x="-10.4231" y="-17.6255" width="58.0486" height="58.5786" filterUnits="userSpaceOnUse" color-interpolation-filters="sRGB">
<feFlood flood-opacity="0" result="BackgroundImageFix"/>
<feGaussianBlur in="BackgroundImageFix" stdDeviation="8.81275"/>
<feComposite in2="SourceAlpha" operator="in" result="effect1_backgroundBlur_56_6024"/>
<feBlend mode="normal" in="SourceGraphic" in2="effect1_backgroundBlur_56_6024" result="shape"/>
</filter>
<filter id="filter4_b_56_6024" x="-10.4231" y="-17.6255" width="58.0486" height="58.5786" filterUnits="userSpaceOnUse" color-interpolation-filters="sRGB">
<feFlood flood-opacity="0" result="BackgroundImageFix"/>
<feGaussianBlur in="BackgroundImageFix" stdDeviation="8.81275"/>
<feComposite in2="SourceAlpha" operator="in" result="effect1_backgroundBlur_56_6024"/>
<feBlend mode="normal" in="SourceGraphic" in2="effect1_backgroundBlur_56_6024" result="shape"/>
</filter>
<filter id="filter5_i_56_6024" x="3.6167" y="18.3071" width="8.35535" height="8.40263" filterUnits="userSpaceOnUse" color-interpolation-filters="sRGB">
<feFlood flood-opacity="0" result="BackgroundImageFix"/>
<feBlend mode="normal" in="SourceGraphic" in2="BackgroundImageFix" result="shape"/>
<feColorMatrix in="SourceAlpha" type="matrix" values="0 0 0 0 0 0 0 0 0 0 0 0 0 0 0 0 0 0 127 0" result="hardAlpha"/>
<feOffset/>
<feGaussianBlur stdDeviation="10.5753"/>
<feComposite in2="hardAlpha" operator="arithmetic" k2="-1" k3="1"/>
<feColorMatrix type="matrix" values="0 0 0 0 0 0 0 0 0 0 0 0 0 0 0 0 0 0 0.25 0"/>
<feBlend mode="multiply" in2="shape" result="effect1_innerShadow_56_6024"/>
</filter>
<filter id="filter6_i_56_6024" x="3.61658" y="18.3071" width="8.35535" height="8.40263" filterUnits="userSpaceOnUse" color-interpolation-filters="sRGB">
<feFlood flood-opacity="0" result="BackgroundImageFix"/>
<feBlend mode="normal" in="SourceGraphic" in2="BackgroundImageFix" result="shape"/>
<feColorMatrix in="SourceAlpha" type="matrix" values="0 0 0 0 0 0 0 0 0 0 0 0 0 0 0 0 0 0 127 0" result="hardAlpha"/>
<feOffset/>
<feGaussianBlur stdDeviation="10.5753"/>
<feComposite in2="hardAlpha" operator="arithmetic" k2="-1" k3="1"/>
<feColorMatrix type="matrix" values="0 0 0 0 0 0 0 0 0 0 0 0 0 0 0 0 0 0 0.25 0"/>
<feBlend mode="multiply" in2="shape" result="effect1_innerShadow_56_6024"/>
</filter>
<linearGradient id="paint0_linear_56_6024" x1="22.3858" y1="26.6451" x2="15.5091" y2="19.9002" gradientUnits="userSpaceOnUse">
<stop stop-color="#00296A"/>
<stop offset="0.515" stop-color="#4364F7"/>
<stop offset="1" stop-color="#6FB1FC"/>
</linearGradient>
<linearGradient id="paint1_linear_56_6024" x1="4.2843" y1="6.63401" x2="10.2625" y2="14.2169" gradientUnits="userSpaceOnUse">
<stop stop-color="#00296A"/>
<stop offset="0.515" stop-color="#4364F7"/>
<stop offset="1" stop-color="#6FB1FC"/>
</linearGradient>
<linearGradient id="paint2_linear_56_6024" x1="26.2204" y1="-3.10899" x2="21.2555" y2="27.0046" gradientUnits="userSpaceOnUse">
<stop stop-color="#FFEFEF" stop-opacity="0.5"/>
<stop offset="1" stop-color="white" stop-opacity="0"/>
</linearGradient>
<linearGradient id="paint3_linear_56_6024" x1="25.3163" y1="-1.68385" x2="22.4999" y2="18.5332" gradientUnits="userSpaceOnUse">
<stop stop-color="white" stop-opacity="0.32"/>
<stop offset="1" stop-color="#24BFFF" stop-opacity="0"/>
</linearGradient>
<linearGradient id="paint4_linear_56_6024" x1="2.70339" y1="19.3389" x2="10.4115" y2="26.8993" gradientUnits="userSpaceOnUse">
<stop stop-color="#00296A"/>
<stop offset="0.545" stop-color="#4364F7"/>
<stop offset="1" stop-color="#6FB1FC"/>
</linearGradient>
</defs>
</svg>
