<svg width="30" height="30" viewBox="0 0 30 30" fill="none" xmlns="http://www.w3.org/2000/svg">
<g filter="url(#filter0_i_56_6028)">
<path d="M6.46155 18.2308C6.46155 16.5739 7.80469 15.2308 9.46155 15.2308H20.7692C22.4261 15.2308 23.7692 16.5739 23.7692 18.2308V25.1538C23.7692 26.8107 22.4261 28.1538 20.7692 28.1538H9.46155C7.80469 28.1538 6.46155 26.8107 6.46155 25.1538V18.2308Z" fill="url(#paint0_linear_56_6028)"/>
</g>
<g filter="url(#filter1_i_56_6028)">
<path fill-rule="evenodd" clip-rule="evenodd" d="M20.7692 15.6923H9.46155C8.05959 15.6923 6.92309 16.8288 6.92309 18.2308V25.1538C6.92309 26.5558 8.0596 27.6923 9.46155 27.6923H20.7692C22.1712 27.6923 23.3077 26.5558 23.3077 25.1538V18.2308C23.3077 16.8288 22.1712 15.6923 20.7692 15.6923ZM9.46155 15.2308C7.80469 15.2308 6.46155 16.5739 6.46155 18.2308V25.1538C6.46155 26.8107 7.80469 28.1538 9.46155 28.1538H20.7692C22.4261 28.1538 23.7692 26.8107 23.7692 25.1538V18.2308C23.7692 16.5739 22.4261 15.2308 20.7692 15.2308H9.46155Z" fill="white" fill-opacity="0.1"/>
</g>
<g filter="url(#filter2_i_56_6028)">
<path d="M6.46155 4.03846C6.46155 2.82768 7.44308 1.84615 8.65386 1.84615H21.5769C22.7877 1.84615 23.7692 2.82768 23.7692 4.03846C23.7692 5.24924 22.7877 6.23077 21.5769 6.23077H8.65386C7.44308 6.23077 6.46155 5.24924 6.46155 4.03846Z" fill="url(#paint1_linear_56_6028)"/>
</g>
<g filter="url(#filter3_i_56_6028)">
<path fill-rule="evenodd" clip-rule="evenodd" d="M21.5769 2.30769H8.65386C7.69798 2.30769 6.92309 3.08258 6.92309 4.03846C6.92309 4.99434 7.69798 5.76923 8.65386 5.76923H21.5769C22.5328 5.76923 23.3077 4.99434 23.3077 4.03846C23.3077 3.08258 22.5328 2.30769 21.5769 2.30769ZM8.65386 1.84615C7.44308 1.84615 6.46155 2.82768 6.46155 4.03846C6.46155 5.24924 7.44308 6.23077 8.65386 6.23077H21.5769C22.7877 6.23077 23.7692 5.24924 23.7692 4.03846C23.7692 2.82768 22.7877 1.84615 21.5769 1.84615H8.65386Z" fill="white" fill-opacity="0.1"/>
</g>
<g filter="url(#filter4_bi_56_6028)">
<path d="M0 10.8462C0 9.1893 1.34315 7.84615 3 7.84615H27C28.6569 7.84615 30 9.1893 30 10.8462V19.8462C30 21.503 28.6569 22.8462 27 22.8462H3C1.34315 22.8462 0 21.503 0 19.8462V10.8462Z" fill="#2496FF" fill-opacity="0.09"/>
<path d="M0 10.8462C0 9.1893 1.34315 7.84615 3 7.84615H27C28.6569 7.84615 30 9.1893 30 10.8462V19.8462C30 21.503 28.6569 22.8462 27 22.8462H3C1.34315 22.8462 0 21.503 0 19.8462V10.8462Z" fill="url(#paint2_linear_56_6028)"/>
</g>
<g filter="url(#filter5_bi_56_6028)">
<path fill-rule="evenodd" clip-rule="evenodd" d="M27 8.53846H3C1.7255 8.53846 0.692308 9.57165 0.692308 10.8462V19.8462C0.692308 21.1207 1.7255 22.1538 3 22.1538H27C28.2745 22.1538 29.3077 21.1207 29.3077 19.8462V10.8462C29.3077 9.57165 28.2745 8.53846 27 8.53846ZM3 7.84615C1.34315 7.84615 0 9.1893 0 10.8462V19.8462C0 21.503 1.34315 22.8462 3 22.8462H27C28.6569 22.8462 30 21.503 30 19.8462V10.8462C30 9.1893 28.6569 7.84615 27 7.84615H3Z" fill="url(#paint3_linear_56_6028)" fill-opacity="0.5"/>
</g>
<path fill-rule="evenodd" clip-rule="evenodd" d="M6.46155 22.8173V25.125C6.46155 26.7818 7.80469 28.125 9.46155 28.125H20.7692C22.4261 28.125 23.7692 26.7818 23.7692 25.125V22.8173H6.46155Z" fill="url(#paint4_linear_56_6028)"/>
<defs>
<filter id="filter0_i_56_6028" x="6.46155" y="15.2308" width="17.3077" height="12.9231" filterUnits="userSpaceOnUse" color-interpolation-filters="sRGB">
<feFlood flood-opacity="0" result="BackgroundImageFix"/>
<feBlend mode="normal" in="SourceGraphic" in2="BackgroundImageFix" result="shape"/>
<feColorMatrix in="SourceAlpha" type="matrix" values="0 0 0 0 0 0 0 0 0 0 0 0 0 0 0 0 0 0 127 0" result="hardAlpha"/>
<feOffset/>
<feGaussianBlur stdDeviation="9.96721"/>
<feComposite in2="hardAlpha" operator="arithmetic" k2="-1" k3="1"/>
<feColorMatrix type="matrix" values="0 0 0 0 0 0 0 0 0 0 0 0 0 0 0 0 0 0 0.25 0"/>
<feBlend mode="multiply" in2="shape" result="effect1_innerShadow_56_6028"/>
</filter>
<filter id="filter1_i_56_6028" x="6.46155" y="15.2308" width="17.3077" height="12.9231" filterUnits="userSpaceOnUse" color-interpolation-filters="sRGB">
<feFlood flood-opacity="0" result="BackgroundImageFix"/>
<feBlend mode="normal" in="SourceGraphic" in2="BackgroundImageFix" result="shape"/>
<feColorMatrix in="SourceAlpha" type="matrix" values="0 0 0 0 0 0 0 0 0 0 0 0 0 0 0 0 0 0 127 0" result="hardAlpha"/>
<feOffset/>
<feGaussianBlur stdDeviation="9.96721"/>
<feComposite in2="hardAlpha" operator="arithmetic" k2="-1" k3="1"/>
<feColorMatrix type="matrix" values="0 0 0 0 0 0 0 0 0 0 0 0 0 0 0 0 0 0 0.25 0"/>
<feBlend mode="multiply" in2="shape" result="effect1_innerShadow_56_6028"/>
</filter>
<filter id="filter2_i_56_6028" x="6.46155" y="1.84615" width="17.3077" height="4.38462" filterUnits="userSpaceOnUse" color-interpolation-filters="sRGB">
<feFlood flood-opacity="0" result="BackgroundImageFix"/>
<feBlend mode="normal" in="SourceGraphic" in2="BackgroundImageFix" result="shape"/>
<feColorMatrix in="SourceAlpha" type="matrix" values="0 0 0 0 0 0 0 0 0 0 0 0 0 0 0 0 0 0 127 0" result="hardAlpha"/>
<feOffset/>
<feGaussianBlur stdDeviation="9.96721"/>
<feComposite in2="hardAlpha" operator="arithmetic" k2="-1" k3="1"/>
<feColorMatrix type="matrix" values="0 0 0 0 0 0 0 0 0 0 0 0 0 0 0 0 0 0 0.25 0"/>
<feBlend mode="multiply" in2="shape" result="effect1_innerShadow_56_6028"/>
</filter>
<filter id="filter3_i_56_6028" x="6.46155" y="1.84615" width="17.3077" height="4.38462" filterUnits="userSpaceOnUse" color-interpolation-filters="sRGB">
<feFlood flood-opacity="0" result="BackgroundImageFix"/>
<feBlend mode="normal" in="SourceGraphic" in2="BackgroundImageFix" result="shape"/>
<feColorMatrix in="SourceAlpha" type="matrix" values="0 0 0 0 0 0 0 0 0 0 0 0 0 0 0 0 0 0 127 0" result="hardAlpha"/>
<feOffset/>
<feGaussianBlur stdDeviation="9.96721"/>
<feComposite in2="hardAlpha" operator="arithmetic" k2="-1" k3="1"/>
<feColorMatrix type="matrix" values="0 0 0 0 0 0 0 0 0 0 0 0 0 0 0 0 0 0 0.25 0"/>
<feBlend mode="multiply" in2="shape" result="effect1_innerShadow_56_6028"/>
</filter>
<filter id="filter4_bi_56_6028" x="-16.612" y="-8.76587" width="63.224" height="48.224" filterUnits="userSpaceOnUse" color-interpolation-filters="sRGB">
<feFlood flood-opacity="0" result="BackgroundImageFix"/>
<feGaussianBlur in="BackgroundImageFix" stdDeviation="8.30601"/>
<feComposite in2="SourceAlpha" operator="in" result="effect1_backgroundBlur_56_6028"/>
<feBlend mode="normal" in="SourceGraphic" in2="effect1_backgroundBlur_56_6028" result="shape"/>
<feColorMatrix in="SourceAlpha" type="matrix" values="0 0 0 0 0 0 0 0 0 0 0 0 0 0 0 0 0 0 127 0" result="hardAlpha"/>
<feOffset/>
<feGaussianBlur stdDeviation="9.96721"/>
<feComposite in2="hardAlpha" operator="arithmetic" k2="-1" k3="1"/>
<feColorMatrix type="matrix" values="0 0 0 0 0.858333 0 0 0 0 0.95841 0 0 0 0 1 0 0 0 1 0"/>
<feBlend mode="normal" in2="shape" result="effect2_innerShadow_56_6028"/>
</filter>
<filter id="filter5_bi_56_6028" x="-16.612" y="-8.76587" width="63.224" height="48.224" filterUnits="userSpaceOnUse" color-interpolation-filters="sRGB">
<feFlood flood-opacity="0" result="BackgroundImageFix"/>
<feGaussianBlur in="BackgroundImageFix" stdDeviation="8.30601"/>
<feComposite in2="SourceAlpha" operator="in" result="effect1_backgroundBlur_56_6028"/>
<feBlend mode="normal" in="SourceGraphic" in2="effect1_backgroundBlur_56_6028" result="shape"/>
<feColorMatrix in="SourceAlpha" type="matrix" values="0 0 0 0 0 0 0 0 0 0 0 0 0 0 0 0 0 0 127 0" result="hardAlpha"/>
<feOffset/>
<feGaussianBlur stdDeviation="9.96721"/>
<feComposite in2="hardAlpha" operator="arithmetic" k2="-1" k3="1"/>
<feColorMatrix type="matrix" values="0 0 0 0 0.858333 0 0 0 0 0.95841 0 0 0 0 1 0 0 0 1 0"/>
<feBlend mode="normal" in2="shape" result="effect2_innerShadow_56_6028"/>
</filter>
<linearGradient id="paint0_linear_56_6028" x1="26.6824" y1="22.7321" x2="12.5917" y2="19.1306" gradientUnits="userSpaceOnUse">
<stop stop-color="#0052D4"/>
<stop offset="0.5" stop-color="#4364F7"/>
<stop offset="1" stop-color="#6FB1FC"/>
</linearGradient>
<linearGradient id="paint1_linear_56_6028" x1="26.6824" y1="4.39125" x2="17.106" y2="-2.82304" gradientUnits="userSpaceOnUse">
<stop stop-color="#0052D4"/>
<stop offset="0.5" stop-color="#4364F7"/>
<stop offset="1" stop-color="#6FB1FC"/>
</linearGradient>
<linearGradient id="paint2_linear_56_6028" x1="6.92308" y1="7.84615" x2="11.2483" y2="26.4781" gradientUnits="userSpaceOnUse">
<stop stop-color="#EFF1FF"/>
<stop offset="1" stop-color="white" stop-opacity="0"/>
</linearGradient>
<linearGradient id="paint3_linear_56_6028" x1="7.5" y1="8.71154" x2="18.17" y2="30.0252" gradientUnits="userSpaceOnUse">
<stop stop-color="white" stop-opacity="0.32"/>
<stop offset="1" stop-color="#24BFFF" stop-opacity="0"/>
</linearGradient>
<linearGradient id="paint4_linear_56_6028" x1="17.6677" y1="22.8585" x2="17.5941" y2="28.1123" gradientUnits="userSpaceOnUse">
<stop stop-color="#003D9E"/>
<stop offset="1" stop-color="white" stop-opacity="0"/>
</linearGradient>
</defs>
</svg>
