<svg width="21" height="20" viewBox="0 0 21 20" fill="none" xmlns="http://www.w3.org/2000/svg">
<path fill-rule="evenodd" clip-rule="evenodd" d="M9.5 2C5.63401 2 2.5 5.13401 2.5 9C2.5 12.866 5.63401 16 9.5 16C13.366 16 16.5 12.866 16.5 9C16.5 5.13401 13.366 2 9.5 2ZM0.5 9C0.5 4.02944 4.52944 0 9.5 0C14.4706 0 18.5 4.02944 18.5 9C18.5 13.9706 14.4706 18 9.5 18C4.52944 18 0.5 13.9706 0.5 9Z" fill="#29CDFF"/>
<path fill-rule="evenodd" clip-rule="evenodd" d="M14.4433 13.9429C14.8338 13.5524 15.467 13.5524 15.8575 13.9429L20.2075 18.2929C20.598 18.6834 20.598 19.3166 20.2075 19.7071C19.817 20.0977 19.1838 20.0977 18.7933 19.7071L14.4433 15.3571C14.0528 14.9666 14.0528 14.3334 14.4433 13.9429Z" fill="#29CDFF"/>
</svg>
