<svg width="21" height="21" viewBox="0 0 21 21" fill="none" xmlns="http://www.w3.org/2000/svg">
<g clip-path="url(#clip0_49_4897)">
<path fill-rule="evenodd" clip-rule="evenodd" d="M9.50009 2C5.6341 2 2.50009 5.13401 2.50009 9C2.50009 12.866 5.6341 16 9.50009 16C13.3661 16 16.5001 12.866 16.5001 9C16.5001 5.13401 13.3661 2 9.50009 2ZM0.500092 9C0.500092 4.02944 4.52953 0 9.50009 0C14.4707 0 18.5001 4.02944 18.5001 9C18.5001 13.9706 14.4707 18 9.50009 18C4.52953 18 0.500092 13.9706 0.500092 9Z" fill="#484C52"/>
<path fill-rule="evenodd" clip-rule="evenodd" d="M14.4429 13.9429C14.8334 13.5524 15.4666 13.5524 15.8571 13.9429L20.2071 18.2929C20.5976 18.6834 20.5976 19.3166 20.2071 19.7071C19.8166 20.0977 19.1834 20.0977 18.7929 19.7071L14.4429 15.3571C14.0524 14.9666 14.0524 14.3334 14.4429 13.9429Z" fill="#484C52"/>
</g>
<defs>
<clipPath id="clip0_49_4897">
<rect width="21" height="21" fill="white"/>
</clipPath>
</defs>
</svg>
