<svg width="19" height="19" viewBox="0 0 19 19" fill="none" xmlns="http://www.w3.org/2000/svg">
<g id="Group 40002 1" clip-path="url(#clip0_3505_9048)">
<path id="Vector" d="M9.5 19C14.7467 19 19 14.7467 19 9.5C19 4.25329 14.7467 0 9.5 0C4.25329 0 0 4.25329 0 9.5C0 14.7467 4.25329 19 9.5 19Z" fill="#C6C6C6"/>
<path id="Vector_2" fill-rule="evenodd" clip-rule="evenodd" d="M10.6601 4.73354C10.3893 3.62202 8.80754 3.62202 8.53678 4.73354C8.49636 4.90056 8.41707 5.05568 8.30537 5.18628C8.19367 5.31687 8.05271 5.41925 7.89397 5.48508C7.73523 5.5509 7.56319 5.57832 7.39185 5.5651C7.22051 5.55189 7.05472 5.4984 6.90795 5.409C5.93037 4.81334 4.81171 5.93198 5.40738 6.90955C5.79214 7.54083 5.45085 8.3645 4.73262 8.53906C3.62038 8.8091 3.62038 10.3916 4.73262 10.6609C4.89969 10.7014 5.05484 10.7808 5.18544 10.8925C5.31603 11.0043 5.41838 11.1454 5.48415 11.3042C5.54991 11.463 5.57724 11.6351 5.5639 11.8065C5.55056 11.9779 5.49693 12.1437 5.40738 12.2904C4.81171 13.268 5.93037 14.3866 6.90795 13.791C7.05469 13.7014 7.2205 13.6478 7.39189 13.6345C7.56327 13.6211 7.73539 13.6485 7.89421 13.7142C8.05304 13.78 8.19409 13.8823 8.30587 14.0129C8.41766 14.1435 8.49702 14.2987 8.53749 14.4657C8.80754 15.578 10.3901 15.578 10.6594 14.4657C10.7 14.2988 10.7794 14.1437 10.8912 14.0132C11.0031 13.8827 11.1441 13.7804 11.3029 13.7147C11.4616 13.6489 11.6337 13.6216 11.805 13.6348C11.9764 13.6481 12.1422 13.7016 12.2889 13.791C13.2665 14.3866 14.3852 13.268 13.7895 12.2904C13.7001 12.1437 13.6466 11.9779 13.6333 11.8065C13.6201 11.6352 13.6474 11.4632 13.7132 11.3044C13.7789 11.1456 13.8812 11.0046 14.0117 10.8928C14.1422 10.781 14.2973 10.7015 14.4643 10.6609C15.5765 10.3909 15.5765 8.80839 14.4643 8.53906C14.2972 8.49859 14.142 8.41923 14.0114 8.30745C13.8808 8.19566 13.7785 8.05462 13.7127 7.89579C13.647 7.73697 13.6196 7.56486 13.633 7.39348C13.6463 7.22209 13.6999 7.05628 13.7895 6.90955C14.3852 5.93198 13.2665 4.81334 12.2889 5.409C12.1422 5.49855 11.9764 5.55218 11.805 5.56552C11.6336 5.57886 11.4615 5.55153 11.3027 5.48577C11.1438 5.42 11.0028 5.31765 10.891 5.18706C10.7792 5.05647 10.7006 4.90061 10.6601 4.73354Z" stroke="white" stroke-width="1.5"/>
<path id="Vector_3" d="M10.8654 9.59967C10.8654 10.2993 10.2983 10.8664 9.5987 10.8664C8.89914 10.8664 8.33203 10.2993 8.33203 9.59967C8.33203 8.90011 8.89914 8.33301 9.5987 8.33301C10.2983 8.33301 10.8654 8.90011 10.8654 9.59967Z" stroke="white" stroke-width="1.5"/>
</g>
<defs>
<clipPath id="clip0_3505_9048">
<rect width="19" height="19" fill="white"/>
</clipPath>
</defs>
</svg>
