<svg width="13" height="14" viewBox="0 0 13 14" fill="none" xmlns="http://www.w3.org/2000/svg">
<g id="Group 122">
<path id="Vector" d="M6.5 13.5C10.0899 13.5 13 10.5899 13 7C13 3.41015 10.0899 0.5 6.5 0.5C2.91015 0.5 0 3.41015 0 7C0 10.5899 2.91015 13.5 6.5 13.5Z" fill="#FFE790"/>
<path id="Vector_2" d="M3.19995 8C3.69995 9.8 5.69995 10.9 7.49995 10.4C8.59995 10 9.49995 9.1 9.79995 8" stroke="#E6A706" stroke-linecap="round" stroke-linejoin="round"/>
<g id="Group 75">
<path id="Vector_3" d="M9.1499 5.5C9.01183 5.5 8.8999 5.38807 8.8999 5.25C8.8999 5.11193 9.01183 5 9.1499 5" stroke="#E6A706" stroke-linecap="round" stroke-linejoin="round"/>
<path id="Vector_4" d="M9.15015 5.5C9.28822 5.5 9.40015 5.38807 9.40015 5.25C9.40015 5.11193 9.28822 5 9.15015 5" stroke="#E6A706" stroke-linecap="round" stroke-linejoin="round"/>
</g>
<g id="Group 76">
<path id="Vector_5" d="M3.84985 5.5C3.71178 5.5 3.59985 5.38807 3.59985 5.25C3.59985 5.11193 3.71178 5 3.84985 5" stroke="#E6A706" stroke-linecap="round" stroke-linejoin="round"/>
<path id="Vector_6" d="M3.84985 5.5C3.98792 5.5 4.09985 5.38807 4.09985 5.25C4.09985 5.11193 3.98792 5 3.84985 5" stroke="#E6A706" stroke-linecap="round" stroke-linejoin="round"/>
</g>
</g>
</svg>
