<svg width="13" height="13" viewBox="0 0 13 13" fill="none" xmlns="http://www.w3.org/2000/svg">
<path id="Union" d="M5.62524 1.07915C6.00594 0.391903 6.99406 0.391904 7.37476 1.07915L8.66273 3.40427C8.80062 3.65319 9.03802 3.83157 9.31548 3.89475L11.8922 4.48145C12.6242 4.64812 12.9184 5.53195 12.4322 6.10405L10.6239 8.23199C10.4488 8.43804 10.3646 8.70623 10.3905 8.97539L10.659 11.7633C10.7331 12.5324 9.94421 13.0913 9.2432 12.7665L6.92041 11.6903C6.65375 11.5667 6.34625 11.5667 6.07959 11.6903L3.7568 12.7665C3.05579 13.0913 2.26694 12.5324 2.34099 11.7633L2.60945 8.97539C2.63537 8.70623 2.55118 8.43804 2.37608 8.23198L0.567778 6.10405C0.0816182 5.53195 0.375762 4.64812 1.10779 4.48145L3.68452 3.89475C3.96198 3.83157 4.19938 3.65319 4.33727 3.40427L5.62524 1.07915Z" fill="#FFCB45"/>
</svg>
