<svg width="41" height="37" viewBox="0 0 41 37" fill="none" xmlns="http://www.w3.org/2000/svg">
<path d="M24.4003 3.32547L27.3324 9.07007C27.7865 9.92309 28.6144 10.5229 29.576 10.6562L36.1338 11.5226C39.5125 11.989 40.7868 15.3785 38.1667 17.8461L33.5709 22.276C32.8231 22.9691 32.4759 23.9953 32.6628 24.995L33.6957 31.2912C34.2833 34.5567 31.3395 36.8734 28.3615 35.3806L22.3253 32.3817C21.484 31.9685 20.4957 31.9685 19.6544 32.3817L13.6182 35.3806C10.6402 36.8601 7.51469 34.6136 8.38808 31.2135L9.40704 25.0544C9.59401 24.0547 9.24679 23.0285 8.49894 22.3354L3.81311 17.7489C1.17218 15.3105 2.46728 11.989 5.84595 11.5226L12.1626 10.6562C13.1241 10.5229 14.2275 9.93642 14.6682 9.07007L17.6596 3.32547C19.182 0.433177 22.8913 0.433177 24.4003 3.32547Z" fill="#CACACA"/>
</svg>
