<svg width="22" height="21" viewBox="0 0 22 21" fill="none" xmlns="http://www.w3.org/2000/svg">
<path fill-rule="evenodd" clip-rule="evenodd" d="M4.40641 13.5314C5.22688 12.7109 6.33968 12.25 7.5 12.25H14.5C15.6603 12.25 16.7731 12.7109 17.5936 13.5314C18.4141 14.3519 18.875 15.4647 18.875 16.625V18.375C18.875 18.8582 18.4832 19.25 18 19.25C17.5168 19.25 17.125 18.8582 17.125 18.375V16.625C17.125 15.9288 16.8484 15.2611 16.3562 14.7688C15.8639 14.2766 15.1962 14 14.5 14H7.5C6.80381 14 6.13613 14.2766 5.64384 14.7688C5.15156 15.2611 4.875 15.9288 4.875 16.625V18.375C4.875 18.8582 4.48325 19.25 4 19.25C3.51675 19.25 3.125 18.8582 3.125 18.375V16.625C3.125 15.4647 3.58594 14.3519 4.40641 13.5314Z" fill="#484C52"/>
<path fill-rule="evenodd" clip-rule="evenodd" d="M11 3.5C9.55025 3.5 8.375 4.67525 8.375 6.125C8.375 7.57475 9.55025 8.75 11 8.75C12.4497 8.75 13.625 7.57475 13.625 6.125C13.625 4.67525 12.4497 3.5 11 3.5ZM6.625 6.125C6.625 3.70875 8.58375 1.75 11 1.75C13.4162 1.75 15.375 3.70875 15.375 6.125C15.375 8.54125 13.4162 10.5 11 10.5C8.58375 10.5 6.625 8.54125 6.625 6.125Z" fill="#484C52"/>
</svg>
