<svg width="22" height="22" viewBox="0 0 22 22" fill="none" xmlns="http://www.w3.org/2000/svg">
<path fill-rule="evenodd" clip-rule="evenodd" d="M4.15641 14.0314C4.97688 13.2109 6.08968 12.75 7.25 12.75H14.25C15.4103 12.75 16.5231 13.2109 17.3436 14.0314C18.1641 14.8519 18.625 15.9647 18.625 17.125V18.875C18.625 19.3582 18.2332 19.75 17.75 19.75C17.2668 19.75 16.875 19.3582 16.875 18.875V17.125C16.875 16.4288 16.5984 15.7611 16.1062 15.2688C15.6139 14.7766 14.9462 14.5 14.25 14.5H7.25C6.55381 14.5 5.88613 14.7766 5.39384 15.2688C4.90156 15.7611 4.625 16.4288 4.625 17.125V18.875C4.625 19.3582 4.23325 19.75 3.75 19.75C3.26675 19.75 2.875 19.3582 2.875 18.875V17.125C2.875 15.9647 3.33594 14.8519 4.15641 14.0314Z" fill="#29CDFF"/>
<path fill-rule="evenodd" clip-rule="evenodd" d="M10.75 4C9.30025 4 8.125 5.17525 8.125 6.625C8.125 8.07475 9.30025 9.25 10.75 9.25C12.1997 9.25 13.375 8.07475 13.375 6.625C13.375 5.17525 12.1997 4 10.75 4ZM6.375 6.625C6.375 4.20875 8.33375 2.25 10.75 2.25C13.1662 2.25 15.125 4.20875 15.125 6.625C15.125 9.04125 13.1662 11 10.75 11C8.33375 11 6.375 9.04125 6.375 6.625Z" fill="#29CDFF"/>
</svg>
